SplineFontDB: 3.0
FontName: LindenHill-Bold
FullName: Linden Hill Bold
FamilyName: Linden Hill
Weight: Bold
Copyright: Copyright (c) 2009 Barry Schwartz\n\nPermission is hereby granted, free of charge, to any person\nobtaining a copy of this software and associated documentation\nfiles (the "Software"), to deal in the Software without\nrestriction, including without limitation the rights to use,\ncopy, modify, merge, publish, distribute, sublicense, and/or sell\ncopies of the Software, and to permit persons to whom the\nSoftware is furnished to do so, subject to the following\nconditions:\n\nThe above copyright notice and this permission notice shall be\nincluded in all copies or substantial portions of the Software.\n\nTHE SOFTWARE IS PROVIDED "AS IS", WITHOUT WARRANTY OF ANY KIND,\nEXPRESS OR IMPLIED, INCLUDING BUT NOT LIMITED TO THE WARRANTIES\nOF MERCHANTABILITY, FITNESS FOR A PARTICULAR PURPOSE AND\nNONINFRINGEMENT. IN NO EVENT SHALL THE AUTHORS OR COPYRIGHT\nHOLDERS BE LIABLE FOR ANY CLAIM, DAMAGES OR OTHER LIABILITY,\nWHETHER IN AN ACTION OF CONTRACT, TORT OR OTHERWISE, ARISING\nFROM, OUT OF OR IN CONNECTION WITH THE SOFTWARE OR THE USE OR\nOTHER DEALINGS IN THE SOFTWARE.
UComments: "Scaling: Cut the 12-point to 640 pixels high and scale it to 122%.+AAoACgAA-Artificial emboldening: Try setting emboldening to 30 em units." 
Version: 001.000
ItalicAngle: 0
UnderlinePosition: -204
UnderlineWidth: 102
Ascent: 1504
Descent: 544
LayerCount: 3
Layer: 0 0 "Back"  1
Layer: 1 0 "Fore"  0
Layer: 2 0 "backup"  1
NeedsXUIDChange: 1
XUID: [1021 658 797806517 427014]
FSType: 0
OS2Version: 0
OS2_WeightWidthSlopeOnly: 0
OS2_UseTypoMetrics: 1
CreationTime: 1249677682
ModificationTime: 1253785586
OS2TypoAscent: 0
OS2TypoAOffset: 1
OS2TypoDescent: 0
OS2TypoDOffset: 1
OS2TypoLinegap: 184
OS2WinAscent: 0
OS2WinAOffset: 1
OS2WinDescent: 0
OS2WinDOffset: 1
HheadAscent: 0
HheadAOffset: 1
HheadDescent: 0
HheadDOffset: 1
OS2Vendor: 'PfEd'

StartChar: i
Encoding: 105 105 0
Width: 652
VWidth: 0
Flags: HW
LayerCount: 3
Fore
Refer: 237 775 N 1 0 0 1 727 0 2
Refer: 178 305 N 1 0 0 1 0 0 2
Layer: 2
SplineSet
62 749 m 5xf0
 182 769 311 795 440 828 c 5
 440 131 l 6
 440 67 444 77 614 75 c 5
 614 0 l 5
 64 0 l 5
 64 75 l 5
 179 76 205 70 205 124 c 6
 205 661 l 6
 205 687 196 701 179 701 c 4
 174 701 65 681 65 681 c 5
 62 749 l 5xf0
304 1176 m 4xe8
 304 1216 402 1309 429 1309 c 4
 470 1309 555 1200 555 1176 c 4
 555 1146 470 1045 435 1045 c 4
 403 1045 304 1141 304 1176 c 4xe8
EndSplineSet
AlternateSubs2: "'aalt' Access All Alternates in Latin lookup 0 subtable" i.TRK
Substitution2: "turkish subtable" i.TRK
EndChar

StartChar: j
Encoding: 106 106 1
Width: 512
VWidth: 0
Flags: HW
LayerCount: 3
Fore
Refer: 237 775 N 1 0 0 1 641 0 2
Refer: 179 567 N 1 0 0 1 0 0 2
Layer: 2
SplineSet
259 1176 m 0xe8
 259 1216 357 1309 384 1309 c 0
 425 1309 510 1200 510 1176 c 0
 510 1146 425 1045 390 1045 c 0
 358 1045 259 1141 259 1176 c 0xe8
-191 -413 m 0
 -191 -358 -144 -293 -116 -264 c 0
 -104 -251 -92 -247 -77 -247 c 0
 -45 -247 -29 -274 -17 -295 c 0
 24 -365 44 -408 89 -408 c 0
 158 -408 177 -269 177 -64 c 2
 177 629 l 2
 177 668 173 695 143 695 c 0
 141 695 138 694 135 694 c 0
 114 691 95 687 36 677 c 1
 32 755 l 1
 122 770 279 797 412 828 c 1
 412 -99 l 2xf0
 412 -394 156 -530 44 -530 c 0
 -28 -530 -191 -507 -191 -413 c 0
EndSplineSet
EndChar

StartChar: l
Encoding: 108 108 2
Width: 639
VWidth: 0
Flags: HMW
HStem: 0 75<64 200.09 438.516 604> 1469 20G<383.5 437>
VStem: 202 235<79.5728 1328.98>
AnchorPoint: "commaright" 589 1340 basechar 0
AnchorPoint: "cedilla" 314 -190 basechar 0
AnchorPoint: "top" 281 1500 basechar 0
LayerCount: 3
Fore
SplineSet
49 1389 m 1
 218 1420 330 1455 437 1489 c 1
 437 130 l 2
 437 70 466 79 604 75 c 1
 604 0 l 1
 64 0 l 1
 64 75 l 1
 162 76 202 69 202 131 c 2
 202 1222 l 2
 202 1306 194 1329 164 1329 c 0
 146.9001119 1329 114.078870033 1318.29698143 56 1310 c 1
 49 1389 l 1
EndSplineSet
EndChar

StartChar: .notdef
Encoding: 65536 -1 4
Width: 1024
VWidth: 0
Flags: W
HStem: 0 70<433.688 549.527> 265 63<435.369 542.758> 1338 114<340.261 556.41>
VStem: 106 549<927.689 1113.28> 106 288<99.812 235.399> 106 225<422.587 702.229> 106 173<1178.01 1278.02> 458 460<417.66 609.346> 590 328<99.5259 237.269> 772 146<833.282 1115.76>
LayerCount: 3
Fore
SplineSet
106 0 m 17xe240
 106 1452 l 9
 918 1452 l 25
 918 0 l 25
 106 0 l 17xe240
279 1211 m 0
 279 1195 286 1178 314 1178 c 0
 373 1178 398 1180 427 1180 c 0
 544 1180 655 1100 655 1039 c 0xf0
 655 861 331 786 331 571 c 0
 331 419 454 328 507 328 c 0
 528 328 543 338 543 361 c 0
 543 402 458 424 458 519 c 0xe5
 458 613 595 675 719 822 c 0
 760 871 772 908 772 970 c 0
 772 1160 535 1338 452 1338 c 0
 368 1338 279 1248 279 1211 c 0
394 168 m 0xe880
 394 140 453 72 490 70 c 1
 540 72 590 152 590 167 c 0
 589 199 532 265 494 265 c 0
 465 265 394 209 394 168 c 0xe880
EndSplineSet
Validated: 1
EndChar

StartChar: k
Encoding: 107 107 5
Width: 1298
VWidth: 0
Flags: HMW
HStem: 0 75<65 200.941 439.387 630 1083.46 1243> 727 75<718 858.943 1002.01 1224> 1469 20G<347.5 439>
VStem: 204 235<80.219 301 404 1322.99>
AnchorPoint: "cedilla" 659 -190 basechar 0
LayerCount: 3
Fore
SplineSet
36 1305 m 1
 32 1384 l 1
 154 1406 256 1423 439 1489 c 1
 439 404 l 1
 822 670 l 2
 848 688 859 700 859 708 c 0
 859 730 781 725 718 727 c 1
 718 802 l 1
 1226 802 l 1
 1224 727 l 1
 1090 726 1057 732 961 665 c 2
 715 493 l 1
 1018 170 l 2
 1100 83 1150 75 1202 75 c 2
 1245 75 l 1
 1243 0 l 1
 836 0 l 1
 529 364 l 1
 439 301 l 1
 439 120 l 2
 439 71 470 77 630 75 c 1
 632 0 l 1
 65 0 l 1
 64 75 l 1
 172 78 204 74 204 138 c 2
 204 1244 l 2
 204 1304 198 1323 159 1323 c 0
 134 1323 95 1315 36 1305 c 1
EndSplineSet
Layer: 2
SplineSet
292 338 m 1
 292 116 l 2
 292 59 311 67 454 65 c 1
 456 0 l 1
 36 0 l 1
 35 65 l 1
 138 66 153 59 153 111 c 2
 153 1289 l 2
 153 1359 151 1385 122 1385 c 0
 113 1385 72 1376 34 1366 c 1
 30 1431 l 1
 104 1445 183 1460 297 1485 c 1
 297 410 l 1
 670 714 l 2
 681 723 684 729 684 735 c 0
 684 747 668 749 642 749 c 0
 625 749 604 748 580 748 c 1
 580 803 l 1
 910 803 l 1
 908 748 l 1
 847 747 830 753 766 702 c 2
 475 471 l 1
 780 114 l 2
 819 69 811 65 872 65 c 2
 926 65 l 1
 925 0 l 1
 683 0 l 1
 364 393 l 1
 292 338 l 1
EndSplineSet
EndChar

StartChar: n
Encoding: 110 110 6
Width: 1083
VWidth: 0
Flags: HMW
HStem: 0 75<26 165.029 404.268 499 561 678.293 918.793 1054> 674 142<570.089 825.5> 815 20G<324.083 400>
VStem: 167 235<77.187 646.852> 680 235<79.875 657.309>
AnchorPoint: "cedilla" 524 -190 basechar 0
AnchorPoint: "top" 537 1000 basechar 0
LayerCount: 3
Fore
SplineSet
24 75 m 1xd8
 155 78 167 65 167 147 c 2
 167 645 l 2
 167 685 159 693 139 693 c 0
 119 693 93 682 32 669 c 1
 28 739 l 1
 402 835 l 1xb8
 398 785 400 756 397 686 c 1
 432 700 604 816 753 816 c 0
 898 816 915 710 915 618 c 2
 915 138 l 2
 915 75 957 75 1055 75 c 1
 1054 0 l 1
 561 0 l 1
 561 75 l 1
 653 78 680 64 680 138 c 2
 680 540 l 2
 680 642 639 674 586 674 c 0
 498 674 402 630 402 630 c 1
 402 147 l 2
 402 65 421 77 499 75 c 1
 499 0 l 1
 26 0 l 1
 24 75 l 1xd8
EndSplineSet
EndChar

StartChar: a
Encoding: 97 97 7
Width: 864
VWidth: 0
Flags: W
HStem: -41 21G<616 639.5> -23 131<178.5 394.413> 393 76<341.696 468> 718 112<238.529 571>
VStem: 52 197<126.096 274.173> 79 120<537.583 651.988> 468 191<154.361 393 469 690.966>
AnchorPoint: "top" 391 1000 basechar 0
LayerCount: 3
Fore
SplineSet
52 139 m 0x7a
 52 388 420 467 468 469 c 1
 468 578 l 2
 468 651 437 718 338 718 c 0
 209 718 193 652 193 652 c 1
 193 652 199 636 199 613 c 0
 199 577 159 527 127 527 c 0
 118 527 79 531 79 587 c 0
 79 627 131 830 473 830 c 0
 669 830 672 721 672 599 c 0
 672 473 659 379 659 284 c 0
 659 77 816 153 816 106 c 0
 816 64 644 -41 635 -41 c 0xb6
 597 -41 522 27 485 111 c 1
 430 5 285 -23 248 -23 c 0
 109 -23 52 51 52 139 c 0x7a
249 213 m 0x7a
 249 127 320 108 360 108 c 0
 416 108 468 153 468 221 c 2
 468 393 l 1
 332 393 249 291 249 213 c 0x7a
EndSplineSet
Layer: 2
SplineSet
472 816 m 0
 664 816 667 710 667 590 c 0
 667 466 655 374 655 281 c 0
 655 78 809 153 809 107 c 0
 809 66 640 -37 631 -37 c 0
 594 -37 520 30 484 112 c 1
 430 8 288 -20 252 -20 c 0
 116 -20 59 53 59 139 c 0
 59 383 420 461 467 463 c 1
 467 569 l 2
 467 641 437 707 340 707 c 0
 214 707 198 642 198 642 c 1
 198 642 204 627 204 604 c 0
 204 569 164 519 133 519 c 0
 124 519 86 523 86 578 c 0
 86 617 137 816 472 816 c 0
361 109 m 0
 416 109 467 152 467 219 c 2
 467 388 l 1
 334 388 253 288 253 212 c 0
 253 128 322 109 361 109 c 0
EndSplineSet
EndChar

StartChar: h
Encoding: 104 104 8
Width: 1126
VWidth: 0
Flags: HMW
HStem: 0 75<50 188.344 427.391 533 625 701.984 940.715 1078> 674 142<591.753 849.5> 1472 20G<319 426>
VStem: 191 235<77.0756 646.886 688 1323.99> 704 235<77.55 657.309>
AnchorPoint: "top" 611 1500 basechar 0
LayerCount: 3
Fore
SplineSet
33 1381 m 1
 148 1408 212 1424 426 1492 c 1
 426 688 l 1
 461 702 628 816 777 816 c 0
 922 816 939 710 939 618 c 2
 939 138 l 2
 939 66 965 78 1079 75 c 1
 1078 0 l 1
 625 0 l 1
 625 75 l 1
 682 78 704 75 704 138 c 2
 704 540 l 2
 704 642 663 674 610 674 c 0
 522 674 426 630 426 630 c 1
 426 147 l 2
 426 65 434 80 533 75 c 1
 533 0 l 1
 50 0 l 1
 48 75 l 1
 171 77 191 65 191 147 c 2
 191 1238 l 2
 191 1304 183 1324 155 1324 c 0
 132 1324 103 1310 38 1298 c 1
 33 1381 l 1
EndSplineSet
EndChar

StartChar: f
Encoding: 102 102 9
Width: 671
VWidth: 0
Flags: W
HStem: 0 75<64 202.982 439.97 594> 702 100<62 204 439 593> 1400 94<457.397 613>
VStem: 204 235<76.9512 702 802 1279.49>
LayerCount: 3
Fore
SplineSet
62 702 m 5
 62 802 l 5
 205 802 l 5
 205 1024 l 2
 205 1428 423 1494 574 1494 c 0
 652 1494 755 1447 755 1380 c 0
 755 1347 674 1242 626 1242 c 0
 584 1242 568 1400 514 1400 c 0
 439 1400 438 1298 438 1206 c 2
 438 802 l 5
 593 802 l 5
 593 702 l 5
 439 702 l 5
 439 138 l 2
 439 67 445 77 596 75 c 1
 594 0 l 1
 64 0 l 1
 61 75 l 1
 186 78 204 66 204 132 c 2
 204 702 l 5
 62 702 l 5
EndSplineSet
Validated: 1
Layer: 2
SplineSet
35 704 m 5
 59 802 l 5
 185 802 l 5
 185 1029 l 6
 185 1056 185 1082 187 1108 c 4
 200 1314 335 1503 555 1503 c 4
 624 1503 723 1482 723 1420 c 4
 723 1396 661 1290 613 1290 c 4
 572 1290 556 1410 481 1410 c 4
 337 1410 327 1151 327 1094 c 6
 327 802 l 5
 558 802 l 5
 534 704 l 5
 328 704 l 5
 328 128 l 6
 328 57 348 69 485 65 c 5
 483 0 l 5
 57 0 l 5
 55 65 l 5
 157 69 184 54 184 120 c 6
 184 704 l 5
 35 704 l 5
EndSplineSet
EndChar

StartChar: e
Encoding: 101 101 10
Width: 896
VWidth: 0
Flags: W
HStem: -21 153<413.669 643.946> 747 75<347.757 492.773>
VStem: 73 216<272.575 459 528 591.138>
AnchorPoint: "top" 452 1000 basechar 0
LayerCount: 3
Fore
SplineSet
73 377 m 0
 73 649 245 822 452 822 c 0
 674 822 794 625 794 559 c 0
 794 536 772 528 764 527 c 2
 289 459 l 1
 289 459 290 132 549 132 c 0
 713 132 790 206 825 206 c 0
 835 206 842 199 842 181 c 0
 842 145 661 -21 452 -21 c 0
 247 -21 73 131 73 377 c 0
290 528 m 1
 556 566 l 1
 556 566 531 747 416 747 c 0
 351 747 295 668 290 528 c 1
EndSplineSet
Layer: 2
SplineSet
816 184 m 4
 816 149 638 -14 433 -14 c 4
 232 -14 62 135 62 376 c 4
 62 643 230 813 433 813 c 4
 651 813 769 620 769 555 c 4
 769 532 747 525 739 524 c 6
 271 454 l 5
 271 454 274 136 528 136 c 4
 689 136 765 209 799 209 c 4
 809 209 816 202 816 184 c 4
274 524 m 5
 529 562 l 5
 529 562 483 738 388 738 c 4
 321 738 284 658 274 524 c 5
EndSplineSet
EndChar

StartChar: d
Encoding: 100 100 11
Width: 1104
VWidth: 0
Flags: HMW
HStem: -29 148<403.931 561.86> 67 69<922.587 1042> 753 70<381.6 608.119> 1476 20G<811.5 899>
VStem: 54 234<258.197 610.781> 664 235<134.364 710.5 775 1326.97>
AnchorPoint: "commaright" 1053 1340 basechar 0
LayerCount: 3
Fore
SplineSet
54 414 m 0xbc
 54 642 214 823 445 823 c 0
 604 823 664 775 664 775 c 1
 664 1212 l 2
 664 1290 663 1327 623 1327 c 0
 610 1327 542 1309 489 1294 c 1
 482 1382 l 1
 584 1401 724 1437 899 1496 c 1
 899 186 l 2
 899 128 904 112 922 112 c 0
 934 112 980 128 1042 136 c 1
 1044 67 l 1x7c
 919 40 846 13 669 -54 c 1
 669 18 671 58 671 89 c 0
 671 105 671 116 669 123 c 1
 666 121 579 -29 422 -29 c 0
 221 -29 54 160 54 414 c 0xbc
288 458 m 0
 288 248 401 119 523 119 c 0xbc
 648 119 664 169 664 169 c 1
 664 668 l 1
 664 668 602 753 499 753 c 0
 412 753 288 713 288 458 c 0
EndSplineSet
EndChar

StartChar: c
Encoding: 99 99 12
Width: 885
VWidth: 0
Flags: W
HStem: -29 147<419.655 653.386> 744 82<362.376 526.874>
VStem: 66 238<254.089 581.378>
AnchorPoint: "cedilla" 464 -190 basechar 0
AnchorPoint: "top" 453 1000 basechar 0
LayerCount: 3
Fore
SplineSet
66 379 m 0
 66 620 231 826 483 826 c 0
 660 826 787 712 787 645 c 0
 787 605 695 569 632 569 c 0
 525 569 591 744 441 744 c 0
 338 744 304 592 304 514 c 0
 304 206 425 118 553 118 c 0
 708 118 749 182 784 182 c 0
 797 182 816 172 816 148 c 0
 816 86 623 -29 464 -29 c 0
 150 -29 66 146 66 379 c 0
EndSplineSet
EndChar

StartChar: b
Encoding: 98 98 13
Width: 1103
VWidth: 0
Flags: MW
HStem: -29 90<419.936 702.638> 686 135<509.874 693.485> 1476 20G<342.5 399>
VStem: 164 235<86.1283 665.153 698 1339.99> 809 225<209.528 557.471>
LayerCount: 3
Fore
SplineSet
13 1397 m 1
 121 1414 286 1466 399 1496 c 1
 399 698 l 1
 428 728 535 821 682 821 c 0
 927 821 1034 610 1034 441 c 0
 1034 210 929 -29 560 -29 c 0
 413 -29 311 26 278 26 c 0
 192 26 196 -124 158 -124 c 0
 150 -124 100 -124 100 -91 c 0
 100 -56 164 100 164 314 c 2
 164 1289 l 2
 164 1325 152 1340 125 1340 c 0
 122 1340 26 1318 19 1318 c 1
 13 1397 l 1
399 168 m 2
 399 75 487 61 569 61 c 0
 661 61 809 115 809 358 c 0
 809 658 610 686 566 686 c 0
 443 686 399 640 399 640 c 1
 399 168 l 2
EndSplineSet
Validated: 1
EndChar

StartChar: g
Encoding: 103 103 14
Width: 993
VWidth: 0
Flags: HMW
HStem: -530 111<243.215 609.506> -93 153<263.116 669.059> 175 75<397.392 533.488> 749 86<361.163 526.65>
VStem: -11 173<-344.542 -167.692> 75 251<337.782 657.064> 100 162<8 126.013> 591 234<331.481 608.626> 736 196<-320.793 -147.342>
AnchorPoint: "top" 467 1000 basechar 0
LayerCount: 3
Fore
SplineSet
-11 -286 m 0xf880
 -11 -101 228 -71 228 -71 c 1
 228 -71 100 -33 100 49 c 0xf2
 100 149 292 192 292 192 c 1
 292 192 75 269 75 495 c 0xf4
 75 699 254 835 467 835 c 0
 616 835 717 750 732 750 c 0
 761 750 901 793 928 793 c 0
 936 793 968 674 968 658 c 0
 968 636 809 610 809 599 c 0
 809 589 825 556 825 497 c 0
 825 368 764 184 416 175 c 0
 336 173 262 139 262 102 c 0xf3
 262 60 310 60 362 60 c 0
 454 60 547 65 593 65 c 0
 886 65 932 -86 932 -180 c 0
 932 -405 635 -530 373 -530 c 0
 165 -530 -11 -450 -11 -286 c 0xf880
406 -419 m 0
 564 -419 736 -343 736 -231 c 0
 736 -85 502 -112 373 -100 c 0
 340 -97 314 -93 314 -93 c 1
 312 -93 l 2
 244 -93 162 -176 162 -244 c 0xf880
 162 -349 276 -419 406 -419 c 0
326 551 m 0xf5
 326 307 418 250 467 250 c 0
 547 250 591 344 591 451 c 0
 591 591 553 749 444 749 c 0
 346 749 326 641 326 551 c 0xf5
EndSplineSet
Layer: 2
SplineSet
-21 -286 m 4xf880
 -21 -222 0 -105 228 -71 c 5
 228 -71 100 -33 100 49 c 4xf2
 100 149 292 192 292 192 c 5
 292 192 75 269 75 495 c 4xf4
 75 699 254 842 467 842 c 4
 616 842 717 750 732 750 c 4
 761 750 901 793 928 793 c 4
 936 793 968 674 968 658 c 4
 968 636 809 610 809 599 c 4
 809 589 825 556 825 497 c 4
 825 368 764 184 416 175 c 4
 336 173 262 139 262 102 c 4xf3
 262 60 310 60 362 60 c 4
 454 60 547 65 593 65 c 4
 886 65 932 -86 932 -180 c 4
 932 -405 635 -530 373 -530 c 4
 165 -530 -21 -450 -21 -286 c 4xf880
152 -242 m 4xf880
 152 -365 274 -419 406 -419 c 4
 564 -419 736 -343 736 -231 c 4
 736 -85 502 -112 373 -100 c 4
 340 -97 314 -93 314 -93 c 5
 224 -93 152 -178 152 -242 c 4xf880
326 551 m 4xf5
 326 307 418 250 467 250 c 4
 547 250 581 344 581 451 c 4
 581 591 553 759 444 759 c 4
 346 759 326 641 326 551 c 4xf5
-11 -286 m 0xf880
 -11 -243 8 -122 236 -72 c 1
 236 -72 100 -33 100 49 c 0xf2
 100 149 292 192 292 192 c 1
 292 192 75 269 75 495 c 0xf4
 75 699 254 842 467 842 c 0
 647 842 718 736 733 736 c 0
 762 736 901 793 928 793 c 0
 936 793 968 683 968 667 c 0
 968 645 809 606 809 595 c 0
 809 585 825 556 825 497 c 0
 825 368 764 184 416 175 c 0
 336 173 262 139 262 102 c 0xf3
 262 56 310 55 362 55 c 0
 454 55 547 60 593 60 c 0
 886 60 932 -84 932 -178 c 0
 932 -410 647 -529 391 -529 c 0
 181 -529 -11 -449 -11 -286 c 0xf880
160 -253 m 0xf880
 160 -373 284 -427 416 -427 c 0
 570 -427 736 -355 736 -229 c 0
 736 -100 546 -109 437 -106 c 0
 380 -104 314 -95 314 -95 c 1
 224 -95 160 -182 160 -253 c 0xf880
326 551 m 0xf5
 326 307 418 250 467 250 c 0
 547 250 581 344 581 451 c 0
 581 591 553 759 444 759 c 0
 346 759 326 641 326 551 c 0xf5
EndSplineSet
EndChar

StartChar: r
Encoding: 114 114 15
Width: 806
VWidth: 0
Flags: HMW
HStem: 0 75<71 212.641 451.582 627> 621 196<508.5 707.762>
VStem: 215 235<77.7336 612.127 653 691.994>
AnchorPoint: "cedilla" 334 -190 basechar 0
AnchorPoint: "top" 419 1000 basechar 0
LayerCount: 3
Fore
SplineSet
35 734 m 1
 122 751 188 759 446 822 c 1
 446 653 l 1
 497 688 578 817 668 817 c 0
 722 817 770 768 770 753 c 1
 770 753 719 527 695 527 c 0
 671 527 641 621 534 621 c 0
 483 621 450 582 450 559 c 0
 450 425 450 291 450 157 c 0
 450 62 451 78 627 75 c 1
 627 0 l 1
 71 0 l 1
 71 75 l 1
 211 76 215 70 215 160 c 2
 215 610 l 2
 215 684 201 692 181 692 c 0
 171 692 169 691 45 666 c 1
 35 734 l 1
EndSplineSet
EndChar

StartChar: s
Encoding: 115 115 16
Width: 806
VWidth: 0
Flags: W
HStem: -27 93<222.036 511.27> 748 83<312.058 536.518>
VStem: 74 59<209.256 287> 101 73<-102 -4.93827> 121 173<524.304 723.183> 524 189<93.883 280.462> 614 54<794.555 866> 624 68<529.06 657.301>
AnchorPoint: "cedilla" 397 -190 basechar 0
AnchorPoint: "top" 408 1000 basechar 0
LayerCount: 3
Fore
SplineSet
385 66 m 4xe0
 454 66 524 82 524 149 c 4xe4
 524 175 506 213 457 243 c 6
 277 352 l 6
 194 402 121 467 121 584 c 4
 121 719 230 831 382 831 c 4
 491 831 537 793 589 793 c 4
 616 793 613 836 614 866 c 5
 668 869 l 5xca
 674 755 684 644 692 530 c 5
 631 526 l 5
 624 588 l 6
 615 665 511 748 408 748 c 4
 337 748 294 707 294 663 c 4xc9
 294 604 352 564 429 520 c 6
 541 456 l 6
 635 402 713 334 713 226 c 4
 713 89 589 -27 405 -27 c 4
 308 -27 209 -1 194 -1 c 4
 180 -1 172 -17 172 -31 c 6
 174 -102 l 5
 101 -103 l 5xd4
 96 21 91 138 74 287 c 5
 133 289 l 5
 149 200 l 6
 165 111 306 66 385 66 c 4xe0
EndSplineSet
Layer: 2
SplineSet
74 287 m 5xe0
 133 289 l 5
 149 200 l 6
 172 69 383 55 399 55 c 4
 484 55 526 107 526 147 c 4xe4
 526 211 400 265 289 342 c 4
 201 403 123 460 123 584 c 4
 123 727 230 831 382 831 c 4
 491 831 537 793 589 793 c 4
 616 793 616 836 617 866 c 5
 668 869 l 5xca
 674 755 686 643 694 529 c 5
 631 526 l 5
 624 588 l 6
 611 702 497 749 395 749 c 4
 350 749 299 719 299 663 c 4xc9
 299 505 713 470 713 226 c 4
 713 89 589 -27 405 -27 c 4
 308 -27 209 -1 194 -1 c 4
 180 -1 172 -17 172 -31 c 6
 174 -102 l 5
 101 -103 l 5xd4
 96 21 91 138 74 287 c 5xe0
EndSplineSet
AlternateSubs2: "'aalt' Access All Alternates lookup 0 subtable" longs
AlternateSubs2: "'aalt' Access All Alternates in Latin lookup 0 subtable" longs
Substitution2: "'hist' Historical Forms in Latin lookup 7 subtable" longs
EndChar

StartChar: o
Encoding: 111 111 17
Width: 1031
VWidth: 0
Flags: W
HStem: -31 96<431.073 623.374> 744 91<406.948 608.031>
VStem: 81 251<187.139 602.907> 695 238<181.083 608.38>
AnchorPoint: "top" 509 1000 basechar 0
LayerCount: 3
Fore
SplineSet
81 395 m 0
 81 614 212 835 514 835 c 0
 860 835 933 571 933 372 c 0
 933 137 762 -31 507 -31 c 0
 193 -31 81 193 81 395 c 0
332 418 m 0
 332 235 402 65 523 65 c 0
 667 65 695 229 695 355 c 0
 695 590 648 744 503 744 c 0
 435 744 332 697 332 418 c 0
EndSplineSet
EndChar

StartChar: w
Encoding: 119 119 18
Width: 1648
VWidth: 0
Flags: W
HStem: -44 21G<499.419 560.249 1087.05 1142.66> 727 75<25 150.795 416.14 525 633 763.745 1014.02 1114 1261 1381.97 1490.52 1599>
AnchorPoint: "top" 848 1000 basechar 0
LayerCount: 3
Fore
SplineSet
25 727 m 1
 25 802 l 1
 525 802 l 1
 525 727 l 1
 464 726 416 728 416 686 c 0
 416 671 422 652 435 624 c 2
 599 271 l 1
 783 649 l 1
 758 708 746 727 691 727 c 2
 631 727 l 1
 633 802 l 1
 1114 802 l 1
 1114 727 l 1
 1047 727 1014 721 1014 689 c 0
 1014 678 1018 664 1026 646 c 2
 1188 282 l 1
 1368 654 l 2
 1377 673 1382 688 1382 698 c 0
 1382 728 1342 726 1261 727 c 1
 1261 802 l 1
 1599 802 l 1
 1601 727 l 1
 1541 727 1505 727 1474 662 c 2
 1133 -44 l 1
 1096 -44 l 1
 828 555 l 1
 551 -44 l 1
 509 -44 l 1
 189 624 l 2
 139 728 125 726 25 727 c 1
EndSplineSet
EndChar

StartChar: u
Encoding: 117 117 19
Width: 1177
VWidth: 0
Flags: HMW
HStem: -47 21G<726.5 773> -25 151<321 584.472> 798 20G<378 438 887.5 951>
VStem: 203 235<154.963 706.804> 716 235<157.212 705.736>
AnchorPoint: "top" 553 1000 basechar 0
LayerCount: 3
Fore
SplineSet
25 784 m 1
 91 788 318 802 438 818 c 1
 438 312 l 2
 438 154 501 126 558 126 c 0
 658 126 716 191 716 191 c 1
 716 653 l 2
 716 705 686 706 659 706 c 0
 630 706 553 700 549 696 c 1
 546 780 l 1
 636 787 824 802 951 818 c 1
 951 229 l 2
 951 161 955 139 980 139 c 0
 993 139 1039 152 1133 183 c 1
 1136 103 l 1
 1050 71 818 -17 728 -47 c 1
 725 0 724 70 724 127 c 1
 687 86 569 -25 425 -25 c 0
 217 -25 203 126 203 225 c 2
 203 658 l 2
 203 702 174 708 135 708 c 0
 114 708 90 705 28 699 c 1
 25 784 l 1
EndSplineSet
EndChar

StartChar: t
Encoding: 116 116 20
Width: 734
VWidth: 0
Flags: W
HStem: -37 148<334.5 565.404> 663 125<394 629>
VStem: 179 215<137.53 663>
AnchorPoint: "commaright" 528 1340 basechar 0
AnchorPoint: "cedilla" 362 -190 basechar 0
LayerCount: 3
Fore
SplineSet
29 676 m 0
 29 701 131 773 296 942 c 0
 374 1021 367 1024 382 1024 c 0
 391 1024 394 1015 394 1007 c 2
 394 788 l 1
 654 788 l 1
 629 663 l 1
 394 663 l 1
 394 259 l 2
 394 164 435 111 506 111 c 0
 577 111 632 158 657 158 c 0
 669 158 678 152 678 135 c 0
 678 49 520 -37 387 -37 c 0
 282 -37 179 18 179 223 c 2
 179 663 l 1
 59 663 l 2
 37 663 29 668 29 676 c 0
EndSplineSet
EndChar

StartChar: y
Encoding: 121 121 21
Width: 1210
VWidth: 0
Flags: W
HStem: -537 197<59.1478 293.665> 727 75<65 199.301 492.029 620 751 908.981 1039.21 1174>
AnchorPoint: "top" 673 1000 basechar 0
LayerCount: 3
Fore
SplineSet
47 -445 m 0
 47 -359 96 -340 151 -340 c 0
 183 -340 216 -348 243 -348 c 0
 350 -348 367 -298 565 28 c 1
 239 623 l 2
 177 736 176 726 65 727 c 1
 64 802 l 1
 621 802 l 1
 620 727 l 1
 531 726 492 729 492 699 c 0
 492 680 507 648 536 594 c 2
 702 273 l 1
 817 472 909 662 909 698 c 0
 909 731 883 726 751 727 c 1
 751 802 l 1
 1174 802 l 1
 1174 727 l 1
 1055 725 1061 736 1003 628 c 0
 516 -266 397 -537 139 -537 c 0
 88 -537 47 -518 47 -445 c 0
EndSplineSet
EndChar

StartChar: quoteright
Encoding: 8217 8217 22
Width: 497
VWidth: 0
Flags: W
HStem: 981 513
VStem: 228 192<1134.96 1375>
LayerCount: 3
Fore
SplineSet
228 1177 m 0
 228 1296 99 1299 99 1338 c 0
 99 1370 217 1494 242 1494 c 0
 259 1494 420 1455 420 1295 c 0
 420 1033 151 981 129 981 c 0
 105 981 99 997 99 1005 c 0
 99 1062 228 1061 228 1177 c 0
EndSplineSet
Validated: 1
EndChar

StartChar: G
Encoding: 71 71 23
Width: 1720
VWidth: 0
Flags: W
HStem: -53 132<681.829 1112.75> 529 90<916 1210 1500 1643> 1283 121<655.255 1127.92>
VStem: 64 320<419.686 946.025> 1210 290<149.775 529> 1292 93<1308.66 1438>
AnchorPoint: "cedilla" 829 -190 basechar 0
AnchorPoint: "top" 861 1500 basechar 0
LayerCount: 3
Fore
SplineSet
64 690 m 0xf8
 64 1116 386 1404 879 1404 c 0
 1132 1404 1292 1304 1292 1304 c 1
 1288 1438 l 1
 1385 1443 l 1xf4
 1388 1310 1405 1107 1419 934 c 1
 1320 928 l 1
 1301 1136 l 1
 1301 1136 1169 1283 861 1283 c 0
 479 1283 384 962 384 714 c 0
 384 393 512 79 884 79 c 0
 1124 79 1210 186 1210 186 c 1
 1210 529 l 1
 916 529 l 1
 916 619 l 1
 1643 619 l 1
 1643 529 l 1
 1500 529 l 1
 1500 109 l 1
 1317 93 1189 -2 1016 -34 c 0
 951 -46 885 -53 819 -53 c 0
 237 -53 64 351 64 690 c 0xf8
EndSplineSet
Layer: 2
SplineSet
76 611 m 0xf8
 76 988 362 1388 855 1388 c 0
 1022 1388 1146 1346 1272 1294 c 1
 1272 1397 l 1
 1354 1397 l 1xf4
 1368 950 l 1
 1288 948 l 1xf2
 1274 1162 l 1
 1274 1162 1117 1291 838 1291 c 0
 442 1291 260 1005 260 708 c 0
 260 387 473 53 860 53 c 0
 1100 53 1215 166 1215 166 c 1
 1215 532 l 1
 970 532 l 1
 968 611 l 1
 1533 611 l 1
 1535 532 l 1
 1381 532 l 1
 1381 112 l 1
 1220 44 1078 -48 822 -48 c 0
 306 -48 76 273 76 611 c 0xf8
EndSplineSet
Position2: "'cpsp' Capital Spacing in Latin lookup 1 subtable" dx=13 dy=0 dh=26 dv=0
EndChar

StartChar: A
Encoding: 65 65 24
Width: 1620
VWidth: 0
Flags: W
HStem: 0 90<62 216.403 364.042 567 954 1111.97 1414.64 1574> 511 105<563 930> 1396 20G<825.422 920.725>
AnchorPoint: "top" 860 1500 basechar 0
LayerCount: 3
Fore
SplineSet
60 90 m 1
 195 93 194 78 268 232 c 2
 835 1416 l 1
 913 1416 l 1
 1346 295 l 2
 1424 93 1429 90 1506 90 c 2
 1574 90 l 1
 1577 0 l 1
 954 0 l 1
 953 90 l 1
 1069 91 1112 87 1112 120 c 0
 1112 135 1103 159 1090 194 c 2
 971 511 l 1
 521 511 l 1
 382 189 l 2
 371 162 364 142 364 128 c 0
 364 85 421 91 567 90 c 1
 568 0 l 1
 62 0 l 1
 60 90 l 1
563 616 m 1
 930 616 l 1
 768 1062 l 1
 563 616 l 1
EndSplineSet
Layer: 2
SplineSet
52 0 m 29
 50 80 l 21
 152 86 143 65 218 232 c 4
 491 840 492 840 520 908 c 4
 731 1416 721 1416 745 1416 c 6
 759 1416 l 6
 781 1416 779 1391 841 1240 c 6
 1278 168 l 6
 1318 70 1324 82 1426 80 c 13
 1423 0 l 29
 956 0 l 29
 958 80 l 21
 1069 82 1110 76 1110 104 c 4
 1110 117 1103 136 1090 168 c 6
 938 540 l 13
 462 540 l 21
 301 180 l 6
 290 156 281 130 281 115 c 4
 281 72 314 83 449 80 c 13
 449 0 l 29
 52 0 l 29
501 630 m 29
 903 630 l 29
 708 1117 l 29
 501 630 l 29
EndSplineSet
Position2: "'cpsp' Capital Spacing in Latin lookup 1 subtable" dx=12 dy=0 dh=24 dv=0
EndChar

StartChar: B
Encoding: 66 66 25
Width: 1298
VWidth: 0
Flags: W
HStem: 0 101<63 209.919 501.697 785.529> 684 90<500 779.822> 1265 100<52 208.672 500.007 748.625>
VStem: 210 290<103.447 684 774 1264.21> 868 278<876.008 1153.32> 935 289<242.581 546.153>
LayerCount: 3
Fore
SplineSet
48 1275 m 1xf4
 52 1365 l 1
 637 1365 l 2
 916 1365 1146 1301 1146 1044 c 0xf8
 1146 774 888 736 888 736 c 1
 888 736 1224 700 1224 368 c 0
 1224 174 1068 0 704 0 c 2
 63 0 l 1
 63 90 l 1
 183 94 210 80 210 150 c 2
 210 1201 l 2
 210 1288 160 1272 48 1275 c 1xf4
497 684 m 1
 500 176 l 2
 500 102 516 101 603 101 c 0
 817 101 935 244 935 389 c 0xf4
 935 507 874 684 546 684 c 2
 497 684 l 1
500 774 m 1
 666 774 l 2
 798 774 868 896 868 1019 c 0xf8
 868 1142 783 1265 557 1265 c 0
 510 1265 500 1250 500 1219 c 2
 500 774 l 1
EndSplineSet
Position2: "'cpsp' Capital Spacing in Latin lookup 1 subtable" dx=9 dy=0 dh=19 dv=0
EndChar

StartChar: C
Encoding: 67 67 26
Width: 1552
VWidth: 0
Flags: W
HStem: -41 117<677.938 1095.58> 1286 113<633.39 1106.83>
VStem: 75 304<406.224 934.848> 1264 86<1362.99 1435> 1378 71<325.254 443.615>
AnchorPoint: "cedilla" 823 -190 basechar 0
AnchorPoint: "top" 819 1500 basechar 0
LayerCount: 3
Fore
SplineSet
75 661 m 0
 75 1251 547 1399 819 1399 c 0
 1104 1399 1212 1321 1240 1321 c 0
 1264 1321 1269 1337 1269 1362 c 0
 1269 1383 1265 1406 1264 1435 c 1
 1350 1445 l 1
 1370 1247 1398 1072 1418 940 c 1
 1328 932 l 1
 1328 932 1311 1039 1306 1058 c 0
 1285 1134 1253 1163 1200 1197 c 0
 1113 1251 983 1286 856 1286 c 0
 773 1286 691 1271 623 1237 c 0
 433 1141 379 917 379 709 c 0
 379 180 683 76 885 76 c 0
 963 76 1040 94 1108 126 c 0
 1264 200 1292 243 1301 254 c 0
 1353 319 1365 384 1378 450 c 1
 1449 442 l 1
 1434 267 1422 213 1404 125 c 1
 1394 125 l 2
 1383 125 1364 123 1337 109 c 0
 1282 80 1199 26 1100 -1 c 0
 1015 -24 920 -41 823 -41 c 0
 320 -41 75 248 75 661 c 0
EndSplineSet
Position2: "'cpsp' Capital Spacing in Latin lookup 1 subtable" dx=11 dy=0 dh=23 dv=0
EndChar

StartChar: D
Encoding: 68 68 27
Width: 1603
VWidth: 0
Flags: W
HStem: 0 100<51 206.405 504.984 889.336> 1270 95<45 205.326 501.141 834.484>
VStem: 207 290<109.053 1267.23> 1201 292<452.247 903.099>
LayerCount: 3
Fore
SplineSet
44 1365 m 1
 732 1365 l 2
 786 1365 879 1365 946 1354 c 0
 1060 1336 1186 1290 1308 1176 c 0
 1428 1063 1493 890 1493 708 c 0
 1493 630 1481 550 1456 472 c 0
 1380 236 1167 0 681 0 c 2
 51 0 l 1
 51 90 l 1
 207 93 207 81 207 181 c 2
 207 1196 l 2
 207 1283 183 1273 45 1275 c 1
 44 1365 l 1
497 194 m 2
 497 108 540 100 621 100 c 0
 1107 100 1201 398 1201 672 c 0
 1201 960 1005 1270 597 1270 c 2
 582 1270 l 2
 517 1270 497 1261 497 1174 c 2
 497 194 l 2
EndSplineSet
Position2: "'cpsp' Capital Spacing in Latin lookup 1 subtable" dx=12 dy=0 dh=24 dv=0
EndChar

StartChar: E
Encoding: 69 69 28
Width: 1308
VWidth: 0
Flags: W
HStem: 0 122<493.669 1007.77> 0 90<55 200.941> 716 105<493.376 898.337> 1260 105<494.062 1037.26> 1275 90<41 200.651>
VStem: 202 290<123.412 715.644 821.265 1256.15> 902 85<503 715.064 822.883 1004> 1093 81<1024 1182.76>
AnchorPoint: "top" 621 1500 basechar 0
LayerCount: 3
Fore
SplineSet
39 1365 m 1x6f
 1130 1365 l 1x6f
 1143 1249 1157 1137 1174 1024 c 1
 1093 1024 l 1
 1053 1248 1028 1260 904 1260 c 2
 606 1260 l 2
 494 1260 492 1254 492 1162 c 2
 492 898 l 2
 492 822 506 821 556 821 c 2
 824 821 l 2
 912 821 900 834 902 1004 c 1
 987 1004 l 1
 987 503 l 1
 902 503 l 1
 899 714 912 716 829 716 c 2
 561 716 l 2
 510 716 492 716 492 662 c 2
 492 206 l 2
 492 135 499 122 553 122 c 0xb7
 1151 129 1125 133 1140 186 c 0
 1154 234 1173 377 1182 419 c 1
 1272 406 l 1
 1248 296 1224 130 1212 0 c 1
 55 0 l 1
 54 90 l 1
 194 92 202 80 202 168 c 2
 202 1187 l 2
 202 1274 202 1275 41 1275 c 1
 39 1365 l 1x6f
EndSplineSet
Position2: "'cpsp' Capital Spacing in Latin lookup 1 subtable" dx=10 dy=0 dh=20 dv=0
EndChar

StartChar: F
Encoding: 70 70 29
Width: 1221
VWidth: 0
Flags: W
HStem: 0 90<50 200.049 494.637 736> 716 105<493.376 898.337> 1260 105<494.062 1046.38> 1275 90<41 200.651>
VStem: 202 290<95.7248 715.644 821.265 1256.15> 902 85<503 715.064 822.883 1003> 1109 56<1027 1145.29>
LayerCount: 3
Fore
SplineSet
202 181 m 2xee
 202 1187 l 2
 202 1274 202 1275 41 1275 c 1
 39 1365 l 1
 1153 1365 l 1xde
 1165 1027 l 1
 1109 1027 l 1
 1069 1251 1028 1260 904 1260 c 2
 606 1260 l 2
 494 1260 492 1254 492 1162 c 2
 492 898 l 2
 492 822 506 821 556 821 c 2
 824 821 l 2
 912 821 900 834 902 1004 c 1
 987 1003 l 1
 987 502 l 1
 902 503 l 1
 899 714 912 716 829 716 c 2
 561 716 l 2
 510 716 492 716 492 662 c 2
 492 179 l 2
 492 80 504 92 736 90 c 1
 736 0 l 1
 50 0 l 1
 49 90 l 1
 191 94 202 77 202 181 c 2xee
EndSplineSet
Position2: "'cpsp' Capital Spacing in Latin lookup 1 subtable" dx=9 dy=0 dh=18 dv=0
EndChar

StartChar: H
Encoding: 72 72 30
Width: 1749
VWidth: 0
Flags: W
HStem: 0 90<66 215.392 510.625 719 1037 1203.3 1496.76 1671> 682 105<507 1205> 1275 90<47 215.725 510.382 682 988 1203.71 1499.34 1660>
VStem: 217 290<96.4586 682 787 1270.09> 1205 290<94.219 682 787 1269.41>
AnchorPoint: "top" 831 1500 basechar 0
LayerCount: 3
Fore
SplineSet
1495 1184 m 2
 1495 179 l 2
 1495 81 1502 93 1671 90 c 1
 1671 0 l 1
 1036 0 l 1
 1037 90 l 1
 1202 93 1205 81 1205 181 c 2
 1205 682 l 1
 507 682 l 1
 507 179 l 2
 507 80 533 92 719 90 c 1
 721 0 l 1
 66 0 l 1
 64 90 l 1
 210 93 217 77 217 181 c 2
 217 1206 l 2
 217 1280 194 1272 47 1275 c 1
 47 1365 l 1
 682 1365 l 1
 682 1275 l 1
 533 1269 507 1292 507 1184 c 2
 507 787 l 1
 1205 787 l 1
 1205 1206 l 2
 1205 1280 1184 1274 988 1275 c 1
 985 1365 l 1
 1660 1365 l 1
 1660 1275 l 1
 1533 1268 1495 1292 1495 1184 c 2
EndSplineSet
Layer: 2
SplineSet
1495 1184 m 6
 1495 179 l 6
 1495 81 1502 93 1671 90 c 5
 1671 0 l 5
 1036 0 l 5
 1037 90 l 5
 1202 93 1205 81 1205 181 c 6
 1205 684 l 5
 507 684 l 5
 507 179 l 6
 507 80 533 92 719 90 c 5
 721 0 l 5
 66 0 l 5
 64 90 l 5
 210 93 217 77 217 181 c 6
 217 1206 l 6
 217 1280 194 1272 47 1275 c 5
 47 1365 l 5
 682 1365 l 5
 682 1275 l 5
 533 1269 507 1292 507 1184 c 6
 507 789 l 5
 1205 789 l 5
 1205 1206 l 6
 1205 1280 1184 1274 988 1275 c 5
 985 1365 l 5
 1660 1365 l 5
 1660 1275 l 5
 1533 1268 1495 1292 1495 1184 c 6
EndSplineSet
Position2: "'cpsp' Capital Spacing in Latin lookup 1 subtable" dx=13 dy=0 dh=26 dv=0
Comment: "Try to keep the crossbar below the x-height blue zone." 
EndChar

StartChar: I
Encoding: 73 73 31
Width: 781
VWidth: 0
Flags: W
HStem: 0 90<72 234.284 529.241 724> 1275 90<57 235.295 530.006 697>
VStem: 237 290<94.4417 1268.99>
AnchorPoint: "top" 366 1500 basechar 0
LayerCount: 3
Fore
SplineSet
527 1184 m 2
 527 179 l 2
 527 80 538 92 724 90 c 1
 726 0 l 1
 71 0 l 1
 72 90 l 1
 218 93 237 77 237 181 c 2
 237 1206 l 2
 237 1280 204 1272 57 1275 c 1
 57 1365 l 1
 697 1365 l 1
 697 1275 l 1
 549 1272 527 1288 527 1184 c 2
EndSplineSet
Position2: "'cpsp' Capital Spacing in Latin lookup 1 subtable" dx=6 dy=0 dh=12 dv=0
EndChar

StartChar: J
Encoding: 74 74 32
Width: 781
VWidth: 0
Flags: W
HStem: -537 144<-52 194.187> 1275 90<92 236.184 529.544 692>
VStem: 237 290<-245.287 1271.85>
AnchorPoint: "top" 361 1500 basechar 0
LayerCount: 3
Fore
SplineSet
237 181 m 2
 237 1206 l 2
 237 1280 224 1274 92 1275 c 1
 92 1365 l 1
 692 1365 l 1
 692 1275 l 1
 544 1272 527 1288 527 1184 c 2
 527 -28 l 2
 527 -133 501 -353 279 -462 c 0
 203 -499 104 -537 -5 -537 c 0
 -99 -537 -117 -525 -117 -463 c 0
 -117 -422 -109 -377 -99 -297 c 0
 -99 -295 -94 -218 -31 -218 c 0
 12 -218 20 -252 32 -282 c 2
 46 -317 l 2
 62 -358 87 -393 129 -393 c 0
 212 -393 237 -306 237 181 c 2
EndSplineSet
Position2: "'cpsp' Capital Spacing in Latin lookup 1 subtable" dx=6 dy=0 dh=12 dv=0
EndChar

StartChar: K
Encoding: 75 75 33
Width: 1613
VWidth: 0
Flags: W
HStem: 0 90<78 234.838 529.716 744 1365.72 1539> 1275 90<77 235.58 529.195 691 1031 1159.97 1317.32 1495>
VStem: 237 290<95.3069 535 657 1270.91>
AnchorPoint: "cedilla" 789 -190 basechar 0
AnchorPoint: "top" 711 1500 basechar 0
LayerCount: 3
Fore
SplineSet
527 535 m 1
 527 179 l 2
 527 80 542 92 744 90 c 1
 746 0 l 1
 77 0 l 1
 78 90 l 1
 224 93 237 77 237 181 c 2
 237 1206 l 2
 237 1280 210 1274 77 1275 c 1
 77 1365 l 1
 691 1365 l 1
 691 1275 l 1
 540 1272 527 1288 527 1184 c 2
 527 657 l 1
 1112 1191 l 2
 1140 1216 1160 1235 1160 1249 c 0
 1160 1267 1126 1275 1031 1275 c 1
 1028 1365 l 1
 1495 1365 l 1
 1495 1275 l 1
 1462 1275 l 2
 1377 1275 1356 1274 1214 1146 c 2
 832 802 l 1
 1360 140 l 2
 1400 90 1455 90 1482 90 c 2
 1540 90 l 1
 1539 0 l 1
 1120 0 l 1
 621 619 l 1
 527 535 l 1
EndSplineSet
Position2: "'cpsp' Capital Spacing in Latin lookup 1 subtable" dx=12 dy=0 dh=24 dv=0
EndChar

StartChar: L
Encoding: 76 76 34
Width: 1311
VWidth: 0
Flags: W
HStem: 0 100<82 245.572 538.781 1040.97> 1275 90<67 245.295 541.852 727>
VStem: 247 290<100.692 1268.22>
AnchorPoint: "commaright" 859 1340 basechar 0
AnchorPoint: "cedilla" 654 -190 basechar 0
AnchorPoint: "top" 401 1500 basechar 0
LayerCount: 3
Fore
SplineSet
537 1184 m 2
 537 184 l 2
 537 109 547 100 600 100 c 0
 601 100 950 102 1041 125 c 0
 1081 135 1106 149 1170 393 c 1
 1250 376 l 1
 1221 251 1195 125 1169 0 c 1
 81 0 l 1
 82 90 l 1
 228 93 247 77 247 181 c 2
 247 1206 l 2
 247 1280 214 1272 67 1275 c 1
 67 1365 l 1
 729 1365 l 1
 727 1275 l 1
 579 1272 537 1288 537 1184 c 2
EndSplineSet
Position2: "'cpsp' Capital Spacing in Latin lookup 1 subtable" dx=10 dy=0 dh=20 dv=0
EndChar

StartChar: M
Encoding: 77 77 35
Width: 2190
VWidth: 0
Flags: W
HStem: -48 21G<945.5 993.5> 0 90<72 220.675 343.131 555 1447 1609.28 1904.24 2099> 1275 90<48 223.431 1905.28 2075>
VStem: 225 115<97.463 1032> 1612 290<94.4417 1052>
LayerCount: 3
Fore
SplineSet
1612 1052 m 1
 1042 0 l 2
 1018 -44 1013 -48 974 -48 c 2
 958 -48 l 2
 933 -48 921 -43 898 0 c 2
 348 1032 l 1
 345 746 340 203 340 174 c 0
 340 86 360 92 555 90 c 1
 555 0 l 1
 71 0 l 1
 72 90 l 1
 202 92 223 79 225 184 c 2
 239 1213 l 2
 239 1214 239 1227 224 1248 c 0
 212 1264 191 1274 152 1274 c 2
 48 1275 l 1
 46 1365 l 1
 505 1365 l 1
 1076 316 l 1
 1644 1365 l 1
 2075 1365 l 1
 2075 1275 l 1
 1927 1272 1902 1288 1902 1184 c 2
 1902 179 l 2
 1902 80 1913 92 2099 90 c 1
 2101 0 l 1
 1446 0 l 1
 1447 90 l 1
 1593 93 1612 77 1612 181 c 2
 1612 1052 l 1
EndSplineSet
Position2: "'cpsp' Capital Spacing in Latin lookup 1 subtable" dx=16 dy=0 dh=33 dv=0
EndChar

StartChar: N
Encoding: 78 78 36
Width: 1610
VWidth: 0
Flags: W
HStem: -34 21G<1344.5 1394> 0 90<68 212.354 340.519 552> 1275 90<71 194.734 1094 1292.93 1411.32 1562>
VStem: 215 120<96.5005 1089> 1293 115<420 1271.63>
AnchorPoint: "cedilla" 824 -190 basechar 0
AnchorPoint: "top" 806 1500 basechar 0
LayerCount: 3
Fore
SplineSet
1408 18 m 2
 1408 -16 1403 -34 1385 -34 c 2
 1356 -34 l 2
 1333 -34 1323 -31 1294 2 c 2
 330 1089 l 1
 335 204 l 2
 335.711873604 77.9983721673 348 92 552 90 c 1
 552 0 l 1
 68 0 l 1
 64 90 l 1
 201 92 215 81 215 183 c 2
 215 1207 l 1
 185 1237 174 1275 97 1275 c 2
 68 1275 l 1
 71 1365 l 1
 473 1365 l 1
 1293 420 l 1
 1293 1227 l 2
 1293 1281 1272 1273 1094 1275 c 1
 1091 1365 l 1
 1563 1365 l 1
 1562 1275 l 1
 1413 1273 1408.87304688 1284.99902344 1408.77246094 1168 c 2
 1408 18 l 2
EndSplineSet
Position2: "'cpsp' Capital Spacing in Latin lookup 1 subtable" dx=12 dy=0 dh=24 dv=0
EndChar

StartChar: O
Encoding: 79 79 37
Width: 1696
VWidth: 0
Flags: W
HStem: -48 128<688.525 1069.28> 1311 105<612.816 1005.27>
VStem: 73 314<476.546 970.197> 1314 310<401.031 884.945>
AnchorPoint: "top" 815 1500 basechar 0
LayerCount: 3
Fore
SplineSet
73 697 m 0
 74 1174 398 1416 825 1416 c 0
 1274 1416 1624 1142 1624 653 c 0
 1624 194 1272 -48 825 -48 c 0
 320 -48 73 298 73 697 c 0
387 831 m 0
 387 487 485 80 879 80 c 0
 1091 80 1314 216 1314 540 c 0
 1314 913 1182 1311 825 1311 c 0
 632 1311 387 1223 387 831 c 0
EndSplineSet
Position2: "'cpsp' Capital Spacing in Latin lookup 1 subtable" dx=12 dy=0 dh=25 dv=0
EndChar

StartChar: p
Encoding: 112 112 38
Width: 1084
VWidth: 0
Flags: MW
HStem: -530 75<18 160.476 396.374 617> -12 86<435.927 719.402> 684 136<517.907 804> 803 20G<344 396 609 804>
VStem: 161 235<-451.283 18 113.781 648.851> 805 240<208.539 545.559>
LayerCount: 3
Fore
SplineSet
18 -455 m 1xec
 144 -454 161 -458 161 -406 c 2
 161 612 l 2
 161 656 152 671 125 671 c 0
 103 671 69 660 18 652 c 1
 18 730 l 1
 94 745 292 792 396 823 c 1xdc
 396 694 l 1
 397 695 523 820 695 820 c 0
 913 820 1045 611 1045 402 c 0
 1045 247.66640625 957.6 -12 608 -12 c 0
 474 -12 396 18 396 18 c 1
 396 -404 l 2
 396 -458 404 -454 618 -455 c 1
 617 -530 l 1
 18 -530 l 1
 18 -455 l 1xec
396 150 m 1
 396 150 451 74 596 74 c 0
 749 74 805 196 805 347 c 0
 805 509 721 684 561 684 c 0xec
 447 684 396 607 396 607 c 1
 396 150 l 1
EndSplineSet
EndChar

StartChar: q
Encoding: 113 113 39
Width: 1083
VWidth: 0
Flags: W
HStem: -530 75<460 681.259 925.406 1077> -16 131<269 579.129> 728 90<366.493 659.805>
VStem: 40 239<265.804 590.178> 687 235<-447.084 99 143.551 691.19> 872 74<780.227 897.194>
LayerCount: 3
Fore
SplineSet
922 501 m 2xf8
 922 -360 l 2
 922 -464 929 -454 1077 -455 c 1
 1077 -530 l 1
 460 -530 l 1
 460 -455 l 1
 657 -454 687 -460 687 -375 c 2
 687 99 l 1xf8
 687 99 572 -16 384 -16 c 0
 154 -16 40 209 40 408 c 0
 40 684 281 818 501 818 c 0
 631 818 763 762 800 762 c 0
 828 762 832 774 843 795 c 0
 852 814 863 841 872 869 c 0
 879 891 882 899 890 899 c 0
 910 899 946 891 946 880 c 0xf4
 946 862 922 758 922 501 c 2xf8
687 178 m 1
 687 666 l 1
 687 666 614 728 502 728 c 0
 334 728 279 585 279 471 c 0
 279 306 363 115 527 115 c 0
 637 115 687 178 687 178 c 1
EndSplineSet
Validated: 1
EndChar

StartChar: v
Encoding: 118 118 40
Width: 1168
VWidth: 0
Flags: W
HStem: -44 21G<530.212 615.822> 727 75<32 177.862 455.038 595 715 852.974 969.181 1134>
LayerCount: 3
Fore
SplineSet
30 802 m 1
 596 802 l 1
 595 727 l 1
 507 723 455 735 455 696 c 0
 455 682 461 662 475 633 c 2
 654 260 l 1
 780 522 853 652 853 694 c 0
 853 730 817 725 714 727 c 1
 715 802 l 1
 1134 802 l 1
 1134 727 l 1
 992 724 991 741 938 632 c 2
 606 -44 l 1
 540 -44 l 1
 217 616 l 2
 157 739 165 725 32 727 c 1
 30 802 l 1
EndSplineSet
Validated: 1
EndChar

StartChar: x
Encoding: 120 120 41
Width: 1294
VWidth: 0
Flags: W
HStem: 0 75<33 211.514 333.049 499 639 778.973 1094.99 1244> 727 75<77 249.462 542.027 661 763 874.964 992.913 1201>
LayerCount: 3
Fore
SplineSet
31 0 m 1
 33 75 l 1
 156 76 167 71 248 142 c 2
 529 388 l 1
 275 666 l 2
 211 736 176 724 77 727 c 1
 77 802 l 1
 661 802 l 1
 661 727 l 1
 579 727 542 726 542 708 c 0
 542 699 551 687 566 669 c 2
 688 529 l 1
 834 655 l 2
 863 680 875 696 875 707 c 0
 875 728 825 726 763 727 c 1
 763 802 l 1
 1202 802 l 1
 1201 727 l 1
 1036 724 1049 739 956 661 c 2
 736 476 l 1
 985 212 l 2
 1100 90 1132 75 1244 75 c 1
 1245 0 l 1
 639 0 l 1
 639 75 l 1
 742 76 779 84 779 105 c 0
 779 117 767 132 748 153 c 2
 580 340 l 1
 356 130 l 2
 340 115 333 105 333 97 c 0
 333 74 400 79 499 75 c 1
 501 0 l 1
 31 0 l 1
EndSplineSet
Validated: 1
EndChar

StartChar: z
Encoding: 122 122 42
Width: 902
VWidth: 0
Flags: W
HStem: -0 195<296 780.71> 630 159<181.409 595>
VStem: 75 72<466.805 586.261> 107 61<801.883 866> 815 68<240.528 353.476>
AnchorPoint: "top" 458 1000 basechar 0
LayerCount: 3
Fore
SplineSet
101 96 m 2xd8
 595 630 l 1
 284 630 l 2
 192 630 163 590 147 462 c 9
 75 468 l 17xe8
 94 595 102 725 107 868 c 9
 168 866 l 17
 169 830 178 789 232 789 c 2
 820 789 l 2
 833 789 832 781 832 776 c 0
 832 770 810 746 779 712 c 2
 296 195 l 1
 627 195 l 2
 806 195 790 247 815 359 c 9
 883 352 l 17
 875 328 836 129 818 0 c 1
 67 -0 l 2
 52 0 46 1 46 18 c 0
 46 39 79 72 101 96 c 2xd8
EndSplineSet
EndChar

StartChar: P
Encoding: 80 80 43
Width: 1377
VWidth: 0
Flags: W
HStem: 0 90<86 266.594 563.094 816> 526 93<559.052 923.875> 1266 99<79 268.454 560.821 844.722>
VStem: 269 290<98.5414 559 632.596 1264.15> 1030 272<757.429 1088.09>
LayerCount: 3
Fore
SplineSet
655 1266 m 2
 635 1266 l 2
 571 1266 559 1260 559 1184 c 2
 559 649 l 1
 559 649 602 619 742 619 c 0
 957 619 1030 726 1030 915 c 0
 1030 1126 869 1266 655 1266 c 2
1302 944 m 0
 1302 764 1192 526 802 526 c 0
 658 526 559 559 559 559 c 1
 559 179 l 2
 559 80 587 93 816 90 c 1
 818 0 l 1
 85 0 l 1
 86 90 l 1
 255 93 269 77 269 181 c 2
 269 1206 l 2
 269 1280 242 1273 79 1275 c 1
 79 1365 l 1
 808 1365 l 2
 1008 1365 1302 1328 1302 944 c 0
EndSplineSet
Position2: "'cpsp' Capital Spacing in Latin lookup 1 subtable" dx=10 dy=0 dh=21 dv=0
EndChar

StartChar: Q
Encoding: 81 81 44
Width: 1726
VWidth: 0
Flags: W
HStem: -530 222<1397.23 1626.78> 0 80<996 1063.21> 1311 105<627.059 995.807>
VStem: 83 304<471.466 978.68> 1321 303<394.057 893.279>
LayerCount: 3
Fore
SplineSet
879 80 m 0
 1188 80 1321 336 1321 614 c 0
 1321 946 1131 1311 825 1311 c 0
 502 1311 387 1054 387 757 c 0
 387 406 561 80 879 80 c 0
83 697 m 0
 83 1174 398 1416 825 1416 c 0
 1476 1416 1624 979 1624 653 c 0
 1624 18 996 0 996 0 c 1
 1099 -63 1143 -96 1172 -119 c 0
 1263 -191 1426 -308 1567 -308 c 0
 1646 -308 1720 -273 1762 -254 c 0
 1774 -248 1784 -246 1792 -246 c 0
 1801 -246 1823 -250 1823 -273 c 0
 1823 -282 1819 -295 1810 -311 c 0
 1728 -453 1586 -530 1443 -530 c 0
 1191 -530 1065 -311 762 -91 c 0
 595 30 637 -22 462 54 c 0
 319 116 83 271 83 697 c 0
EndSplineSet
Position2: "'cpsp' Capital Spacing in Latin lookup 1 subtable" dx=13 dy=0 dh=26 dv=0
EndChar

StartChar: R
Encoding: 82 82 45
Width: 1694
VWidth: 0
Flags: W
HStem: 0 90<72 225.207 523.855 764 1419.59 1605> 608 91<517.167 730> 1266 99<47 226.357 519.88 803.924>
VStem: 227 290<101.766 628 705.012 1264.74> 946 294<826.237 1135.13>
AnchorPoint: "cedilla" 764 -190 basechar 0
AnchorPoint: "top" 671 1500 basechar 0
LayerCount: 3
Fore
SplineSet
517 1184 m 2
 517 718 l 1
 517 718 545 699 649 699 c 0
 802 699 946 799 946 978 c 0
 946 1170 801 1266 617 1266 c 2
 590 1266 l 2
 540 1266 517 1263 517 1184 c 2
1240 987 m 0
 1240 756 1016 666 1016 666 c 1
 1418 136 l 2
 1452 91 1482 90 1605 90 c 1
 1608 0 l 1
 1137 0 l 1
 730 608 l 1
 558 608 520 627 517 628 c 1
 517 179 l 2
 517 80 578 92 764 90 c 1
 764 0 l 1
 72 0 l 1
 72 90 l 1
 218 93 227 77 227 181 c 2
 227 1206 l 2
 227 1280 194 1272 47 1275 c 1
 47 1365 l 1
 710 1365 l 2
 920 1365 1240 1354 1240 987 c 0
EndSplineSet
Position2: "'cpsp' Capital Spacing in Latin lookup 1 subtable" dx=12 dy=0 dh=25 dv=0
EndChar

StartChar: S
Encoding: 83 83 46
Width: 1054
VWidth: 0
Flags: W
HStem: -38 110<278.509 669.544> 1304 102<421.022 751.291>
VStem: 82 86<-113.167 -46.0933> 117 216<983.945 1181.86> 744 234<185.036 367.768> 846 75<1359.02 1438>
AnchorPoint: "cedilla" 515 -190 basechar 0
AnchorPoint: "top" 560 1500 basechar 0
LayerCount: 3
Fore
SplineSet
504 -38 m 0xd8
 355 -38 251 7 215 7 c 0
 171 7 165 -17 165 -45 c 0
 165 -68 168 -112 168 -112 c 1
 82 -119 l 1
 64 52 49 153 3 371 c 1
 93 388 l 1
 116 280 l 2
 133 199 164 163 238 132 c 0
 348 86 428 72 520 72 c 0
 658 72 744 159 744 254 c 0xe8
 744 443 451 544 269 705 c 0
 237 734 117 826 117 1010 c 0
 117 1091 146 1174 204 1244 c 0
 306 1367 447 1406 580 1406 c 0
 718 1406 803 1359 815 1359 c 0
 843 1359 846 1383 846 1430 c 2
 846 1438 l 1
 921 1444 l 1xd4
 933 1279 944 1144 954 1029 c 1
 879 1021 l 1
 863 1184 l 1
 863 1184 742 1304 574 1304 c 0
 447 1304 333 1229 333 1100 c 0
 333 818 978 779 978 341 c 0
 978 140 775 -38 504 -38 c 0xd8
EndSplineSet
Position2: "'cpsp' Capital Spacing in Latin lookup 1 subtable" dx=8 dy=0 dh=16 dv=0
EndChar

StartChar: T
Encoding: 84 84 47
Width: 1522
VWidth: 0
Flags: W
HStem: 0 90<455 667.247 962.843 1204> 1250 125<234.328 667.184 959.997 1370.67>
VStem: 108 85<1007.99 1206.86> 669 290<98.1412 1247.75> 1398 84<1000 1226.94>
AnchorPoint: "cedilla" 813 -190 basechar 0
AnchorPoint: "top" 813 1500 basechar 0
LayerCount: 3
Fore
SplineSet
108 1009 m 1
 116 1086 125 1224 136 1375 c 1
 1479 1375 l 1
 1479 1375 1481 1234 1481 1160 c 0
 1481 1108 1482 1055 1482 1000 c 1
 1398 996 l 1
 1398 996 1393 1084 1391 1114 c 0
 1380 1248 1342 1250 1255 1250 c 2
 1026 1250 l 2
 971 1250 959 1237 959 1184 c 2
 959 174 l 2
 959 84 985 92 1204 90 c 1
 1205 0 l 1
 454 0 l 1
 455 90 l 1
 665 94 669 77 669 181 c 2
 669 1178 l 2
 669 1242 650 1250 586 1250 c 2
 388 1250 l 2
 252 1250 240 1238 224 1172 c 0
 214 1129 203 1068 193 1003 c 1
 108 1009 l 1
EndSplineSet
Layer: 2
SplineSet
108 1009 m 5
 116 1086 130 1229 141 1380 c 5
 398 1367 652 1365 813 1365 c 4
 996 1365 1299 1374 1483 1380 c 5
 1482 1306 1481 1234 1481 1160 c 4
 1481 1108 1482 1055 1482 1000 c 5
 1398 996 l 5
 1398 996 1393 1084 1391 1114 c 4
 1380 1248 1342 1250 1255 1250 c 6
 1026 1250 l 6
 971 1250 959 1237 959 1184 c 6
 959 174 l 6
 959 84 985 92 1204 90 c 5
 1205 0 l 5
 454 0 l 5
 455 90 l 5
 665 94 669 77 669 181 c 6
 669 1178 l 6
 669 1242 650 1250 586 1250 c 6
 388 1250 l 6
 252 1250 240 1238 224 1172 c 4
 214 1129 203 1068 193 1003 c 5
 108 1009 l 5
EndSplineSet
Position2: "'cpsp' Capital Spacing in Latin lookup 1 subtable" dx=11 dy=0 dh=23 dv=0
EndChar

StartChar: U
Encoding: 85 85 48
Width: 1567
VWidth: 0
Flags: W
HStem: -48 126<668.993 1107.72> 1275 90<43 196.412 490.283 660 1059 1257.93 1374.89 1521>
VStem: 197 290<259.368 1270.91> 1258 115<233.434 1271.8>
AnchorPoint: "top" 851 1500 basechar 0
LayerCount: 3
Fore
SplineSet
1373 493 m 2
 1373 427 1368 349 1359 298 c 0
 1305 4 1095 -48 812 -48 c 0
 644 -48 496 -19 386 53 c 0
 301 109 197 208 197 442 c 2
 197 1206 l 2
 197 1280 190 1272 43 1275 c 1
 43 1365 l 1
 660 1365 l 1
 660 1275 l 1
 512 1272 487 1288 487 1184 c 2
 487 503 l 2
 487 369 494 78 888 78 c 0
 1234 78 1258 280 1258 500 c 2
 1258 1227 l 2
 1258 1281 1237 1273 1059 1275 c 1
 1056 1365 l 1
 1522 1365 l 1
 1521 1275 l 1
 1376 1273 1373 1284 1373 1177 c 2
 1373 493 l 2
EndSplineSet
Position2: "'cpsp' Capital Spacing in Latin lookup 1 subtable" dx=12 dy=0 dh=24 dv=0
EndChar

StartChar: V
Encoding: 86 86 49
Width: 1554
VWidth: 0
Flags: W
HStem: -46 21G<711.741 797.921> 1275 90<44 193.335 522.018 677 1071 1232.97 1362.22 1508>
LayerCount: 3
Fore
SplineSet
44 1275 m 1
 44 1365 l 1
 680 1365 l 1
 677 1275 l 1
 614 1275 l 2
 546 1275 522 1274 522 1250 c 0
 522 1232 534 1202 555 1151 c 2
 866 386 l 1
 1220 1196 l 2
 1228 1215 1233 1229 1233 1240 c 0
 1233 1273 1196 1275 1146 1275 c 2
 1071 1275 l 1
 1068 1365 l 1
 1509 1365 l 1
 1508 1275 l 1
 1373 1273 1381 1281 1310 1122 c 2
 789 -46 l 1
 720 -46 l 1
 241 1114 l 2
 167 1293 197 1272 44 1275 c 1
EndSplineSet
Position2: "'cpsp' Capital Spacing in Latin lookup 1 subtable" dx=11 dy=0 dh=23 dv=0
EndChar

StartChar: W
Encoding: 87 87 50
Width: 2178
VWidth: 0
Flags: W
HStem: -46 21G<652.69 733.174 1402.92 1483.3> 1275 90<84 185.708 499.026 623 778 947.75 1252.02 1377 1761 1893.97 2009.4 2116>
AnchorPoint: "top" 1070 1500 basechar 0
LayerCount: 3
Fore
SplineSet
84 1275 m 1
 84 1365 l 1
 623 1365 l 1
 623 1275 l 1
 534 1274 499 1277 499 1243 c 0
 499 1225 509 1197 525 1154 c 2
 806 398 l 1
 1049 976 l 1
 935 1255 955 1275 863 1275 c 2
 778 1275 l 1
 778 1365 l 1
 1377 1365 l 1
 1377 1275 l 1
 1283 1274 1252 1275 1252 1250 c 0
 1252 1233 1267 1203 1285 1151 c 2
 1556 386 l 1
 1874 1182 l 2
 1886 1213 1894 1233 1894 1247 c 0
 1894 1279 1849 1273 1761 1275 c 1
 1758 1365 l 1
 2116 1365 l 1
 2118 1275 l 1
 2025 1273 2024 1278 1958 1118 c 2
 1475 -46 l 1
 1410 -46 l 1
 1092 852 l 1
 725 -46 l 1
 660 -46 l 1
 236 1114 l 2
 173 1287 158 1274 84 1275 c 1
EndSplineSet
Position2: "'cpsp' Capital Spacing in Latin lookup 1 subtable" dx=16 dy=0 dh=33 dv=0
EndChar

StartChar: X
Encoding: 88 88 51
Width: 1637
VWidth: 0
Flags: W
HStem: 0 90<74 262.043 412.047 571 893 1028.97 1365.83 1524> 1275 90<109 272.662 589.03 716 1024 1137.97 1275.06 1444>
LayerCount: 3
Fore
SplineSet
74 0 m 1
 74 90 l 1
 222 93 227 83 342 226 c 2
 680 645 l 1
 299 1194 l 2
 248 1267 242 1275 182 1275 c 2
 109 1275 l 1
 106 1365 l 1
 716 1365 l 1
 716 1275 l 1
 630 1273 589 1275 589 1252 c 0
 589 1239 596 1220 621 1185 c 2
 846 864 l 1
 1110 1201 l 2
 1129 1225 1138 1242 1138 1253 c 0
 1138 1278 1093 1274 1023 1275 c 1
 1024 1365 l 1
 1446 1365 l 1
 1444 1275 l 1
 1312 1275 1288 1258 1210 1158 c 2
 911 774 l 1
 1288 237 l 2
 1381 104 1404 90 1458 90 c 2
 1524 90 l 1
 1526 0 l 1
 893 0 l 1
 891 90 l 1
 989 90 1029 90 1029 114 c 0
 1029 127 1017 148 996 179 c 2
 744 554 l 1
 450 186 l 2
 425 154 412 133 412 119 c 0
 412 86 476 91 571 90 c 1
 571 0 l 1
 74 0 l 1
EndSplineSet
Position2: "'cpsp' Capital Spacing in Latin lookup 1 subtable" dx=12 dy=0 dh=25 dv=0
EndChar

StartChar: Y
Encoding: 89 89 52
Width: 1421
VWidth: 0
Flags: HW
HStem: 0 90<367 546.001 842.902 1054> 1275 90<40 159.075 500.027 624 921 1097.98 1214.76 1351>
VStem: 549 290<96.4586 628>
AnchorPoint: "top" 761 1500 basechar 0
LayerCount: 3
Fore
SplineSet
549 628 m 1
 212 1150 l 2
 132 1274 141 1275 40 1275 c 1
 37 1365 l 1
 624 1365 l 1
 624 1275 l 1
 537 1274 500 1277 500 1254 c 0
 500 1241 512 1218 535 1182 c 2
 796 760 l 1
 1082 1215 l 2
 1092 1231 1098 1243 1098 1252 c 0
 1098 1270 1076 1275 1015 1275 c 2
 921 1275 l 1
 918 1365 l 1
 1351 1365 l 1
 1351 1275 l 1
 1249 1273 1242 1279 1185 1188 c 2
 839 634 l 1
 839 179 l 2
 839 80 868 92 1054 90 c 1
 1056 0 l 1
 366 0 l 1
 367 90 l 1
 528 94 549 77 549 181 c 2
 549 628 l 1
EndSplineSet
Position2: "'cpsp' Capital Spacing in Latin lookup 1 subtable" dx=10 dy=0 dh=21 dv=0
EndChar

StartChar: Z
Encoding: 90 90 53
Width: 1439
VWidth: 0
Flags: HW
HStem: 0 270<386 1206.03> 1125 240<174.631 1010>
VStem: 62 82<922.427 1105.15> 1300 64<422.906 505.464>
AnchorPoint: "top" 721 1500 basechar 0
LayerCount: 3
Fore
SplineSet
921 270 m 2
 1227 270 1226 289 1300 514 c 1
 1364 503 l 1
 1351 417 1320 238 1284 0 c 1
 74 0 l 2
 51 0 48 5 48 40 c 0
 48 64 64 74 144 163 c 2
 1010 1125 l 1
 236 1125 l 2
 177 1125 176 1118 144 915 c 1
 62 924 l 1
 79 1040 102 1246 112 1365 c 1
 1271 1365 l 2
 1313 1365 1331 1361 1331 1349 c 0
 1331 1341 1323 1329 1308 1312 c 2
 386 270 l 1
 921 270 l 2
EndSplineSet
Position2: "'cpsp' Capital Spacing in Latin lookup 1 subtable" dx=11 dy=0 dh=22 dv=0
EndChar

StartChar: period
Encoding: 46 46 54
Width: 522
VWidth: 0
Flags: W
HStem: -30 315<168.746 302.612>
VStem: 81 308<56.084 197.097>
LayerCount: 3
Fore
SplineSet
81 130 m 0
 81 168 201 284 238 285 c 0
 269 285 389 161 389 135 c 0
 389 82 278 -30 236 -30 c 0
 211 -30 81 77 81 130 c 0
EndSplineSet
Validated: 1
EndChar

StartChar: hyphen
Encoding: 45 45 55
Width: 604
VWidth: 0
Flags: W
HStem: 450 295
VStem: 50 541
LayerCount: 3
Fore
SplineSet
50 501 m 2
 50 545 l 2
 50 590 51 594 117 614 c 2
 546 742 l 2
 553 744 559 745 564 745 c 0
 581 745 591 734 591 707 c 2
 591 655 l 2
 591 615 591 603 530 585 c 2
 123 463 l 2
 97 455 80 450 69 450 c 0
 53 450 50 462 50 501 c 2
EndSplineSet
EndChar

StartChar: comma
Encoding: 44 44 56
Width: 497
VWidth: 0
Flags: W
HStem: -380 674
VStem: 221 207<-152.301 138.439>
LayerCount: 3
Fore
SplineSet
428 38 m 0
 428 -60 384 -186 304 -274 c 0
 267 -315 221 -344 170 -362 c 0
 143 -371 114 -380 83 -380 c 0
 52 -380 38 -367 38 -345 c 0
 38 -334 45 -322 65 -311 c 0
 118 -281 221 -257 221 -99 c 0
 221 88 75 88 75 132 c 0
 75 171 215 294 240 294 c 0
 257 294 428 236 428 38 c 0
EndSplineSet
Validated: 1
EndChar

StartChar: exclam
Encoding: 33 33 57
Width: 602
VWidth: 0
Flags: W
HStem: -30 315<268.746 402.612>
VStem: 181 308<56.084 197.097> 317 65<399.351 620.903>
LayerCount: 3
Fore
SplineSet
181 130 m 0xc0
 181 168 301 284 338 285 c 0
 369 285 489 161 489 135 c 0
 489 82 378 -30 336 -30 c 0
 311 -30 181 77 181 130 c 0xc0
246 1253 m 0
 246 1269 261 1278 302 1293 c 2
 450 1349 l 2
 466 1355 477 1358 485 1358 c 0
 498 1358 503 1350 503 1337 c 0
 503 1328 500 1315 498 1301 c 2
 382 525 l 2
 364 404 353 398 345 398 c 2
 340 398 l 2
 326 398 321 425 317 451 c 0xa0
 314 467 300 610 299 623 c 0
 276 891 246 1156 246 1253 c 0
EndSplineSet
Position2: "'cpsp' Capital Spacing in Latin lookup 1 subtable" dx=4 dy=0 dh=9 dv=0
EndChar

StartChar: question
Encoding: 63 63 58
Width: 794
VWidth: 0
Flags: W
HStem: -30 315<368.746 502.612> 1228 131<281.877 540.166>
VStem: 214 157<472.626 694.5> 281 308<56.084 197.097> 604 143<1030.58 1188.07>
LayerCount: 3
Fore
SplineSet
281 130 m 0xd8
 281 168 401 284 438 285 c 0
 469 285 589 161 589 135 c 0
 589 82 478 -30 436 -30 c 0
 411 -30 281 77 281 130 c 0xd8
371 512 m 0xe8
 371 451 410 417 410 385 c 0
 410 374 404 365 389 365 c 0
 338 365 214 470 214 636 c 0
 214 753 294 829 383 893 c 2
 475 959 l 2
 549 1011 604 1061 604 1140 c 0
 604 1174 577 1228 442 1228 c 0
 376 1228 289 1198 246 1176 c 0
 221 1164 212 1176 212 1191 c 0
 212 1195 213 1200 214 1204 c 0
 230 1252 276 1359 400 1359 c 0
 462 1359 571 1310 656 1238 c 0
 728 1177 747 1108 747 1046 c 0
 747 929 689 853 629 803 c 2
 554 740 l 2
 445 648 371 591 371 512 c 0xe8
EndSplineSet
Validated: 1
Position2: "'cpsp' Capital Spacing in Latin lookup 1 subtable" dx=6 dy=0 dh=12 dv=0
EndChar

StartChar: semicolon
Encoding: 59 59 59
Width: 522
VWidth: 0
Flags: W
HStem: 505 315<169.166 302.612>
VStem: 81 308<591.16 732.097> 221 207<-152.301 138.439>
LayerCount: 3
Fore
SplineSet
81 665 m 0xc0
 81 703 201 819 238 820 c 0
 269 820 389 696 389 670 c 0
 389 617.039038366 278.045922389 505 236 505 c 0
 210.6875 505 81 612.171875 81 665 c 0xc0
428 38 m 0xa0
 428 -60 384 -186 304 -274 c 0
 267 -315 221 -344 170 -362 c 0
 143 -371 114 -380 83 -380 c 0
 52 -380 38 -367 38 -345 c 0
 38 -334 45 -322 65 -311 c 0
 118 -281 221 -257 221 -99 c 0
 221 88 75 88 75 132 c 0
 75 171 215 294 240 294 c 0
 257 294 428 236 428 38 c 0xa0
EndSplineSet
Validated: 1
EndChar

StartChar: colon
Encoding: 58 58 60
Width: 522
VWidth: 0
Flags: W
HStem: -30 315<169.166 302.612> 505 315<169.166 302.612>
VStem: 81 308<56.1595 197.097 591.16 732.097>
LayerCount: 3
Fore
SplineSet
81 130 m 0
 81 168 201 284 238 285 c 0
 269 285 389 161 389 135 c 0
 389 82.0390625 278.045898438 -30 236 -30 c 0
 210.6875 -30 81 77.171875 81 130 c 0
81 665 m 0
 81 703 201 819 238 820 c 0
 269 820 389 696 389 670 c 0
 389 617.039038366 278.045922389 505 236 505 c 0
 210.6875 505 81 612.171875 81 665 c 0
EndSplineSet
Validated: 1
EndChar

StartChar: emdash
Encoding: 8212 8212 61
Width: 2048
VWidth: 1000
Flags: W
HStem: 532 105<0 2048>
LayerCount: 3
Fore
SplineSet
0 532 m 5
 0 637 l 5
 2048 637 l 5
 2048 532 l 5
 0 532 l 5
EndSplineSet
EndChar

StartChar: endash
Encoding: 8211 8211 62
Width: 1024
VWidth: 1000
Flags: W
HStem: 532 105<0 1024>
LayerCount: 3
Fore
SplineSet
0 532 m 1
 0 637 l 1
 1024 637 l 1
 1024 532 l 1
 0 532 l 1
EndSplineSet
EndChar

StartChar: afii00208
Encoding: 8213 8213 63
Width: 2048
VWidth: 1000
Flags: W
HStem: 532 105<0 2048>
LayerCount: 3
Fore
SplineSet
0 532 m 5
 0 637 l 5
 2048 637 l 5
 2048 532 l 5
 0 532 l 5
EndSplineSet
EndChar

StartChar: quoteleft
Encoding: 8216 8216 64
Width: 497
VWidth: 0
Flags: W
HStem: 981 513
VStem: 99 192<1100 1340.04>
LayerCount: 3
Fore
SplineSet
291 1298 m 0
 291 1179 420 1176 420 1137 c 0
 420 1105 302 981 277 981 c 0
 260 981 99 1020 99 1180 c 0
 99 1442 368 1494 390 1494 c 0
 414 1494 420 1478 420 1470 c 0
 420 1413 291 1414 291 1298 c 0
EndSplineSet
Validated: 1
EndChar

StartChar: quotesinglbase
Encoding: 8218 8218 65
Width: 497
VWidth: 0
Flags: W
HStem: -219 513
VStem: 226 192<-65.0384 175>
LayerCount: 3
Fore
SplineSet
226 -23 m 0
 226 96 97 99 97 138 c 0
 97 170 215 294 240 294 c 0
 257 294 418 255 418 95 c 0
 418 -167 149 -219 127 -219 c 0
 103 -219 97 -203 97 -195 c 0
 97 -138 226 -139 226 -23 c 0
EndSplineSet
Validated: 1
EndChar

StartChar: oe
Encoding: 339 339 69
Width: 1567
VWidth: 0
Flags: W
HStem: -31 96<401.073 597.319> -21 153<1063.52 1314.95> 744 91<376.948 578.569 990.463 1154.29>
VStem: 51 251<187.139 602.907> 665 276<272.575 458.945>
LayerCount: 3
Back
SplineSet
312 418 m 4
 312 235 382 65 503 65 c 4
 647 65 675 229 675 355 c 4
 675 590 628 744 483 744 c 4
 415 744 312 697 312 418 c 4
61 395 m 4
 61 614 192 835 494 835 c 4
 740 835 816 624 816 624 c 5
 816 624 916 822 1094 822 c 4
 1316 822 1436 625 1436 559 c 4
 1436 536 1414 528 1406 527 c 6
 931 459 l 5
 931 459 932 132 1191 132 c 4
 1355 132 1432 206 1467 206 c 4
 1477 206 1484 199 1484 181 c 4
 1484 161.341867375 1430.02929454 102.920244641 1347.00000498 53.9311312759 c 4
 1277.97749586 13.2063275175 1188.87361893 -21 1094 -21 c 4
 873 -21 811 175 811 175 c 5
 811 175 756 -31 487 -31 c 4
 173 -31 61 193 61 395 c 4
932 528 m 5
 1198 566 l 5
 1198 566 1173 747 1058 747 c 4
 993 747 937 668 932 528 c 5
EndSplineSet
Fore
SplineSet
302 418 m 0xb8
 302 235 372 65 493 65 c 0
 637 65 665 229 665 355 c 0
 665 590 618 744 473 744 c 0
 405 744 302 697 302 418 c 0xb8
1494 186 m 0
 1494 135 1325 -21 1129 -21 c 0x78
 872 -21 806 175 806 175 c 1
 806 175 746 -31 477 -31 c 0xb8
 163 -31 51 193 51 395 c 0
 51 614 182 835 484 835 c 0
 754 835 806 619 806 619 c 1
 806 619 876 822 1104 822 c 0
 1326 822 1446 625 1446 559 c 0
 1446 536 1424 528 1416 527 c 2
 941 459 l 1
 941 459 942 132 1201 132 c 0x78
 1365 132 1442 206 1477 206 c 0
 1486 206 1494 199 1494 186 c 0
942 528 m 1
 1208 566 l 1
 1208 566 1183 747 1068 747 c 0
 1003 747 947 668 942 528 c 1
EndSplineSet
Layer: 2
SplineSet
40 400 m 0
 40 612 164 822 444 822 c 0
 623 822 734 747 781 646 c 1
 839 747 955 818 1073 818 c 0
 1297 818 1412 626 1412 555 c 0
 1412 532 1388 525 1380 524 c 2
 865 462 l 1
 864 455 864 445 864 435 c 0
 864 229 994 112 1166 112 c 0
 1327 112 1406 209 1440 209 c 0
 1450 209 1457 202 1457 184 c 0
 1457 146 1306 -26 1084 -26 c 0
 935 -26 837 45 788 135 c 1
 726 39 601 -30 449 -30 c 0
 172 -30 40 193 40 400 c 0
203 449 m 0
 203 260 307 50 475 50 c 0
 643 50 703 213 703 382 c 0
 703 629 573 751 426 751 c 0
 307 751 203 649 203 449 c 0
870 535 m 1
 1222 580 l 1
 1222 580 1166 747 1053 747 c 0
 972 747 892 671 870 535 c 1
EndSplineSet
EndChar

StartChar: ae
Encoding: 230 230 70
Width: 1274
VWidth: 0
Flags: W
HStem: -23 133<153.5 377.949> -21 153<808.739 1038.95> 398 71<345.984 470> 718 112<222.574 432.813> 747 75<743.217 887.773>
VStem: 27 201<120.972 270.097> 67 120<537.583 651.988> 473 211<272.575 398 528 657.507>
LayerCount: 3
Back
SplineSet
233 208 m 0
 233 170 249 110 314 110 c 0
 450 110 517 199 517 199 c 1
 506 235 483 331 483 398 c 1
 381 398 233 327 233 208 c 0
234 130.025192261 m 0
 242.27986145 117.971885681 260.971679688 87 306 87 c 0
 378 87 468 131.496170044 468 221 c 2
 468 377 l 1
 468 393 l 1
 299.555511475 393 222.345932007 258.56854248 222.345932007 175.939208984 c 0
 222.345932007 157.27684021 226.284484863 141.256942749 234 130.025192261 c 0
645 528 m 1
 911 566 l 1
 911 566 886 747 771 747 c 0
 706 747 650 668 645 528 c 1
530.526245117 148.1197052 m 1
 530.526245117 148.1197052 394.282226562 -23 228 -23 c 0
 89 -23 32 51 32 139 c 0
 32 388 420 467 468 469 c 1
 468 578 l 2
 468 651 437 718 338 718 c 0
 209 718 193 652 193 652 c 1
 193 652 199 636 199 613 c 0
 199 577 159 527 127 527 c 0
 118 527 79 531 79 587 c 0
 79 617.302325738 108.842505717 741.149429014 272 799.419760572 c 0
 324.215405728 818.068055078 390.084885062 830 473 830 c 0
 544 830 606.119140625 760.049804688 606.119140625 760.049804688 c 1
 606.119140625 760.049804688 666 822 807 822 c 0
 1029 822 1149 625 1149 559 c 0
 1149 536 1127 528 1119 527 c 2
 644 459 l 1
 644 459 645 132 904 132 c 0
 1068 132 1145 206 1180 206 c 0
 1190 206 1197 199 1197 181 c 0
 1197 145 1036 -21 827 -21 c 0
 618 -21 530.526245117 148.1197052 530.526245117 148.1197052 c 1
EndSplineSet
Fore
SplineSet
228 208 m 0xa5
 228 165 246 110 316 110 c 0
 439 110 508 214 508 214 c 1
 498 252 473 331 473 398 c 1
 371 398 228 327 228 208 c 0xa5
685 528 m 1
 951 566 l 1
 951 566 926 747 811 747 c 0x29
 746 747 690 668 685 528 c 1
396 830 m 0xb3
 592 830 603 660 603 660 c 1
 603 660 667 822 847 822 c 0
 1069 822 1189 625 1189 559 c 0
 1189 536 1167 528 1159 527 c 2
 684 459 l 1
 684 459 685 132 944 132 c 0
 1108 132 1185 206 1220 206 c 0
 1230 206 1237 199 1237 181 c 0
 1237 145 1056 -21 847 -21 c 0x6b
 638 -21 539 148 539 148 c 1
 539 148 389 -23 223 -23 c 0
 84 -23 27 51 27 139 c 0xa5
 27 388 422 467 470 469 c 1
 468 524 l 2
 466 592 473 718 326 718 c 0
 197 718 181 652 181 652 c 1
 181 652 187 636 187 613 c 0
 187 577 147 527 115 527 c 0
 106 527 67 531 67 587 c 0
 67 679 206 830 396 830 c 0xb3
EndSplineSet
EndChar

StartChar: f_i
Encoding: 65537 -1 71
Width: 1207
VWidth: 0
Flags: W
HStem: 0 75<50 171.064 410.397 599 655 808.268 1045.83 1183> 702 100<50 172 407 809> 808 20G<1013 1044> 1390 86<529.344 761.746>
VStem: 172 235<80.0494 702 802 1241.63> 809 235<78.0043 702>
LayerCount: 3
Fore
SplineSet
857 1190 m 0
 777 1190 834 1390 656 1390 c 0
 420 1390 406 1085 406 993 c 2
 406 802 l 1
 808 802 l 2
 895 802 982 812 1044 828 c 1
 1044 131 l 2
 1044 67 1082 78 1183 75 c 1
 1183 0 l 1
 655 0 l 1
 655 75 l 1
 770 76 809 70 809 124 c 2
 809 661 l 2
 809 687 800 702 783 702 c 2
 407 702 l 1
 407 138 l 2
 407 67 450 77 601 75 c 1
 599 0 l 1
 47 0 l 1
 50 75 l 1
 155 76 172 70 172 132 c 2
 172 702 l 1
 50 702 l 1
 50 802 l 1
 173 802 l 1
 173 1029 l 2
 173 1171 217 1268 280 1334 c 0
 381 1441 564 1476 675 1476 c 0
 800 1476 971 1399 971 1343 c 0
 971 1310 905 1190 857 1190 c 0
EndSplineSet
Ligature2: "'liga' Standard Ligatures in Latin lookup 8 subtable" f i
LCarets2: 1 0 
EndChar

StartChar: f_l
Encoding: 65538 -1 72
Width: 1217
VWidth: 0
Flags: W
HStem: 0 75<61 183.755 420.626 584 669 819.445 1058.46 1196> 702 100<61 184 419 629> 1408 76<474.688 621.817>
VStem: 184 235<77.5232 702 802 1271.73> 822 235<79.2366 1329>
LayerCount: 3
Fore
SplineSet
185 1024 m 2
 185 1414 414 1484 557 1484 c 0
 621 1484 762 1460 824 1422 c 1
 914 1444 987 1467 1057 1489 c 1
 1057 130 l 2
 1057 70 1086 78 1196 75 c 1
 1196 0 l 1
 669 0 l 1
 669 75 l 1
 767 76 822 69 822 131 c 2
 822 1329 l 1
 786 1285 728 1233 694 1233 c 0
 618 1233 680 1408 546 1408 c 0
 426 1408 418 1208 418 1116 c 2
 418 802 l 1
 632 802 l 1
 629 702 l 1
 419 702 l 1
 419 138 l 2
 419 67 435 77 586 75 c 1
 584 0 l 1
 61 0 l 1
 61 75 l 1
 178 79 184 71 184 126 c 2
 184 702 l 1
 61 702 l 1
 61 802 l 1
 185 802 l 1
 185 1024 l 2
EndSplineSet
Ligature2: "'liga' Standard Ligatures in Latin lookup 8 subtable" f l
LCarets2: 1 0 
EndChar

StartChar: f_f
Encoding: 65539 -1 73
Width: 1265
VWidth: 0
Flags: W
HStem: 0 75<64 202.982 441.282 616 684 824.982 1064.39 1205> 702 100<62 204 439 826 1061 1208> 1344 78<516.289 685.938> 1391 91<1094.2 1216.79>
VStem: 204 235<78.5222 702 802 1220.34> 826 235<79.2287 702 802 1187.79>
LayerCount: 3
Fore
SplineSet
888 1314 m 1xec
 932 1405 1067 1482 1197 1482 c 0
 1298 1482 1408 1427 1408 1365 c 0
 1408 1332 1330 1224 1292 1224 c 0
 1242 1224 1239 1391 1160 1391 c 0xdc
 1104 1391 1060 1319 1060 1196 c 2
 1060 802 l 1
 1208 802 l 1
 1208 702 l 1
 1061 702 l 1
 1061 138 l 2
 1061 67 1107 78 1205 75 c 1
 1206 0 l 1
 684 0 l 1
 683 75 l 1
 808 78 826 72 826 132 c 2
 826 702 l 1
 439 702 l 1
 439 138 l 2
 439 67 465 77 616 75 c 1
 616 0 l 1
 64 0 l 1
 61 75 l 1
 186 78 204 70 204 132 c 2
 204 702 l 1
 62 702 l 1
 62 802 l 1
 205 802 l 1
 205 1024 l 2
 205 1342 458 1422 616 1422 c 0
 702 1422 853 1372 888 1314 c 1xec
438 802 m 1
 827 802 l 1
 827 1024 l 2
 827 1088 833 1143 843 1190 c 1
 824 1168 803 1152 784 1152 c 0
 708 1152 748 1344 600 1344 c 0xec
 444 1344 438 1084 438 992 c 2
 438 802 l 1
EndSplineSet
Layer: 2
SplineSet
501 1345 m 4
 337 1345 327 1139 327 954 c 6
 327 802 l 5
 665 802 l 5
 665 1023 l 6
 665 1136 670 1320 865 1440 c 4
 914 1470 976 1483 1034 1483 c 4
 1119 1483 1193 1455 1193 1408 c 4
 1193 1375 1128 1276 1087 1276 c 4
 1052 1276 1036 1398 961 1398 c 4
 816 1398 807 1131 807 1074 c 6
 807 802 l 5
 1038 802 l 5
 1014 704 l 5
 808 704 l 5
 808 128 l 6
 808 57 826 69 963 65 c 5
 963 0 l 5
 538 0 l 5
 537 65 l 5
 639 69 664 54 664 120 c 6
 664 704 l 5
 328 704 l 5
 328 128 l 6
 328 57 330 69 467 65 c 5
 468 0 l 5
 49 0 l 5
 49 65 l 5
 151 69 184 54 184 120 c 6
 184 704 l 5
 35 704 l 5
 59 802 l 5
 185 802 l 5
 185 965 l 6
 185 1161 209 1319 412 1396 c 4
 481 1423 516 1430 574 1430 c 4
 659 1430 733 1402 733 1355 c 4
 733 1322 668 1223 627 1223 c 4
 592 1223 576 1345 501 1345 c 4
EndSplineSet
Ligature2: "'liga' Standard Ligatures in Latin lookup 8 subtable" f f
LCarets2: 1 0 
EndChar

StartChar: f_f_i
Encoding: 65540 -1 74
Width: 1655
VWidth: 0
Flags: W
HStem: 0 75<30 144.279 381.681 529 577 700.889 940.555 1073 1125 1258.62 1495.83 1633> 702 100<28 145 380 702 937 1259> 808 20G<1463 1494> 1339 77<443.193 617.257> 1392 86<1029.52 1254.63>
VStem: 145 235<77.7815 702 802 1229.19> 702 235<78.7581 702 802 1145.32> 1259 235<78.0043 702>
CounterMasks: 1 07
LayerCount: 3
Fore
SplineSet
703 802 m 1xf7
 703 981 l 2
 703 1024 713 1112 720 1147 c 1
 702 1150 666 1188 648 1242 c 0
 632 1291 604 1339 538 1339 c 0
 392 1339 379 1162 379 1080 c 2
 379 802 l 1
 703 802 l 1xf7
537 1416 m 0
 625 1416 744 1375 803 1326 c 1
 898 1435 1060 1478 1172 1478 c 0
 1297 1478 1432 1411 1432 1351 c 0
 1432 1311 1400 1183 1352 1183 c 0
 1272 1183 1331 1392 1153 1392 c 0xef
 950 1392 936 1164 936 1042 c 2
 936 802 l 1
 1258 802 l 2
 1345 802 1432 812 1494 828 c 1
 1494 131 l 2
 1494 67 1532 78 1633 75 c 1
 1633 0 l 1
 1125 0 l 1
 1125 75 l 1
 1240 76 1259 70 1259 124 c 2
 1259 661 l 2
 1259 687 1250 702 1233 702 c 2
 937 702 l 1
 937 138 l 2
 937 69 986 76 1075 75 c 1
 1073 0 l 1
 577 0 l 1
 574 75 l 1
 681 78 702 68 702 132 c 2
 702 702 l 1
 380 702 l 1
 380 138 l 2
 380 67 398 78 529 75 c 1
 530 0 l 1
 30 0 l 1
 28 75 l 1
 133 76 145 70 145 132 c 2
 145 702 l 1
 25 702 l 1
 28 802 l 1
 146 802 l 1
 146 1029 l 2
 146 1234 244 1331 350 1377 c 0
 402 1400 467 1416 537 1416 c 0
EndSplineSet
Layer: 2
SplineSet
328 704 m 5
 328 128 l 6
 328 57 330 69 467 65 c 5
 468 0 l 5
 49 0 l 5
 49 65 l 5
 151 69 184 54 184 120 c 6
 184 704 l 5
 35 704 l 5
 59 802 l 5
 185 802 l 5
 185 965 l 6
 185 1161 209 1319 412 1396 c 4
 481 1423 516 1430 574 1430 c 4
 659 1430 733 1402 733 1355 c 4
 733 1322 668 1223 627 1223 c 4
 592 1223 576 1345 501 1345 c 4
 337 1345 327 1139 327 954 c 6
 327 802 l 5
 665 802 l 5
 665 1066 l 6
 665 1281 823 1484 1059 1484 c 4
 1160 1484 1254 1452 1254 1403 c 4
 1254 1362 1191 1290 1143 1290 c 4
 1117 1290 1062 1406 969 1406 c 4
 845 1406 807 1212 807 1094 c 6
 807 802 l 5
 1035 802 l 6
 1096 802 1186 803 1294 832 c 5
 1294 120 l 6
 1294 54 1308 68 1418 65 c 5
 1418 0 l 5
 1020 0 l 5
 1020 65 l 5
 1113 70 1150 58 1150 113 c 6
 1150 630 l 6
 1150 704 1149 704 1017 704 c 6
 808 704 l 5
 808 123 l 6
 808 56 819 69 956 65 c 5
 956 0 l 5
 530 0 l 5
 530 65 l 5
 632 69 664 54 664 120 c 6
 664 704 l 5
 328 704 l 5
EndSplineSet
Ligature2: "'liga' Standard Ligatures in Latin lookup 8 subtable" f f i
LCarets2: 2 0 0 
EndChar

StartChar: f_f_l
Encoding: 65541 -1 75
Width: 1655
VWidth: 0
Flags: W
HStem: 0 75<30 144.279 381.681 529 577 700.889 940.555 1073 1121 1257.09 1495.01 1633> 702 100<28 145 380 702 937 1137> 1339 77<443.193 616.293> 1390 86<988.137 1131.11>
VStem: 145 235<77.7815 702 802 1229.19> 702 235<78.7581 702 802 1145.31> 1259 235<79.5728 1221>
CounterMasks: 1 0e
LayerCount: 3
Fore
SplineSet
1259 1221 m 1xde
 1243 1217 1228 1212 1214 1212 c 0
 1186 1212 1172 1226 1161 1264 c 0
 1146 1317 1132 1390 1070 1390 c 0xde
 954 1390 936 1234 936 1111 c 2
 936 802 l 1
 1137 802 l 1
 1137 702 l 1
 937 702 l 1
 937 138 l 2
 937 69 986 76 1075 75 c 1
 1073 0 l 1
 577 0 l 1
 574 75 l 1
 681 78 702 68 702 132 c 2
 702 702 l 1
 380 702 l 1
 380 138 l 2
 380 67 398 78 529 75 c 1
 530 0 l 1
 30 0 l 1
 28 75 l 1
 133 76 145 70 145 132 c 2
 145 702 l 1
 25 702 l 1
 28 802 l 1
 146 802 l 1
 146 1029 l 2
 146 1234 244 1331 350 1377 c 0
 402 1400 467 1416 537 1416 c 0xee
 625 1416 734 1387 793 1338 c 1
 793 1338 890 1476 1065 1476 c 0
 1120 1476 1193 1454 1264 1423 c 1
 1352 1445 1424 1467 1494 1489 c 1
 1494 130 l 2
 1494 70 1512 82 1633 75 c 1
 1633 0 l 1
 1121 0 l 1
 1121 75 l 1
 1219 76 1259 69 1259 131 c 2
 1259 1221 l 1xde
703 802 m 1
 703 986 l 2
 703 1014 708 1112 715 1147 c 1
 697 1150 666 1188 648 1242 c 0
 632 1291 604 1339 538 1339 c 0xee
 392 1339 379 1162 379 1080 c 2
 379 802 l 1
 703 802 l 1
EndSplineSet
Layer: 2
SplineSet
665 802 m 5
 665 1023 l 6
 665 1136 670 1320 865 1440 c 4
 914 1470 976 1483 1034 1483 c 4
 1077 1483 1117 1476 1146 1463 c 5
 1195 1470 1243 1477 1292 1486 c 5
 1292 120 l 6
 1292 60 1308 67 1428 65 c 5
 1429 0 l 5
 1012 0 l 5
 1015 65 l 5
 1113 66 1148 59 1148 121 c 6
 1148 1320 l 5
 1120 1296 1110 1276 1087 1276 c 4
 1052 1276 1036 1398 961 1398 c 4
 816 1398 807 1131 807 1074 c 6
 807 802 l 5
 1038 802 l 5
 1014 704 l 5
 808 704 l 5
 808 128 l 6
 808 57 816 69 953 65 c 5
 956 0 l 5
 534 0 l 5
 535 65 l 5
 637 69 664 54 664 120 c 6
 664 704 l 5
 328 704 l 5
 328 128 l 6
 328 57 330 69 467 65 c 5
 468 0 l 5
 49 0 l 5
 49 65 l 5
 151 69 184 54 184 120 c 6
 184 704 l 5
 35 704 l 5
 59 802 l 5
 185 802 l 5
 185 965 l 6
 185 1161 209 1319 412 1396 c 4
 481 1423 516 1430 574 1430 c 4
 659 1430 733 1402 733 1355 c 4
 733 1322 668 1223 627 1223 c 4
 592 1223 576 1345 501 1345 c 4
 337 1345 327 1139 327 954 c 6
 327 802 l 5
 665 802 l 5
EndSplineSet
Ligature2: "'liga' Standard Ligatures in Latin lookup 8 subtable" f f l
LCarets2: 2 0 0 
EndChar

StartChar: f_j
Encoding: 65542 -1 76
Width: 1207
VWidth: 0
Flags: W
HStem: -530 122<656.776 773.599> 0 75<50 171.105 410.397 599> 702 100<50 172 407 808.96> 808 20G<1013 1044> 1390 86<529.344 761.746>
VStem: 172 235<80.0288 702 802 1241.63> 809 235<-290.797 702>
LayerCount: 3
Fore
SplineSet
555 -247 m 0
 627 -247 639 -408 721 -408 c 0
 790 -408 809 -269 809 -64 c 2
 809 653 l 2
 809 681 806 702 782 702 c 2
 407 702 l 1
 407 138 l 2
 407 67 450 77 601 75 c 1
 599 0 l 1
 47 0 l 1
 50 75 l 1
 156 79 172 69 172 132 c 2
 172 702 l 1
 50 702 l 1
 50 802 l 1
 173 802 l 1
 173 1029 l 2
 173 1171 217 1268 280 1334 c 0
 381 1441 564 1476 675 1476 c 0
 800 1476 971 1399 971 1343 c 0
 971 1310 905 1190 857 1190 c 0
 777 1190 834 1390 656 1390 c 0
 420 1390 406 1085 406 993 c 2
 406 802 l 1
 808 802 l 2
 895 802 982 812 1044 828 c 1
 1044 -99 l 2
 1044 -394 788 -530 676 -530 c 0
 604 -530 441 -507 441 -413 c 0
 441 -358 488 -293 516 -264 c 0
 528 -251 540 -247 555 -247 c 0
EndSplineSet
Ligature2: "'liga' Standard Ligatures in Latin lookup 8 subtable" f j
LCarets2: 1 0 
EndChar

StartChar: f_f_j
Encoding: 65543 -1 77
Width: 1655
VWidth: 0
Flags: W
HStem: -530 122<1106.78 1223.6> 0 75<30 144.279 381.681 529 577 700.889 940.555 1073> 702 100<28 145 380 702 937 1259> 808 20G<1463 1494> 1339 77<443.193 617.257> 1392 86<1029.52 1254.63>
VStem: 145 235<77.7815 702 802 1229.19> 702 235<78.7581 702 802 1145.32> 1259 235<-290.797 702>
CounterMasks: 1 0380
LayerCount: 3
Back
SplineSet
703 802 m 5xf7
 703 981 l 6
 703 1024 713 1112 720 1147 c 5
 702 1150 666 1188 648 1242 c 4
 632 1291 604 1339 538 1339 c 4
 392 1339 379 1162 379 1080 c 6
 379 802 l 5
 703 802 l 5xf7
537 1416 m 4
 625 1416 744 1375 803 1326 c 5
 898 1435 1060 1478 1172 1478 c 4
 1297 1478 1432 1411 1432 1351 c 4
 1432 1311 1400 1183 1352 1183 c 4
 1272 1183 1331 1392 1153 1392 c 4xef
 950 1392 936 1164 936 1042 c 6
 936 802 l 5
 1258 802 l 6
 1345 802 1432 812 1494 828 c 5
 1494 131 l 6
 1494 67 1532 78 1633 75 c 5
 1633 0 l 5
 1125 0 l 5
 1125 75 l 5
 1240 76 1259 70 1259 124 c 6
 1259 661 l 6
 1259 687 1250 702 1233 702 c 6
 937 702 l 5
 937 138 l 6
 937 69 986 76 1075 75 c 5
 1073 0 l 5
 577 0 l 5
 574 75 l 5
 681 78 702 68 702 132 c 6
 702 702 l 5
 380 702 l 5
 380 138 l 6
 380 67 398 78 529 75 c 5
 530 0 l 5
 30 0 l 5
 28 75 l 5
 133 76 145 70 145 132 c 6
 145 702 l 5
 25 702 l 5
 28 802 l 5
 146 802 l 5
 146 1029 l 6
 146 1234 244 1331 350 1377 c 4
 402 1400 467 1416 537 1416 c 4
EndSplineSet
Fore
SplineSet
1259 661 m 2xf780
 1259 687 1250 702 1233 702 c 2
 937 702 l 1
 937 138 l 2
 937 69 986 76 1075 75 c 1
 1073 0 l 1
 577 0 l 1
 574 75 l 1
 681 78 702 68 702 132 c 2
 702 702 l 1
 380 702 l 1
 380 138 l 2
 380 67 398 78 529 75 c 1
 530 0 l 1
 30 0 l 1
 28 75 l 1
 133 76 145 70 145 132 c 2
 145 702 l 1
 25 702 l 1
 28 802 l 1
 146 802 l 1
 146 1029 l 2
 146 1234 244 1331 350 1377 c 0
 402 1400 467 1416 537 1416 c 0xfb80
 625 1416 744 1375 803 1326 c 1
 898 1435 1060 1478 1172 1478 c 0
 1297 1478 1432 1411 1432 1351 c 0
 1432 1311 1400 1183 1352 1183 c 0
 1272 1183 1331 1392 1153 1392 c 0
 950 1392 936 1164 936 1042 c 2
 936 802 l 1
 1258 802 l 2
 1345 802 1432 812 1494 828 c 1
 1494 -99 l 2
 1494 -394 1238 -530 1126 -530 c 0
 1054 -530 891 -507 891 -413 c 0
 891 -358 938 -293 966 -264 c 0
 978 -251 990 -247 1005 -247 c 0
 1077 -247 1089 -408 1171 -408 c 0
 1240 -408 1259 -269 1259 -64 c 2
 1259 661 l 2xf780
703 802 m 1
 703 981 l 2
 703 1024 713 1112 720 1147 c 1
 702 1150 666 1188 648 1242 c 0
 632 1291 604 1339 538 1339 c 0
 392 1339 379 1162 379 1080 c 2
 379 802 l 1
 703 802 l 1
EndSplineSet
Ligature2: "'liga' Standard Ligatures in Latin lookup 8 subtable" f f j
LCarets2: 2 0 0 
EndChar

StartChar: f_b
Encoding: 65544 -1 78
Width: 1745
VWidth: 0
Flags: W
HStem: -29 90<1077.94 1360.64> 0 75<61 183.851 420.626 584> 686 135<1167.87 1351.49> 702 100<61 184 419 629> 1408 76<474.688 621.817>
VStem: 184 235<77.5074 702 802 1271.73> 822 235<86.1283 665.153 698 1329> 1467 225<209.528 557.471>
LayerCount: 3
Back
SplineSet
185 1024 m 6
 185 1414 414 1484 557 1484 c 4
 621 1484 762 1460 824 1422 c 5
 914 1444 987 1467 1057 1489 c 5
 1057 130 l 6
 1057 70 1086 78 1196 75 c 5
 1196 0 l 5
 669 0 l 5
 669 75 l 5
 767 76 822 69 822 131 c 6
 822 1329 l 5
 786 1285 728 1233 694 1233 c 4
 618 1233 680 1408 546 1408 c 4
 426 1408 418 1208 418 1116 c 6
 418 802 l 5
 632 802 l 5
 629 702 l 5
 419 702 l 5
 419 138 l 6
 419 67 435 77 586 75 c 5
 584 0 l 5
 61 0 l 5
 61 75 l 5
 182 78 184 67 184 126 c 4
 184 318 184 510 184 702 c 5
 61 702 l 5
 61 802 l 5
 185 802 l 5
 185 1024 l 6
EndSplineSet
Fore
SplineSet
822 1329 m 1xaf
 786 1285 728 1233 694 1233 c 0
 618 1233 680 1408 546 1408 c 0
 426 1408 418 1208 418 1116 c 2
 418 802 l 1
 632 802 l 1
 629 702 l 1
 419 702 l 1
 419 138 l 2
 419 67 435 77 586 75 c 1
 584 0 l 1
 61 0 l 1
 61 75 l 1
 182 77 184 72 184 126 c 2
 184 702 l 1
 61 702 l 1
 61 802 l 1
 185 802 l 1x5f
 185 1024 l 2
 185 1414 414 1484 557 1484 c 0
 621 1484 762 1460 824 1422 c 1
 914 1444 987 1467 1057 1489 c 1
 1057 698 l 1
 1086 728 1193 821 1340 821 c 0
 1585 821 1692 610 1692 441 c 0
 1692 210 1587 -29 1218 -29 c 0
 1071 -29 969 26 936 26 c 0
 850 26 854 -124 816 -124 c 0
 808 -124 758 -124 758 -91 c 0
 758 -56 822 100 822 314 c 2
 822 1329 l 1xaf
1057 168 m 2
 1057 75 1145 61 1227 61 c 0
 1319 61 1467 115 1467 358 c 0
 1467 658 1268 686 1224 686 c 0xaf
 1101 686 1057 640 1057 640 c 1
 1057 168 l 2
EndSplineSet
Ligature2: "'liga' Standard Ligatures in Latin lookup 8 subtable" f b
LCarets2: 1 0 
EndChar

StartChar: f_f_b
Encoding: 65545 -1 79
Width: 2183
VWidth: 0
Flags: W
HStem: -29 90<1514.94 1797.64> 0 75<30 144.279 381.681 529 577 700.889 940.555 1073> 686 135<1604.87 1788.49> 702 100<28 145 380 702 937 1137> 1339 77<443.193 616.293> 1390 86<988.137 1131.11>
VStem: 145 235<77.7815 702 802 1229.19> 702 235<78.7581 702 802 1145.31> 1259 235<86.1283 665.153 698 1221> 1904 225<209.528 557.471>
LayerCount: 3
Fore
SplineSet
1259 1221 m 1xa7c0
 1243 1217 1228 1212 1214 1212 c 0
 1186 1212 1172 1226 1161 1264 c 0
 1146 1317 1132 1390 1070 1390 c 0xa7c0
 954 1390 936 1234 936 1111 c 2
 936 802 l 1
 1137 802 l 1
 1137 702 l 1
 937 702 l 1
 937 138 l 2
 937 69 986 76 1075 75 c 1
 1073 0 l 1
 577 0 l 1
 574 75 l 1
 681 78 702 68 702 132 c 2
 702 702 l 1
 380 702 l 1
 380 138 l 2
 380 67 398 78 529 75 c 1
 530 0 l 1
 30 0 l 1
 28 75 l 1
 133 76 145 70 145 132 c 2
 145 702 l 1
 25 702 l 1
 28 802 l 1
 146 802 l 1
 146 1029 l 2
 146 1234 244 1331 350 1377 c 0
 402 1400 467 1416 537 1416 c 0x5bc0
 625 1416 734 1387 793 1338 c 1
 793 1338 890 1476 1065 1476 c 0
 1120 1476 1193 1454 1264 1423 c 1
 1352 1445 1424 1467 1494 1489 c 1
 1494 698 l 1
 1523 728 1630 821 1777 821 c 0
 2022 821 2129 610 2129 441 c 0
 2129 210 2024 -29 1655 -29 c 0
 1508 -29 1406 26 1373 26 c 0
 1287 26 1291 -124 1253 -124 c 0
 1245 -124 1195 -124 1195 -91 c 0
 1195 -56 1259 100 1259 314 c 2
 1259 1221 l 1xa7c0
1494 168 m 2
 1494 75 1582 61 1664 61 c 0
 1756 61 1904 115 1904 358 c 0
 1904 658 1705 686 1661 686 c 0
 1538 686 1494 640 1494 640 c 1
 1494 168 l 2
703 802 m 1x1bc0
 703 986 l 2
 703 1014 708 1112 715 1147 c 1
 697 1150 666 1188 648 1242 c 0
 632 1291 604 1339 538 1339 c 0
 392 1339 379 1162 379 1080 c 2
 379 802 l 1
 703 802 l 1x1bc0
EndSplineSet
Ligature2: "'liga' Standard Ligatures in Latin lookup 8 subtable" f f b
LCarets2: 2 0 0 
EndChar

StartChar: f_h
Encoding: 65546 -1 80
Width: 1793
VWidth: 0
Flags: W
HStem: 0 75<61 183.851 420.626 584 681 819.344 1058.39 1164 1256 1332.98 1571.71 1709> 674 142<1222.75 1435.48> 702 100<61 184 419 629> 1408 76<474.688 621.817>
VStem: 184 235<77.5137 702 802 1271.73> 822 235<77.0756 646.886 688 1329> 1335 235<77.55 657.309>
AnchorPoint: "top" 1242 1500 basechar 0
LayerCount: 3
Fore
SplineSet
822 1329 m 1xde
 786 1285 728 1233 694 1233 c 0
 618 1233 680 1408 546 1408 c 0
 426 1408 418 1208 418 1116 c 2
 418 802 l 1
 632 802 l 1
 629 702 l 1
 419 702 l 1
 419 138 l 2
 419 67 435 77 586 75 c 1
 584 0 l 1
 61 0 l 1
 61 75 l 1
 182 77 184 71 184 126 c 2
 184 702 l 1
 61 702 l 1
 61 802 l 1
 185 802 l 1xbe
 185 1024 l 2
 185 1414 414 1484 557 1484 c 0
 621 1484 762 1460 824 1422 c 1
 914 1444 987 1467 1057 1489 c 1
 1057 688 l 1
 1092 702 1259 816 1408 816 c 0
 1553 816 1570 710 1570 618 c 2
 1570 138 l 2
 1570 66 1596 78 1710 75 c 1
 1709 0 l 1
 1256 0 l 1
 1256 75 l 1
 1313 78 1335 75 1335 138 c 2
 1335 540 l 2
 1335 642 1294 674 1241 674 c 0
 1153 674 1057 630 1057 630 c 1
 1057 147 l 2
 1057 65 1065 80 1164 75 c 1
 1164 0 l 1
 681 0 l 1
 679 75 l 1
 802 77 822 65 822 147 c 2
 822 1329 l 1xde
EndSplineSet
Ligature2: "'liga' Standard Ligatures in Latin lookup 8 subtable" f h
LCarets2: 1 0 
EndChar

StartChar: f_f_h
Encoding: 65547 -1 81
Width: 2183
VWidth: 0
Flags: W
HStem: 0 75<30 144.279 381.681 529 577 700.889 940.555 1073 1118 1256.34 1495.39 1601 1693 1769.98 2008.71 2146> 674 142<1659.75 1872.48> 702 100<28 145 380 702 937 1137> 1339 77<443.193 616.293> 1390 86<988.137 1131.11>
VStem: 145 235<77.7815 702 802 1229.19> 702 235<78.7581 702 802 1145.31> 1259 235<77.0756 646.886 688 1221> 1772 235<77.55 657.309>
AnchorPoint: "top" 1679 1500 basechar 0
LayerCount: 3
Fore
SplineSet
1259 1221 m 1xcf80
 1243 1217 1228 1212 1214 1212 c 0
 1186 1212 1172 1226 1161 1264 c 0
 1146 1317 1132 1390 1070 1390 c 0xcf80
 954 1390 936 1234 936 1111 c 2
 936 802 l 1
 1137 802 l 1
 1137 702 l 1
 937 702 l 1
 937 138 l 2
 937 69 986 76 1075 75 c 1
 1073 0 l 1
 577 0 l 1
 574 75 l 1
 681 78 702 68 702 132 c 2
 702 702 l 1
 380 702 l 1
 380 138 l 2
 380 67 398 78 529 75 c 1
 530 0 l 1
 30 0 l 1
 28 75 l 1
 133 76 145 70 145 132 c 2
 145 702 l 1
 25 702 l 1
 28 802 l 1
 146 802 l 1
 146 1029 l 2
 146 1234 244 1331 350 1377 c 0
 402 1400 467 1416 537 1416 c 0xb780
 625 1416 734 1387 793 1338 c 1
 793 1338 890 1476 1065 1476 c 0
 1120 1476 1193 1454 1264 1423 c 1
 1352 1445 1424 1467 1494 1489 c 1
 1494 688 l 1
 1529 702 1696 816 1845 816 c 0
 1990 816 2007 710 2007 618 c 2
 2007 138 l 2
 2007 66 2033 78 2147 75 c 1
 2146 0 l 1
 1693 0 l 1
 1693 75 l 1
 1750 78 1772 75 1772 138 c 2
 1772 540 l 2
 1772 642 1731 674 1678 674 c 0
 1590 674 1494 630 1494 630 c 1
 1494 147 l 2
 1494 65 1502 80 1601 75 c 1
 1601 0 l 1
 1118 0 l 1
 1116 75 l 1
 1239 77 1259 65 1259 147 c 2
 1259 1221 l 1xcf80
703 802 m 1xb780
 703 986 l 2
 703 1014 708 1112 715 1147 c 1
 697 1150 666 1188 648 1242 c 0
 632 1291 604 1339 538 1339 c 0
 392 1339 379 1162 379 1080 c 2
 379 802 l 1
 703 802 l 1xb780
EndSplineSet
Ligature2: "'liga' Standard Ligatures in Latin lookup 8 subtable" f f h
LCarets2: 2 0 0 
EndChar

StartChar: f_k
Encoding: 65548 -1 82
Width: 1926
VWidth: 0
Flags: W
HStem: 0 75<61 183.827 420.626 584 683 818.941 1057.39 1248 1701.46 1861> 702 100<61 184 419 629> 727 75<1336 1476.94 1620.01 1842> 1408 76<474.688 621.817>
VStem: 184 235<77.4534 702 802 1271.73> 822 235<80.219 301 404 1329>
LayerCount: 3
Fore
SplineSet
1057 1489 m 1xbc
 1057 404 l 1
 1440 670 l 2
 1466 688 1477 700 1477 708 c 0
 1477 730 1399 725 1336 727 c 1
 1336 802 l 1
 1844 802 l 1
 1842 727 l 1
 1708 726 1675 732 1579 665 c 2
 1333 493 l 1
 1636 170 l 2
 1718 83 1768 75 1820 75 c 2
 1863 75 l 1
 1861 0 l 1
 1454 0 l 1
 1147 364 l 1
 1057 301 l 1
 1057 120 l 2
 1057 71 1088 77 1248 75 c 1
 1250 0 l 1
 683 0 l 1
 682 75 l 1
 790 78 822 74 822 138 c 2
 822 1329 l 1
 786 1285 728 1233 694 1233 c 0
 618 1233 680 1408 546 1408 c 0
 426 1408 418 1208 418 1116 c 2
 418 802 l 1
 632 802 l 1xbc
 629 702 l 1
 419 702 l 1
 419 138 l 2
 419 67 435 77 586 75 c 1
 584 0 l 1
 61 0 l 1
 61 75 l 1
 181 78 184 70 184 126 c 2
 184 702 l 1
 61 702 l 1
 61 802 l 1xdc
 185 802 l 1
 185 1024 l 2
 185 1414 414 1484 557 1484 c 0
 621 1484 762 1460 824 1422 c 1
 914 1444 987 1467 1057 1489 c 1xbc
EndSplineSet
Ligature2: "'liga' Standard Ligatures in Latin lookup 8 subtable" f k
LCarets2: 1 0 
EndChar

StartChar: f_f_k
Encoding: 65549 -1 83
Width: 2333
VWidth: 0
Flags: W
HStem: 0 75<30 144.279 381.681 529 577 700.889 940.555 1073 1120 1255.94 1494.39 1685 2138.46 2298> 702 100<28 145 380 702 937 1137> 727 75<1773 1913.94 2057.01 2279> 1339 77<443.193 616.293> 1390 86<988.137 1131.11>
VStem: 145 235<77.7815 702 802 1229.19> 702 235<78.7581 702 802 1145.31> 1259 235<80.219 301 404 1221>
CounterMasks: 1 07
LayerCount: 3
Fore
SplineSet
1259 1221 m 1xaf
 1243 1217 1228 1212 1214 1212 c 0
 1186 1212 1172 1226 1161 1264 c 0
 1146 1317 1132 1390 1070 1390 c 0
 954 1390 936 1234 936 1111 c 2
 936 802 l 1xaf
 1137 802 l 1
 1137 702 l 1
 937 702 l 1
 937 138 l 2
 937 69 986 76 1075 75 c 1
 1073 0 l 1
 577 0 l 1
 574 75 l 1
 681 78 702 68 702 132 c 2
 702 702 l 1
 380 702 l 1
 380 138 l 2
 380 67 398 78 529 75 c 1
 530 0 l 1
 30 0 l 1
 28 75 l 1
 133 76 145 70 145 132 c 2
 145 702 l 1
 25 702 l 1
 28 802 l 1xc7
 146 802 l 1
 146 1029 l 2
 146 1234 244 1331 350 1377 c 0
 402 1400 467 1416 537 1416 c 0xb7
 625 1416 734 1387 793 1338 c 1
 793 1338 890 1476 1065 1476 c 0
 1120 1476 1193 1454 1264 1423 c 1
 1352 1445 1424 1467 1494 1489 c 1
 1494 404 l 1
 1877 670 l 2
 1903 688 1914 700 1914 708 c 0
 1914 730 1836 725 1773 727 c 1
 1773 802 l 1
 2281 802 l 1
 2279 727 l 1
 2145 726 2112 732 2016 665 c 2
 1770 493 l 1
 2073 170 l 2
 2155 83 2205 75 2257 75 c 2
 2300 75 l 1
 2298 0 l 1
 1891 0 l 1
 1584 364 l 1
 1494 301 l 1
 1494 120 l 2
 1494 71 1525 77 1685 75 c 1
 1687 0 l 1
 1120 0 l 1
 1119 75 l 1
 1227 78 1259 74 1259 138 c 2
 1259 1221 l 1xaf
703 802 m 1
 703 986 l 2
 703 1014 708 1112 715 1147 c 1
 697 1150 666 1188 648 1242 c 0
 632 1291 604 1339 538 1339 c 0xb7
 392 1339 379 1162 379 1080 c 2
 379 802 l 1
 703 802 l 1
EndSplineSet
Ligature2: "'liga' Standard Ligatures in Latin lookup 8 subtable" f f k
LCarets2: 2 0 0 
EndChar

StartChar: ampersand
Encoding: 38 38 84
Width: 2100
VWidth: 0
Flags: HW
HStem: -21 149<613.212 1068.39> 2 247<1532.2 1825.3> 900 90<1234 1588.66 1743.01 1997> 1320 102<508.559 764.886>
VStem: 44 241<388.746 678.933> 196 259<1025.51 1270.5> 823 191<1082.45 1264.73> 1625 136<530.919 867.858>
LayerCount: 3
Fore
SplineSet
367 771 m 1xbb
 367 771 285 702 285 570 c 0
 285 203 705 128 865 128 c 0
 1056 128 1138 174 1138 174 c 1
 858 326 564 523 367 771 c 1xbb
1014 1149 m 0
 1014 1031 934 969 849 969 c 0
 810 969 770 982 736 1009 c 0
 722 1020 720 1043 738 1055 c 0
 781 1084 823 1097 823 1163 c 0
 823 1202 804 1246 766 1276 c 0
 724 1309 669 1320 635 1320 c 0
 504 1320 455 1231 455 1170 c 0
 455 1063 523 928 836 685 c 0
 1116 468 1410 330 1410 330 c 1
 1410 330 1625 464 1625 721 c 0
 1625 786 1597 867 1560 886 c 0
 1537 898 1512 900 1491 900 c 2
 1234 900 l 1
 1234 990 l 1
 1998 990 l 1
 1997 900 l 1
 1812 900 l 2
 1757 900 1743 893 1743 870 c 0
 1743 834 1761 802 1761 710 c 0
 1761 480 1534 288 1529 282 c 1
 1534 272 1643 249 1709 249 c 0
 1787 249 1927 277 1992 346 c 0
 2003 357 2012 363 2021 363 c 0
 2037 363 2048 343 2048 302 c 0
 2048 222 1975 123 1856 61 c 0
 1773 17 1693 2 1619 2 c 0x77
 1436 2 1271 103 1271 103 c 1
 1271 103 1056 -21 742 -21 c 0
 405 -21 44 114 44 482 c 0xbb
 44 786 295 860 295 860 c 1
 295 860 196 1002 196 1120 c 0xb7
 196 1316 373 1422 625 1422 c 0
 752 1422 865 1378 936 1314 c 0
 996 1261 1014 1201 1014 1149 c 0
EndSplineSet
Position2: "'cpsp' Capital Spacing in Latin lookup 1 subtable" dx=16 dy=0 dh=32 dv=0
EndChar

StartChar: m
Encoding: 109 109 85
Width: 1657
VWidth: 0
Flags: MW
HStem: 0 75<64 202.845 438.195 560 600 716 951 1075 1113 1228.74 1465.19 1620> 674 142<568.523 825.243 1117.88 1330.02> 812 20G<355.347 437.456>
VStem: 203 235<77.7348 648.279> 716 235<76.067 643.641> 1229 235<79.2081 654.418>
CounterMasks: 1 1c
LayerCount: 3
Fore
SplineSet
33 734 m 1xdc
 126 747 438 832 438 832 c 1xbc
 438 832 434 766 434 685 c 1
 468 703 661 816 799 816 c 0
 952 816 950 681 951 681 c 0
 1018 732 1184 816 1293 816 c 0
 1451 816 1464 708 1464 607 c 2
 1464 128 l 2
 1464 73 1495 77 1620 75 c 1
 1620 0 l 1
 1113 0 l 1
 1113 75 l 1
 1222 76 1229 74 1229 124 c 2
 1229 540 l 2
 1229 645 1179 674 1128 674 c 0
 1015 674 951 616 951 616 c 1
 951 109 l 2
 951 70 983 76 1075 75 c 1
 1075 0 l 1
 599 0 l 1
 600 75 l 1
 694 77 716 70 716 109 c 2
 716 546 l 2
 716 642 678 674 600 674 c 0
 526 674 438 630 438 630 c 1
 438 121 l 2
 438 68 453 77 560 75 c 1
 560 0 l 1
 64 0 l 1
 64 75 l 1
 192 80 203 69 203 121 c 2
 203 629 l 2
 203 667 199 685 175 685 c 0
 156 685 55 663 38 659 c 1
 33 734 l 1xdc
EndSplineSet
Validated: 1
EndChar

StartChar: zero
Encoding: 48 48 86
Width: 1154
VWidth: 0
Flags: W
HStem: -28 109<496.783 714.26> 1218 97<416.624 658.321>
VStem: 61 224<401.075 924.482> 854 224<359.08 916.074>
LayerCount: 3
Fore
SplineSet
544 1315 m 0
 906 1315 1078 979 1078 643 c 0
 1078 308 906 -28 582 -28 c 0
 225 -28 61 302 61 635 c 0
 61 974 231 1315 544 1315 c 0
524 1218 m 0
 398 1218 285 1069 285 744 c 0
 285 307 453 81 607 81 c 0
 707 81 854 184 854 590 c 0
 854 753 810 1218 524 1218 c 0
EndSplineSet
AlternateSubs2: "'aalt' Access All Alternates lookup 0 subtable" zero.sub zero.sup zero.denom zero.numer
AlternateSubs2: "'aalt' Access All Alternates in Latin lookup 0 subtable" zero.sub zero.sup zero.denom zero.numer
Substitution2: "'subs' Subscript in Latin lookup 6 subtable" zero.sub
Substitution2: "'sups' Superscript in Latin lookup 5 subtable" zero.sup
Substitution2: "denominators subtable" zero.denom
Substitution2: "numerators subtable" zero.numer
EndChar

StartChar: one
Encoding: 49 49 87
Width: 880
VWidth: 0
Flags: W
HStem: 0 75<43 278.825 521.274 800> 1165 75<64 275.313>
VStem: 282 235<85.2627 1154.12>
LayerCount: 3
Fore
SplineSet
43 0 m 1
 43 75 l 1
 276 77 282 66 282 156 c 2
 282 1084 l 2
 282 1157 252 1165 174 1165 c 2
 62 1165 l 1
 64 1240 l 1
 385 1240 l 2
 459 1240 468 1285 489 1323 c 1
 534 1322 l 1
 534 1322 517 1035 517 840 c 2
 517 153 l 2
 517 76 522 78 800 75 c 1
 800 0 l 1
 43 0 l 1
EndSplineSet
Layer: 2
SplineSet
409 857 m 5xd0
 409 857 402 645 402 450 c 6
 402 128 l 6
 402 51 444 70 605 65 c 5
 605 0 l 5
 63 0 l 5
 63 65 l 5
 249 67 258 56 258 129 c 6
 258 675 l 6xe0
 258 704 258 738 189 738 c 4
 155 738 67 737 67 737 c 5
 68 797 l 5
 280 797 l 6
 356 797 352 819 364 857 c 5
 409 857 l 5xd0
EndSplineSet
AlternateSubs2: "'aalt' Access All Alternates lookup 0 subtable" one.sub one.sup one.denom one.numer
AlternateSubs2: "'aalt' Access All Alternates in Latin lookup 0 subtable" one.sub one.sup one.denom one.numer
Substitution2: "'subs' Subscript in Latin lookup 6 subtable" one.sub
Substitution2: "'sups' Superscript in Latin lookup 5 subtable" one.sup
Substitution2: "denominators subtable" one.denom
Substitution2: "numerators subtable" one.numer
EndChar

StartChar: two
Encoding: 50 50 88
Width: 1082
VWidth: 0
Flags: W
HStem: 0 159<336.015 709.259> 1179 132<256.691 531.002>
VStem: 612 277<781.255 1096.66>
LayerCount: 3
Fore
SplineSet
91 1061 m 0
 62 1061 52 1073 52 1102 c 0
 52 1118 60 1138 84 1162 c 0
 149 1227 300 1311 510 1311 c 0
 718 1311 889 1171 889 974 c 0
 889 813 799 677 689 537 c 0
 565 379 336 182 336 168 c 0
 336 160 356 159 376 159 c 0
 757 159 971 313 1007 313 c 0
 1017 313 1023 309 1023 294 c 0
 1023 281 940 25 919 12 c 0
 912 7 919 0 830 0 c 2
 105 0 l 2
 92 0 64 8 64 30 c 0
 64 40 82 59 105 81 c 0
 199 170 277 257 342 340 c 0
 503 546 612 756 612 945 c 0
 612 1097 523 1179 396 1179 c 0
 286 1179 205 1135 157 1099 c 0
 144 1089 110 1061 91 1061 c 0
EndSplineSet
AlternateSubs2: "'aalt' Access All Alternates lookup 0 subtable" two.sub two.sup two.denom two.numer
AlternateSubs2: "'aalt' Access All Alternates in Latin lookup 0 subtable" two.sub two.sup two.denom two.numer
Substitution2: "'subs' Subscript in Latin lookup 6 subtable" two.sub
Substitution2: "'sups' Superscript in Latin lookup 5 subtable" two.sup
Substitution2: "denominators subtable" two.denom
Substitution2: "numerators subtable" two.numer
EndChar

StartChar: three
Encoding: 51 51 89
Width: 968
VWidth: 0
Flags: W
HStem: -26 134<189.891 510.126> 1169 150<272.618 496.458>
VStem: 546 266<912.269 1117.63> 603 305<197.331 510.907>
LayerCount: 3
Fore
SplineSet
112 170 m 0xd0
 155 145 224 108 356 108 c 0
 520 108 603 216 603 332 c 0xd0
 603 433 584 542 438 613 c 0
 382 640 320 655 266 679 c 0
 245 688 240 695 240 708 c 0
 240 721 270 739 312 761 c 0
 426 822 546 890 546 1004 c 0
 546 1045 534 1088 502 1120 c 0
 468 1153 415 1169 364 1169 c 0
 273 1169 193 1112 176 1101 c 0
 158 1089 140 1077 126 1077 c 0
 102 1077 87 1095 87 1119 c 0
 87 1133 93 1150 108 1166 c 0
 159 1223 302 1319 488 1319 c 0
 655 1319 812 1226 812 1046 c 0xe0
 812 816 480 730 480 730 c 1
 480 730 908 698 908 344 c 0
 908 92 668 -26 432 -26 c 0
 305 -26 155 18 76 76 c 0
 36 105 22 132 22 153 c 0
 22 166 27 190 55 190 c 0
 68 190 86 185 112 170 c 0xd0
EndSplineSet
AlternateSubs2: "'aalt' Access All Alternates lookup 0 subtable" three.sub three.sup three.denom three.numer
AlternateSubs2: "'aalt' Access All Alternates in Latin lookup 0 subtable" three.sub three.sup three.denom three.numer
Substitution2: "'subs' Subscript in Latin lookup 6 subtable" three.sub
Substitution2: "'sups' Superscript in Latin lookup 5 subtable" three.sup
Substitution2: "denominators subtable" three.denom
Substitution2: "numerators subtable" three.numer
EndChar

StartChar: four
Encoding: 52 52 90
Width: 1136
VWidth: 0
Flags: W
HStem: 298 203<279 660 880 1012>
VStem: 660 220<-40 298 501 965>
LayerCount: 3
Fore
SplineSet
126 468 m 2
 830 1314 l 2
 843 1330 855 1339 863 1339 c 0
 874 1339 880 1324 880 1287 c 2
 880 501 l 9
 1054 501 l 25
 1012 298 l 25
 880 298 l 25
 880 -40 l 25
 660 -82 l 25
 660 298 l 17
 105 298 l 2
 67 298 59 299 59 340 c 2
 59 355 l 2
 59 389 63 393 126 468 c 2
279 501 m 9
 660 501 l 25
 660 965 l 17
 279 501 l 9
EndSplineSet
AlternateSubs2: "'aalt' Access All Alternates lookup 0 subtable" four.sub four.sup four.denom four.numer
AlternateSubs2: "'aalt' Access All Alternates in Latin lookup 0 subtable" four.sub four.sup four.denom four.numer
Substitution2: "'subs' Subscript in Latin lookup 6 subtable" four.sub
Substitution2: "'sups' Superscript in Latin lookup 5 subtable" four.sup
Substitution2: "denominators subtable" four.denom
Substitution2: "numerators subtable" four.numer
EndChar

StartChar: five
Encoding: 53 53 91
Width: 992
VWidth: 0
Flags: MW
HStem: -24 127<165.595 493.522> 739 109<209.44 441.385> 1128 153<207.406 705.877> 1365 20G<775.5 831.923>
VStem: 109 98<848.013 1127.99> 629 268<249.201 581.379>
LayerCount: 3
Fore
SplineSet
21 132 m 0
 21 162 41 174 62 174 c 0
 99 174 164 103 316 103 c 0
 552 103 629 270 629 420 c 0
 629 710 330 739 188 739 c 0
 162 739 133 739 115 737 c 1
 110 915 109 985 109 1057 c 0
 109 1235 107 1215 107 1255 c 0
 107 1276 126 1281 147 1281 c 0
 538 1281 496 1288 716 1288 c 0
 734 1288 766 1355 785 1385 c 1
 846 1359 l 1
 802 1253 780 1185 767 1149 c 0
 752 1108 753 1100 725 1100 c 0
 663 1100 273 1128 243 1128 c 0
 213 1128 207 1114 207 1065 c 0
 207 1033 209 987 209 921 c 0
 209 865 211 848 238 848 c 0
 260 848 339 862 404 862 c 0
 672 862 897 738 897 420 c 0
 897 271 765 -24 375 -24 c 0
 201 -24 21 82 21 132 c 0
EndSplineSet
Layer: 2
SplineSet
42 133 m 4
 105 133 66 56 344 56 c 4
 544 56 702 232 702 417 c 4
 702 707 412 779 248 779 c 4
 219 779 189 777 159 774 c 5
 154 927 l 6
 146 1193 133 1165 133 1229 c 4
 133 1250 142 1256 163 1256 c 4
 216 1256 369 1249 465 1249 c 4
 530 1249 598 1252 679 1264 c 4
 712 1269 715 1341 715 1341 c 5
 764 1336 l 5
 740 1168 l 6
 734 1126 723 1110 696 1110 c 4
 615 1110 319 1157 292 1157 c 4
 242 1157 219 1079 219 910 c 4
 219 847 233 847 271 847 c 4
 319 847 346 854 404 854 c 4
 672 854 870 722 870 440 c 4
 870 291 770 -19 350 -19 c 4
 89 -19 21 92 21 112 c 4
 21 129 41 133 42 133 c 4
EndSplineSet
AlternateSubs2: "'aalt' Access All Alternates lookup 0 subtable" five.sub five.sup five.denom five.numer
AlternateSubs2: "'aalt' Access All Alternates in Latin lookup 0 subtable" five.sub five.sup five.denom five.numer
Substitution2: "'subs' Subscript in Latin lookup 6 subtable" five.sub
Substitution2: "'sups' Superscript in Latin lookup 5 subtable" five.sup
Substitution2: "denominators subtable" five.denom
Substitution2: "numerators subtable" five.numer
EndChar

StartChar: six
Encoding: 54 54 92
Width: 1040
VWidth: 0
Flags: W
HStem: -33 100<437.077 637.48> 692 130<395.762 600.18> 1268 82<609.545 914.325>
VStem: 36 270<260.7 825.401> 713 249<216.773 565.862>
LayerCount: 3
Fore
SplineSet
917 1300 m 0
 917 1277 901 1268 875 1268 c 0
 857 1268 830 1271 797 1271 c 0
 749 1271 687 1265 619 1233 c 0
 398 1131 316 847 316 706 c 1
 316 706 384 822 576 822 c 0
 950 822 962 456 962 432 c 0
 962 124 739 -33 508 -33 c 0
 327 -33 36 62 36 534 c 0
 36 774 122 1026 294 1185 c 0
 403 1286 558 1350 724 1350 c 0
 764 1350 917 1350 917 1300 c 0
306 492 m 0
 306 213 431 67 543 67 c 0
 632 67 713 161 713 355 c 0
 713 592 597 692 488 692 c 0
 394 692 306 645 306 492 c 0
EndSplineSet
AlternateSubs2: "'aalt' Access All Alternates lookup 0 subtable" six.sub six.sup six.denom six.numer
AlternateSubs2: "'aalt' Access All Alternates in Latin lookup 0 subtable" six.sub six.sup six.denom six.numer
Substitution2: "'subs' Subscript in Latin lookup 6 subtable" six.sub
Substitution2: "'sups' Superscript in Latin lookup 5 subtable" six.sup
Substitution2: "denominators subtable" six.denom
Substitution2: "numerators subtable" six.numer
EndChar

StartChar: seven
Encoding: 55 55 93
Width: 1048
VWidth: 0
Flags: MW
HStem: -5 21G<364.5 532.5> 1076 200<124.151 289.641> 1161 115<268.254 747.985>
VStem: 748 92<957.953 1263.5>
LayerCount: 3
Fore
SplineSet
95 1048 m 0xd0
 95 1080 112 1206 124 1263 c 0
 127 1276 144 1291 165 1291 c 2xd0
 854 1291 l 2
 882 1291 890 1278 890 1252 c 0
 890 1232 879 1133 869 1054 c 0
 843 850 789 504 680 90 c 0
 656 -1 637 -20 608 -20 c 2
 440 -20 l 2
 429 -20 398 -13 398 19 c 0
 398 33 404 52 420 77 c 0
 567 301 766 903 766 1113 c 0
 766 1131 748 1133 727 1133 c 0
 568 1133 387 1097 330 1081 c 0
 204 1045 134 1009 118 1009 c 0
 102 1009 95 1016 95 1048 c 0xd0
EndSplineSet
AlternateSubs2: "'aalt' Access All Alternates lookup 0 subtable" seven.sub seven.sup seven.denom seven.numer
AlternateSubs2: "'aalt' Access All Alternates in Latin lookup 0 subtable" seven.sub seven.sup seven.denom seven.numer
Substitution2: "'subs' Subscript in Latin lookup 6 subtable" seven.sub
Substitution2: "'sups' Superscript in Latin lookup 5 subtable" seven.sup
Substitution2: "denominators subtable" seven.denom
Substitution2: "numerators subtable" seven.numer
EndChar

StartChar: eight
Encoding: 56 56 94
Width: 1023
VWidth: 0
Flags: W
HStem: -40 114<356.735 639.961> 1258 80<375.902 651.775>
VStem: 51 185<193.777 445.306> 99 219<973.977 1159.59> 742 223<199.523 418.384> 742 167<898.668 1174.6>
LayerCount: 3
Fore
SplineSet
51 288 m 0xe8
 51 545 343 649 343 649 c 1
 307 672 99 793 99 1005 c 0
 99 1209 290 1338 521 1338 c 0
 706 1338 909 1233 909 1041 c 0xd4
 909 831 668 747 668 747 c 1
 720 716 l 2
 779 681 965 586 965 369 c 0
 965 163 781 -40 499 -40 c 0
 262 -40 51 91 51 288 c 0xe8
498 74 m 0
 656 74 742 199 742 302 c 0
 742 423 623 485 552 527 c 2
 420 605 l 1
 413 600 236 519 236 346 c 0xe8
 236 223 323 74 498 74 c 0
318 1111 m 0xd4
 318 940 498 847 598 787 c 1
 598 787 742 846 742 1031 c 0
 742 1163 658 1258 526 1258 c 0
 341 1258 318 1147 318 1111 c 0xd4
EndSplineSet
AlternateSubs2: "'aalt' Access All Alternates lookup 0 subtable" eight.sub eight.sup eight.denom eight.numer
AlternateSubs2: "'aalt' Access All Alternates in Latin lookup 0 subtable" eight.sub eight.sup eight.denom eight.numer
Substitution2: "'subs' Subscript in Latin lookup 6 subtable" eight.sub
Substitution2: "'sups' Superscript in Latin lookup 5 subtable" eight.sup
Substitution2: "denominators subtable" eight.denom
Substitution2: "numerators subtable" eight.numer
EndChar

StartChar: nine
Encoding: 57 57 95
Width: 1077
VWidth: 0
Flags: W
HStem: -27 139<223.25 554.918> 419 141<338.5 642.17> 1233 93<405.714 625.152>
VStem: 95 232<733.067 1071.42> 763 260<376.591 988.125>
LayerCount: 3
Fore
SplineSet
56 167 m 0
 56 187 66 198 82 198 c 0
 104 198 121 182 146 165 c 0
 202 126 278 112 352 112 c 0
 561 112 755 206 755 563 c 1
 732 517 627 419 456 419 c 0
 221 419 95 636 95 856 c 0
 95 1088 233 1326 545 1326 c 0
 782 1326 1023 1141 1023 699 c 0
 1023 347 894 -27 423 -27 c 0
 234 -27 56 102 56 167 c 0
509 1233 m 0
 384 1233 327 1104 327 959 c 0
 327 712 458 560 579 560 c 0
 706 560 763 690 763 835 c 0
 763 1021 669 1233 509 1233 c 0
EndSplineSet
AlternateSubs2: "'aalt' Access All Alternates lookup 0 subtable" nine.sub nine.sup nine.denom nine.numer
AlternateSubs2: "'aalt' Access All Alternates in Latin lookup 0 subtable" nine.sub nine.sup nine.denom nine.numer
Substitution2: "'subs' Subscript in Latin lookup 6 subtable" nine.sub
Substitution2: "'sups' Superscript in Latin lookup 5 subtable" nine.sup
Substitution2: "denominators subtable" nine.denom
Substitution2: "numerators subtable" nine.numer
EndChar

StartChar: dollar
Encoding: 36 36 96
Width: 1158
VWidth: 0
Flags: W
HStem: -33 106<306.804 496 586 711.151> 1210 86<369.901 496 588 733.313>
VStem: 68 224<932.407 1116.89> 496 90<-366 -33 80 521 837 1210 1296 1462> 828 216<202.538 398.157>
LayerCount: 3
Fore
SplineSet
60 337 m 0
 60 356 70 370 87 370 c 0
 103 370 125 352 145 317 c 0
 238 152 309 73 474 73 c 2
 496 73 l 1
 496 547 l 1
 312 636 l 2
 182 699 68 790 68 956 c 0
 68 1294 496 1296 496 1296 c 1
 496 1463 l 1
 588 1462 l 1
 588 1294 l 1
 671 1285 744 1267 818 1267 c 2
 910 1268 l 2
 929 1268 941 1265 954 1240 c 0
 966 1216 999 991 999 982 c 0
 999 958 992 947 972 947 c 0
 961 947 958 952 944 972 c 0
 857 1100 743 1198 586 1210 c 1
 586 802 l 1
 586 802 708 748 822 692 c 0
 947 630 1044 516 1044 370 c 0
 1044 22 586 -27 586 -27 c 1
 586 -366 l 1
 486 -366 l 1
 496 -33 l 1
 481 -33 l 2
 437 -33 305 -31 196 -2 c 0
 116 20 107 73 91 149 c 0
 71 243 60 303 60 337 c 0
496 837 m 1
 496 1210 l 1
 496 1210 292 1203 292 1029 c 0
 292 900 495 838 496 837 c 1
586 521 m 1
 586 80 l 1
 586 80 828 97 828 306 c 0
 828 436 586 521 586 521 c 1
EndSplineSet
EndChar

StartChar: zero.denom
Encoding: 65560 -1 107
Width: 943
VWidth: 0
Flags: HW
HStem: -29 103<368.698 609.309> 805 97<339.56 580.581>
VStem: 63 162<249.9 652.158> 717 173<230.102 636.239>
LayerCount: 3
Fore
SplineSet
63 458 m 0
 63 703 251 902 467 902 c 0
 753 902 890 676 890 447 c 0
 890 139 674 -29 463 -29 c 0
 261 -29 63 125 63 458 c 0
460 805 m 0
 332 805 225 678 225 470 c 0
 225 211 364 74 493 74 c 0
 617 74 717 193 717 409 c 0
 717 627 614 805 460 805 c 0
EndSplineSet
EndChar

StartChar: one.denom
Encoding: 65561 -1 108
Width: 568
VWidth: 0
Flags: HW
HStem: 0 74<36 196.978 357.057 547> 789 74<46 196.993>
VStem: 197 160<76.9079 786.51>
LayerCount: 3
Fore
SplineSet
371 920 m 1
 369 887 357 722 357 591 c 2
 357 125 l 2
 357 66 363 76 547 74 c 1
 547 0 l 1
 36 0 l 1
 36 74 l 1
 191 75 197 68 197 124 c 2
 197 749 l 2
 197 785 195 789 145 789 c 2
 45 789 l 1
 46 863 l 1
 242 863 l 2
 297 863 300 885 318 921 c 1
 371 920 l 1
EndSplineSet
EndChar

StartChar: two.denom
Encoding: 65562 -1 109
Width: 879
VWidth: 0
Flags: W
HStem: 0 104<299 693.753> 779 119<222.679 497.915>
VStem: 550 201<493.998 726.319>
LayerCount: 3
Fore
SplineSet
299 104 m 1
 618 111 659 142 793 177 c 0
 799 179 802 174 802 166 c 0
 800 143 793 119 787 94 c 0
 768 18 760 0 745 -0 c 2
 150 0 l 2
 118 0 97 9 97 24 c 0
 97 28 99 33 102 38 c 0
 132 84 550 383 550 620 c 0
 550 757 412 779 359 779 c 0
 195 778 206 706 163 706 c 0
 146 706 130 712 130 738 c 0
 130 810 240 898 424 898 c 0
 637 898 751 782 751 633 c 0
 751 403 385 172 299 104 c 1
EndSplineSet
EndChar

StartChar: three.denom
Encoding: 65563 -1 110
Width: 812
VWidth: 0
Flags: W
HStem: -23 102<117.308 489.914> 439 86<243.427 427.537> 784 118<190.435 443.42>
VStem: 480 194<591.132 746.227> 560 190<145.107 353.338>
LayerCount: 3
Fore
SplineSet
46 93 m 0xe8
 46 123 73 131 87 131 c 0
 125 131 166 79 319 79 c 0
 530 79 560 197 560 256 c 0xe8
 560 329 479 422 344 439 c 0
 290 446 243 444 243 477 c 0
 243 512 280 517 329 525 c 0
 465 549 480 640 480 672 c 0
 480 712 428 784 318 784 c 0
 180 784 178 715 131 715 c 0
 110 715 97 732 97 752 c 0
 97 801 193 902 382 902 c 0
 531 902 674 837 674 704 c 0xf0
 674 585 554 521 476 493 c 1
 627 461 750 386 750 252 c 0
 750 60 555 -23 344 -23 c 0
 210 -23 46 23 46 93 c 0xe8
EndSplineSet
EndChar

StartChar: four.denom
Encoding: 65564 -1 111
Width: 898
VWidth: 0
Flags: HW
HStem: -20 21G<539 708> 230 145<274 539 708 837>
VStem: 539 169<-20 230 375 659>
LayerCount: 3
Back
SplineSet
99 230 m 2
 72 230 63 239 63 253 c 0
 63 258 64 263 66 269 c 0
 84 317 190 390 646 889 c 0
 662 906 668 910 682 910 c 0
 706 910 708 881 708 860 c 2
 708 375 l 1
 878 375 l 1
 837 230 l 1
 708 230 l 1
 708 -20 l 1
 539 -20 l 5
 539 230 l 5
 99 230 l 2
539 659 m 5
 274 375 l 1
 539 375 l 5
 539 659 l 5
EndSplineSet
Fore
SplineSet
99 230 m 2
 72 230 63 239 63 253 c 0
 63 258 64 263 66 269 c 0
 84 317 190 390 646 889 c 0
 662 906 668 910 682 910 c 0
 706 910 708 881 708 860 c 2
 708 375 l 1
 878 375 l 1
 837 230 l 1
 708 230 l 1
 708 -20 l 1
 549 -20 l 1
 549 230 l 1
 99 230 l 2
549 670 m 1
 274 375 l 1
 549 375 l 1
 549 670 l 1
EndSplineSet
EndChar

StartChar: five.denom
Encoding: 65565 -1 112
Width: 791
VWidth: 0
Flags: HW
LayerCount: 3
Fore
SplineSet
36 102 m 0
 37 121 52 139 74 139 c 0
 95 139 109 118 154 102 c 0
 184 91 220 84 258 84 c 0
 389 84 543 140 543 294 c 0
 543 464 315 507 195 507 c 0
 169 507 133 504 108 500 c 1
 106 531 99 720 99 815 c 0
 99 856 101 882 137 882 c 0
 177 882 288 876 370 876 c 0
 418 876 469 879 520 883 c 0
 557 886 563 907 570 940 c 1
 630 936 l 1
 611 791 l 2
 608 775 606 733 564 733 c 0
 503 733 258 763 242 763 c 0
 224 763 205 740 205 630 c 0
 205 613 205 609 207 605 c 0
 208 605 211 604 224 604 c 0
 258 604 278 610 331 610 c 0
 537 610 729 516 729 312 c 0
 729 202 627 -17 306 -17 c 0
 154 -17 83 29 54 65 c 0
 41 80 36 95 36 102 c 0
EndSplineSet
EndChar

StartChar: six.denom
Encoding: 65566 -1 113
Width: 891
VWidth: 0
Flags: HW
HStem: -20 95<368.422 600.664> 482 106<345.257 563.77> 812 99<479.859 754.172>
VStem: 73 185<186.177 508.346> 658 165<143.653 389.291>
LayerCount: 3
Back
SplineSet
73 393 m 4
 73 679 322 911 612 911 c 4
 675 911 770 882 770 837 c 4
 770 813 749 801 733 801 c 4
 724 801 692 812 643 812 c 4
 599 812 542 804 474 770 c 4
 378 723 286 633 247 484 c 5
 316 558 419 587 485 587 c 4
 803 587 823 330 823 308 c 4
 823 97 652 -20 462 -20 c 4
 204 -20 73 165 73 393 c 4
258 326 m 4
 258 197 364 75 489 75 c 4
 575 75 658 139 658 247 c 4
 658 380 559 462 436 462 c 4
 333 462 258 390 258 326 c 4
EndSplineSet
Fore
SplineSet
73 393 m 0
 73 679 322 911 612 911 c 0
 675 911 770 882 770 837 c 0
 770 813 749 801 733 801 c 0
 724 801 692 812 643 812 c 0
 465 812 284 671 240 452 c 1
 309 534 376 588 507 588 c 0
 715 588 823 426 823 308 c 0
 823 97 652 -20 462 -20 c 0
 204 -20 73 165 73 393 c 0
258 326 m 0
 258 197 364 75 489 75 c 0
 575 75 658 139 658 247 c 0
 658 380 559 482 436 482 c 0
 333 482 258 390 258 326 c 0
EndSplineSet
EndChar

StartChar: seven.denom
Encoding: 65567 -1 114
Width: 764
VWidth: 0
Flags: MW
HStem: -14 21G<274.5 421.5> 752 134<208.261 551.997>
VStem: 552 132<623.815 865.5>
LayerCount: 3
Fore
SplineSet
140 886 m 2
 651 886 l 2
 675 886 684 875 684 856 c 0
 684 731 553 318 526 240 c 2
 467 64 l 2
 442 -10 434 -14 409 -14 c 2
 291 -14 l 2
 258 -14 250 0 250 17 c 0
 250 28 258 39 267 51 c 0
 342 156 378 218 464 438 c 0
 522 586 552 717 552 747 c 0
 552 752 548 752 530 752 c 0
 318 749 104 679 101 679 c 0
 84 679 76 690 76 726 c 0
 76 757 82 811 93 862 c 0
 97 880 108 886 140 886 c 2
EndSplineSet
EndChar

StartChar: eight.denom
Encoding: 65568 -1 115
Width: 832
VWidth: 0
Flags: W
HStem: -24 90<267.598 542.422> 821 93<288.089 533.549>
VStem: 57 143<131.06 332.248> 100 162<606.083 794.51> 578 126<576.334 775.696> 587 168<107.152 313.616>
LayerCount: 3
Fore
SplineSet
57 208 m 0xe4
 57 353 208 425 272 453 c 1
 160 514 100 592 100 683 c 0
 100 821 229 914 420 914 c 0
 568 914 704 821 704 701 c 0xd8
 704 580 598 514 544 488 c 1
 614 454 755 376 755 244 c 0
 755 101 632 -24 406 -24 c 0
 173 -24 57 87 57 208 c 0xe4
200 234 m 0xe4
 200 143 286 66 408 66 c 0
 557 66 587 156 587 209 c 0
 587 317 492 360 347 430 c 1
 304 409 200 336 200 234 c 0xe4
262 702 m 0xd8
 262 592 415 534 455 520 c 1
 483 530 578 577 578 672 c 0
 578 777 488 821 400 821 c 0
 287 821 262 751 262 702 c 0xd8
EndSplineSet
EndChar

StartChar: nine.denom
Encoding: 65569 -1 116
Width: 845
VWidth: 0
Flags: W
HStem: -7 113<139.092 472.857> 296 105<302.605 550.741> 829 88<278.15 491.445>
VStem: 56 166<486.29 760.39> 605 187<354.739 701.75>
LayerCount: 3
Back
SplineSet
381.918321886 829 m 4
 327.654988463 829 222 789.092773438 222 636.05859375 c 4
 222 582.223632812 251.159179688 419 450.271765361 419 c 4
 557.795898438 419 605 471.657226562 605 536.694335938 c 4
 605 688.678710938 506.062593541 829 381.918321886 829 c 4
55 590.876953125 m 4
 55 754.830078125 178.427734375 917 391.032114349 917 c 4
 637.709960938 917 792 746.413085938 792 486.961914062 c 4
 792 124.6015625 539.531750336 -7 311.286430295 -7 c 4
 153.278320312 -7 61 66.7529296875 61 125 c 4
 61 148.400390625 75.400390625 164 97 164 c 4
 145.630859375 164 162.612304688 104 290 104 c 4
 526.419548435 104 616.006835938 279.865234375 626.013671875 399.017578125 c 5
 587.01171875 358.41796875 499.716759531 296 347.741600149 296 c 4
 169.799804688 296 55 433.654296875 55 590.876953125 c 4
EndSplineSet
Fore
SplineSet
382 829 m 0
 328 829 222 789 222 636 c 0
 222 483 320 401 427 401 c 0
 485 401 605 428 605 537 c 0
 605 689 506 829 382 829 c 0
61 122 m 0
 62 144 75 162 99 163 c 0
 112 163 131 156 145 147 c 0
 182 123 241 106 305 106 c 0
 489 106 616 241 626 404 c 1
 567 331 477 296 351 296 c 0
 201 296 56 399 56 595 c 0
 56 754 169 917 391 917 c 0
 638 917 792 746 792 487 c 0
 792 146 559 -7 320 -7 c 0
 183 -7 100 39 71 89 c 0
 64 100 61 109 61 122 c 0
EndSplineSet
EndChar

StartChar: slash
Encoding: 47 47 137
Width: 911
VWidth: 1000
Flags: W
LayerCount: 3
Fore
SplineSet
11 -473 m 1
 750 1445 l 1
 877 1445 l 1
 138 -473 l 1
 11 -473 l 1
EndSplineSet
Layer: 2
SplineSet
-10 -530 m 1
 733.918945312 1484 l 1
 860.84375 1484 l 1
 116.924804688 -530 l 1
 -10 -530 l 1
EndSplineSet
AlternateSubs2: "'aalt' Access All Alternates lookup 0 subtable" fraction
AlternateSubs2: "'aalt' Access All Alternates in Latin lookup 0 subtable" fraction
Substitution2: "numerators subtable" fraction
EndChar

StartChar: fraction
Encoding: 8260 8260 138
Width: 911
VWidth: 1000
Flags: W
LayerCount: 3
Fore
SplineSet
-83 -86 m 1
 1022 1420 l 1
 1116 1356 l 1
 11 -152 l 1
 -83 -86 l 1
EndSplineSet
EndChar

StartChar: bar
Encoding: 124 124 139
Width: 881
VWidth: 1000
Flags: W
VStem: 372 120<-473 1445>
LayerCount: 3
Fore
SplineSet
372 -473 m 1
 372 1445 l 1
 492 1445 l 1
 492 -473 l 1
 372 -473 l 1
EndSplineSet
EndChar

StartChar: at
Encoding: 64 64 140
Width: 1506
VWidth: 0
Flags: W
HStem: -213 107<519.167 987.043> 100 131<514.5 730.413> 516 76<677.696 804> 922 98<466.493 754.2>
VStem: 54 165<190.61 639.279> 388 197<249.096 397.173> 804 191<277.361 516 592 874.489> 1296 106<200.063 675>
LayerCount: 3
Fore
SplineSet
678 1020 m 0
 882 1020 1008 882 1008 722 c 0
 1008 596 995 502 995 407 c 0
 995 200 1152 276 1152 229 c 0
 1152 187 980 82 971 82 c 0
 933 82 858 150 821 234 c 1
 766 128 621 100 584 100 c 0
 445 100 388 174 388 262 c 0
 388 511 756 590 804 592 c 1
 804 701 l 2
 804 774 804 922 640 922 c 0
 357 922 219 647 219 416 c 0
 219 156 382 -106 754 -106 c 0
 1026 -106 1296 56 1296 438 c 0
 1296 817 1018 923 1018 961 c 0
 1018 968 1021 984 1038 984 c 0
 1081 984 1402 862 1402 440 c 0
 1402 -12 1062 -213 719 -213 c 0
 268 -213 54 95 54 403 c 0
 54 711 268 1020 678 1020 c 0
585 336 m 0
 585 250 656 231 696 231 c 0
 752 231 804 276 804 344 c 2
 804 516 l 1
 668 516 585 414 585 336 c 0
EndSplineSet
EndChar

StartChar: parenleft
Encoding: 40 40 141
Width: 724
VWidth: 0
Flags: HW
VStem: 82 178<168.826 794.496>
LayerCount: 3
Fore
SplineSet
82 473 m 0
 82 1156 572 1445 583 1451 c 1
 633 1387 l 1
 577 1343 260 1060 260 482 c 0
 260 -132 598 -409 611 -419 c 1
 557 -487 l 1
 554 -484 82 -116 82 473 c 0
EndSplineSet
Layer: 2
SplineSet
92 468 m 0
 92 1122 576 1405 576 1405 c 1
 609 1367 l 1
 609 1367 230 1071 230 477 c 0
 230 -137 587 -410 587 -410 c 1
 551 -452 l 1
 551 -452 92 -93 92 468 c 0
EndSplineSet
EndChar

StartChar: parenright
Encoding: 41 41 142
Width: 724
VWidth: 0
Flags: W
VStem: 455 178<168.826 794.496>
LayerCount: 3
Fore
SplineSet
633 473 m 0
 633 -116 161 -484 158 -487 c 1
 104 -419 l 1
 117 -409 455 -132 455 482 c 0
 455 1060 138 1343 82 1387 c 1
 132 1451 l 1
 143 1445 633 1156 633 473 c 0
EndSplineSet
Layer: 2
SplineSet
92 1367 m 1
 125 1405 l 1
 125 1405 609 1122 609 468 c 0
 609 -93 150 -452 150 -452 c 1
 114 -410 l 1
 114 -410 471 -137 471 477 c 0
 471 1071 92 1367 92 1367 c 1
EndSplineSet
EndChar

StartChar: asterisk
Encoding: 42 42 143
Width: 944
VWidth: 0
Flags: MW
LayerCount: 3
Fore
SplineSet
78 764 m 0
 78 881 390 885 390 925 c 0
 390 968 78 936 78 1076 c 0
 78 1134 129 1183 177 1183 c 0
 247 1183 381 998 430 998 c 0
 432 998 433 1007 433 1012 c 0
 433 1072 357 1213 357 1250 c 0
 357 1313 400 1361 465 1361 c 0
 526 1361 574 1325 574 1239 c 0
 574 1190 508 1063 508 1003 c 0
 508 993 509 990 511 990 c 0
 552 990 666 1179 757 1179 c 0
 838 1179 855 1107 855 1089 c 0
 854 944 546 962 546 925 c 0
 546 884 839 897 839 761 c 0
 839 722 810 663 754 663 c 0
 658 663 546 853 505 853 c 0
 501 853 500 844 500 837 c 0
 500 783 568 664 568 610 c 0
 568 578 550 514 466 514 c 0
 382 514 358 576 358 605 c 0
 358 639 428 801 428 842 c 0
 428 848 427 852 423 852 c 0
 390 852 261 664 169 664 c 0
 106 664 78 733 78 764 c 0
EndSplineSet
Layer: 2
SplineSet
78 764 m 4xa0
 78 881 390 885 390 925 c 4
 390 968 78 936 78 1076 c 4
 78 1134 129 1183 177 1183 c 4
 247 1183 381 998 430 998 c 4
 432 998 433 1007 433 1012 c 4
 433 1072 357 1213 357 1250 c 4
 357 1313 400 1361 465 1361 c 4
 526 1361 574 1325 574 1239 c 4
 574 1190 508 1063 508 1003 c 4
 508 993 509 990 511 990 c 4
 552 990 666 1179 757 1179 c 4
 838 1179 855 1107 855 1089 c 4
 854 944 546 962 546 925 c 4
 546 884 839 897 839 761 c 4
 839 722 810 663 754 663 c 4
 658 663 546 853 505 853 c 4
 501 853 500 844 500 837 c 4xa0
 500 783 568 664 568 610 c 4
 568 556 526 514 475 514 c 4
 472 514 469 515 466 515 c 4
 463 515 460 514 457 514 c 4
 408 514 358 555 358 605 c 4xc0
 358 639 428 801 428 842 c 4
 428 848 427 852 423 852 c 4
 390 852 261 664 169 664 c 4
 106 664 78 733 78 764 c 4xa0
EndSplineSet
EndChar

StartChar: bracketleft
Encoding: 91 91 144
Width: 850
VWidth: 0
Flags: HW
HStem: -488 90<324 650> 1370 90<324 650>
VStem: 168 156<-398 1370>
LayerCount: 3
Fore
SplineSet
168 -488 m 1
 168 1460 l 1
 650 1460 l 1
 650 1370 l 1
 324 1370 l 1
 324 -398 l 1
 650 -398 l 1
 650 -488 l 1
 168 -488 l 1
EndSplineSet
EndChar

StartChar: backslash
Encoding: 92 92 145
Width: 911
VWidth: 1000
Flags: HW
LayerCount: 3
Fore
SplineSet
11 1445 m 1
 138 1445 l 1
 877 -473 l 1
 750 -473 l 1
 11 1445 l 1
EndSplineSet
EndChar

StartChar: bracketright
Encoding: 93 93 146
Width: 858
VWidth: 0
Flags: HW
HStem: -488 90<168 494> 1370 90<168 494>
VStem: 494 156<-398 1370>
LayerCount: 3
Fore
SplineSet
168 -398 m 1
 494 -398 l 1
 494 1370 l 1
 168 1370 l 1
 168 1460 l 1
 650 1460 l 1
 650 -488 l 1
 168 -488 l 1
 168 -398 l 1
EndSplineSet
EndChar

StartChar: plus
Encoding: 43 43 147
Width: 1728
VWidth: 0
Flags: W
HStem: 406 150<222 787.21 922.85 1488>
VStem: 780 150<-152 413.572 548.477 1114>
LayerCount: 3
Fore
SplineSet
222 406 m 1
 222 556 l 1
 237 556 l 2
 610.115234375 555.9140625 742.650390625 551.302734375 787.209960938 548.4765625 c 1
 784.413085938 588.551757812 780 711.260742188 780 1099 c 2
 780 1114 l 1
 930 1114 l 1
 930 1099 l 2
 929.921875 737.065429688 926.170898438 596.280273438 922.849609375 548.427734375 c 1
 964.987304688 551.05078125 1094.4765625 556 1473 556 c 2
 1488 556 l 1
 1488 406 l 1
 1473 406 l 2
 1100.35449219 406.0859375 966.869140625 410.802734375 922.395507812 413.592773438 c 1
 925.009765625 371.99609375 930 243.0703125 930 -137 c 2
 930 -152 l 1
 780 -152 l 1
 780 -137 l 2
 780.0859375 235.552734375 784.796875 369.065429688 787.586914062 413.572265625 c 1
 746.166992188 410.94140625 617.959960938 406 237 406 c 2
 222 406 l 1
EndSplineSet
Validated: 1
EndChar

StartChar: braceright
Encoding: 125 125 148
Width: 661
VWidth: 1000
Flags: HW
HStem: -478 70<70 193.717> 459 62<498.962 606> 1386 69<70 195.921>
VStem: 282 161<-296.125 420.75 560.783 1274.14>
LayerCount: 3
Fore
SplineSet
435 201 m 0
 435 126 443 42 443 -49 c 0
 443 -433 228 -478 85 -478 c 2
 70 -478 l 1
 70 -408 l 1
 85 -408 l 2
 269 -408 282 -226 282 -59 c 0
 282 53 273 145 273 234 c 0
 273 356 303 445 388 492 c 1
 303 538 272 624 272 753 c 0
 272 846 281 939 281 1053 c 0
 281 1219 269 1386 85 1386 c 2
 70 1386 l 1
 70 1455 l 1
 85 1455 l 2
 347 1455 443 1274 443 1040 c 0
 443 946 436 860 436 786 c 0
 439 521 505 544 606 521 c 1
 606 459 l 1
 513 435 438 467 435 201 c 0
EndSplineSet
EndChar

StartChar: percent
Encoding: 37 37 149
Width: 1843
VWidth: 0
Flags: HW
LayerCount: 3
Fore
SplineSet
192 -52 m 0
 192 -39 202 -26 215 -13 c 2
 1425 1232 l 1
 1345 1203 1210 1167 1036 1167 c 0
 997 1167 956 1169 913 1174 c 1
 935 1130 940 1083 940 1044 c 0
 940 806 718 612 493 612 c 0
 321 612 235 728 235 862 c 0
 235 1113 502 1284 690 1284 c 0
 786 1284 792 1251 1033 1251 c 0
 1349 1251 1580 1364 1641 1364 c 0
 1665 1364 1671 1349 1671 1339 c 0
 1671 1326 1667 1309 1631 1273 c 2
 312 -82 l 1
 243 -82 l 2
 198 -82 192 -64 192 -52 c 0
353 813 m 0
 353 768 379 725 444 725 c 0
 628 725 808 978 808 1110 c 0
 808 1156 771 1186 720 1186 c 0
 588 1186 353 951 353 813 c 0
898 219 m 0
 898 476 1172 650 1360 650 c 0
 1492 650 1604 573 1604 395 c 0
 1604 157 1387 -37 1163 -37 c 0
 986 -37 898 82 898 219 c 0
1020 165 m 0
 1020 120 1047 76 1115 76 c 0
 1299 76 1477 330 1477 462 c 0
 1477 507 1440 537 1389 537 c 0
 1257 537 1020 303 1020 165 c 0
EndSplineSet
Layer: 2
SplineSet
192 -67 m 4x9680
 192 -61 196 -53 211 -37 c 6
 1441 1275 l 5
 1396 1252 1237 1182 1003 1182 c 4x9680
 957 1182 908 1186 856 1193 c 5
 881 1155 895 1107 895 1044 c 4
 895 815 686 627 476 627 c 4
 313 627 235 739 235 867 c 4
 235 1113 491 1282 667 1282 c 4xae80
 759 1282 765 1249 1000 1249 c 4
 1308 1249 1539 1364 1596 1364 c 4
 1604 1364 1611 1362 1611 1353 c 4
 1611 1339 1594 1316 1575 1296 c 6
 290 -82 l 5
 228 -82 l 6
 207 -82 192 -79 192 -67 c 4x9680
323 813 m 4
 323 760 356 710 429 710 c 4
 616 710 797 970 797 1110 c 4
 797 1164 754 1201 696 1201 c 4xae80
 559 1201 323 959 323 813 c 4
884 219 m 4xc580
 884 466 1141 635 1317 635 c 4
 1441 635 1544 562 1544 395 c 4
 1544 166 1336 -22 1126 -22 c 4
 962 -22 884 91 884 219 c 4xc580
972 165 m 4
 972 112 1005 61 1079 61 c 4
 1266 61 1447 322 1447 462 c 4
 1447 516 1403 552 1345 552 c 4
 1208 552 972 311 972 165 c 4
EndSplineSet
EndChar

StartChar: sterling
Encoding: 163 163 150
Width: 1162
VWidth: 0
Flags: W
HStem: -45 112<773.826 910.939> 491 101<186 404 593 850> 1257 97<658.074 837.79>
VStem: 388 215<595.166 1078.36> 854 194<1063.55 1246.26> 918 124<69.9976 216.404>
LayerCount: 3
Fore
SplineSet
166 47 m 0xf4
 166 162 325 205 382 242 c 1
 405 269 420 373 420 442 c 0
 420 443 416 469 414 491 c 1
 186 491 l 1
 186 592 l 1
 404 592 l 1
 398 659 388 761 388 802 c 0
 388 1171 570 1354 809 1354 c 0
 929 1354 1048 1268 1048 1153 c 0
 1048 1090 1006 1042 955 1042 c 0
 911 1042 871 1070 854 1153 c 0xf8
 843 1209 836 1257 759 1257 c 0
 695 1257 598 1208 598 1050 c 0
 598 997 603 907 603 733 c 0
 603 685 599 634 593 592 c 1
 850 592 l 1
 850 491 l 1
 575 491 l 1
 550 388 514 306 494 267 c 1
 689 265 760 67 860 67 c 0
 892 67 918 102 918 142 c 0
 918 201 836 220 836 295 c 0
 836 337 868 385 915 385 c 0
 995 385 1042 281 1042 201 c 0
 1042 71 934 -45 780 -45 c 0
 630 -45 592 45 522 128 c 0
 484 173 461 186 446 186 c 0
 392 186 381 -42 250 -42 c 0
 201 -42 166 1 166 47 c 0xf4
EndSplineSet
Layer: 2
SplineSet
166 45 m 0xfa
 166 154 320.338569551 195.527549679 377 236 c 0
 418.338569551 265.527549679 434 380 434 437 c 0
 434 441 430 463 426 493 c 1
 186 493 l 1
 186 590 l 1
 414 590 l 1
 402 674 388 771 388 813 c 0
 388 1181 599 1358 869 1358 c 0
 1016 1358 1155 1274 1155 1167 c 0
 1155 1108 1100 1068 1038 1068 c 0
 984 1068 931 1091 909 1165 c 1xfc
 897 1221 888 1278 801 1278 c 0
 736 1278 637 1224 637 1056 c 0
 637 1002 643 914 643 740 c 0
 643 686 635 636 626 590 c 1
 875 590 l 1
 875 493 l 1
 607 493 l 1
 557 346 474 254 474 254 c 1
 474 254 486 261 503 261 c 0
 714 261 787 62 917 62 c 0
 970 62 1005 106 1005 149 c 0
 1005 214 891 233 891 298 c 0
 891 331 927 371 984 371 c 0
 1078 371 1146 280 1146 199 c 0
 1146 75 1026 -36 852 -36 c 0
 696 -36 658 49 579 135 c 0
 538 180 507 200 481 200 c 0
 397 200 396 -32 249 -32 c 0
 201 -32 166 4 166 45 c 0xfa
367.12890625 242.463867188 m 1
 390.073242188 269.614257812 404 372.75390625 404 442 c 0
 404 442.65625 401.596679688 466.947265625 399.387695312 489 c 1
 171 489 l 1
 171 594 l 1
 388.5078125 594 l 1
 382.053710938 662.166992188 373 764.399414062 373 806 c 0
 373 1182.79101562 542.981445312 1369 764 1369 c 0
 884.426757812 1369 1003 1282.8671875 1003 1168 c 0
 1003 1104.7109375 961.0546875 1057 910 1057 c 0
 866.497070312 1057 826.095703125 1085.15332031 809.302734375 1168.00292969 c 0
 797.86371221 1224.43836598 790.857421875 1272 717 1272 c 0
 657.799804688 1272 569 1221.27539062 569 1060 c 0
 569 1005.64160156 573 914.165039062 573 736 c 0
 573 686.659179688 569.044921875 636.856445312 563.961914062 594 c 1
 805 594 l 1
 805 489 l 1
 546.107421875 489 l 1
 523.200195312 385.5703125 490.949216203 305.800370046 472.501392566 266.987388604 c 1
 652.802552211 265.168329473 717.877511748 66.9999890365 815 67 c 0
 847.26953125 67 873 102.162109375 873 142 c 0
 873 201.287109375 791 219.934570312 791 295 c 0
 791 336.924804688 822.599609375 385 870 385 c 0
 949.921875 385 997 281.048828125 997 201 c 0
 997 70.69140625 889.80859375 -45 737 -45 c 0
 598.682617188 -45 563.135376904 44.612782193 498.16796875 127.780273438 c 0
 463.168945312 172.583984375 442.026367188 186 428 186 c 0
 376.130859375 186 365.727539062 -42 235 -42 c 0
 185.599609375 -42 151 0.8505859375 151 47 c 0
 151 161.87890625 309.802734375 205.388671875 367.12890625 242.463867188 c 1
1166 47 m 4xfa
 1166 152 1320 193 1377 231 c 5
 1407 263 1419 382 1419 442 c 4
 1419 446 1416 469 1413 501 c 5
 1186 501 l 5
 1186 582 l 5
 1405 582 l 5
 1397 666 1388 764 1388 806 c 4
 1388 1176 1553 1354 1764 1354 c 4
 1879 1354 1988 1272 1988 1168 c 4
 1988 1111 1951 1072 1910 1072 c 4
 1874 1072 1839 1095 1824 1171 c 4xfc
 1812 1228 1803 1287 1717 1287 c 4
 1652 1287 1554 1232 1554 1060 c 4
 1554 1005 1558 914 1558 736 c 4
 1558 681 1553 629 1547 582 c 5
 1790 582 l 5
 1790 501 l 5
 1534 501 l 5
 1501 344 1445 246 1445 246 c 5
 1445 246 1456 252 1470 252 c 4
 1646 252 1707 52 1815 52 c 4
 1859 52 1888 98 1888 142 c 4
 1888 209 1806 228 1806 295 c 4
 1806 329 1831 370 1870 370 c 4
 1935 370 1982 281 1982 201 c 4
 1982 79 1882 -30 1737 -30 c 4
 1607 -30 1576 53 1510 137 c 4
 1476 181 1450 201 1428 201 c 4
 1358 201 1357 -27 1235 -27 c 4
 1195 -27 1166 8 1166 47 c 4xfa
EndSplineSet
EndChar

StartChar: less
Encoding: 60 60 151
Width: 1560
VWidth: 0
Flags: W
LayerCount: 3
Fore
SplineSet
1451 9 m 1
 102 647 l 1
 102 713 l 1
 1451 1351 l 1
 1451 1181 l 1
 377 680 l 1
 1451 179 l 1
 1451 9 l 1
EndSplineSet
EndChar

StartChar: equal
Encoding: 61 61 152
Width: 1748
VWidth: 0
Flags: W
HStem: 235 150<231 1497> 577 150<231 1497>
LayerCount: 3
Fore
SplineSet
231 235 m 1
 231 385 l 1
 1497 385 l 1
 1497 235 l 1
 231 235 l 1
231 577 m 1
 231 727 l 1
 1497 727 l 1
 1497 577 l 1
 231 577 l 1
EndSplineSet
EndChar

StartChar: greater
Encoding: 62 62 153
Width: 1560
VWidth: 0
Flags: HW
HStem: -1 21G<103 125>
LayerCount: 3
Fore
SplineSet
102 9 m 1
 102 179 l 1
 1176 680 l 1
 102 1181 l 1
 102 1351 l 1
 1451 713 l 1
 1451 647 l 1
 102 9 l 1
EndSplineSet
EndChar

StartChar: notequal
Encoding: 8800 8800 154
Width: 1476
VWidth: 0
Flags: W
HStem: 474 130<138 425 759 1356> 759 130<138 731 1064 1356>
LayerCount: 3
Fore
SplineSet
73 137 m 1
 425 474 l 1
 138 474 l 1
 138 604 l 1
 565 604 l 1
 731 759 l 1
 138 759 l 1
 138 889 l 1
 871 889 l 1
 1235 1231 l 1
 1423 1231 l 1
 1064 889 l 1
 1356 889 l 1
 1356 759 l 1
 925 759 l 1
 759 604 l 1
 1356 604 l 1
 1356 474 l 1
 619 474 l 1
 260 137 l 1
 73 137 l 1
EndSplineSet
EndChar

StartChar: uni2053
Encoding: 8275 8275 156
Width: 1988
VWidth: 0
Flags: MW
HStem: 444 139<1335.52 1644.63> 767 153<365.334 661.259>
LayerCount: 3
Fore
SplineSet
69 454 m 1
 72 465 153 920 568 920 c 0
 947 920 1237 583 1533 583 c 0
 1594 583 1764 609 1855 916 c 1
 1932 902 l 1
 1903 798 1812 444 1440 444 c 0
 1048 444 761 767 452 767 c 0
 280 767 177 597 149 437 c 1
 69 454 l 1
EndSplineSet
Layer: 2
SplineSet
65 457 m 5
 65 457 149 920 539 920 c 4
 905 920 1187 553 1483 553 c 4
 1707 553 1794 917 1794 917 c 5
 1860 905 l 5
 1850 883 1775 444 1392 444 c 4
 1013 444 733 797 425 797 c 4
 183 797 131 443 131 443 c 5
 65 457 l 5
EndSplineSet
EndChar

StartChar: plusminus
Encoding: 177 177 157
Width: 1628
VWidth: 0
Flags: W
HStem: -62 150<262 1448> 576 150<262 788 922 1448>
VStem: 780 150<158 584 718 1164>
LayerCount: 3
Fore
SplineSet
262 -62 m 1
 262 88 l 1
 1448 88 l 1
 1448 -62 l 1
 262 -62 l 1
262 576 m 1
 262 726 l 1
 277 726 l 2
 609 726 743 721 788 718 c 1
 785 758 780 872 780 1149 c 2
 780 1164 l 1
 930 1164 l 1
 930 1149 l 2
 930 880 924 759 922 718 c 1
 966 720 1101 726 1433 726 c 2
 1448 726 l 1
 1448 576 l 1
 1433 576 l 2
 1098 576 966 581 922 584 c 1
 925 545 930 451 930 173 c 2
 930 158 l 1
 780 158 l 1
 780 173 l 2
 780 449 785 544 788 584 c 1
 746 581 619 576 277 576 c 2
 262 576 l 1
EndSplineSet
EndChar

StartChar: minus
Encoding: 8722 8722 158
Width: 1652
VWidth: 0
Flags: W
HStem: 406 150<210 1436>
LayerCount: 3
Fore
SplineSet
210 406 m 1
 210 556 l 1
 1436 556 l 1
 1436 406 l 1
 210 406 l 1
EndSplineSet
EndChar

StartChar: multiply
Encoding: 215 215 159
Width: 1728
VWidth: 0
Flags: HW
HStem: -20 21G<441 480.361 1229.64 1269>
LayerCount: 3
Fore
SplineSet
761 481 m 1
 354 875 l 1
 461 982 l 1
 855 575 l 1
 1249 982 l 1
 1356 875 l 1
 949 481 l 1
 1356 87 l 1
 1249 -20 l 1
 855 387 l 1
 461 -20 l 1
 354 87 l 1
 761 481 l 1
EndSplineSet
EndChar

StartChar: divide
Encoding: 247 247 160
Width: 1652
VWidth: 0
Flags: W
HStem: 21 278<722.661 923.339> 406 150<210 1436> 663 278<722.661 923.339>
VStem: 684 278<59.6608 260.339 701.661 902.339>
CounterMasks: 1 e0
LayerCount: 3
Fore
SplineSet
210 406 m 1
 210 556 l 1
 1436 556 l 1
 1436 406 l 1
 210 406 l 1
823 299 m 0
 899 299 962 236 962 160 c 0
 962 84 899 21 823 21 c 0
 747 21 684 84 684 160 c 0
 684 236 747 299 823 299 c 0
823 941 m 0
 899 941 962 878 962 802 c 0
 962 726 899 663 823 663 c 0
 747 663 684 726 684 802 c 0
 684 878 747 941 823 941 c 0
EndSplineSet
EndChar

StartChar: underscore
Encoding: 95 95 161
Width: 380
VWidth: 1000
Flags: MW
HStem: -218 105<0 380>
LayerCount: 3
Fore
SplineSet
0 -113 m 1
 380 -113 l 1
 380 -218 l 1
 0 -218 l 1
 0 -113 l 1
EndSplineSet
EndChar

StartChar: asciicircum
Encoding: 94 94 162
Width: 885
VWidth: 0
Flags: W
LayerCount: 3
Fore
SplineSet
82 678 m 1
 434 1362 l 1
 490 1362 l 1
 827 678 l 1
 663 678 l 1
 456 1092 l 1
 243 678 l 1
 82 678 l 1
EndSplineSet
EndChar

StartChar: numbersign
Encoding: 35 35 163
Width: 1050
VWidth: 0
Flags: W
HStem: 511 100<101 277 427 547 701 934> 735 100<103 339 495 615 763 937> 1386 20G<541.765 673 808.116 928>
LayerCount: 3
Fore
SplineSet
101 511 m 1
 101 611 l 1
 306 611 l 1
 339 735 l 1
 103 735 l 1
 103 835 l 1
 370 835 l 1
 548 1406 l 1
 673 1406 l 1
 495 835 l 1
 646 835 l 1
 814 1406 l 1
 928 1406 l 1
 763 835 l 1
 937 835 l 1
 937 735 l 1
 735 735 l 1
 701 611 l 1
 934 611 l 1
 934 511 l 1
 671 511 l 1
 479 -100 l 1
 354 -100 l 1
 547 511 l 1
 396 511 l 1
 218 -100 l 1
 103 -100 l 1
 277 511 l 1
 101 511 l 1
465 735 m 1
 427 611 l 1
 577 611 l 1
 615 735 l 1
 465 735 l 1
EndSplineSet
Layer: 2
SplineSet
126 284 m 5
 126 354 l 5
 377 354 l 5
 433 564 l 5
 126 564 l 5
 126 634 l 5
 452 634 l 5
 652 1379 l 5
 734 1379 l 5
 534 634 l 5
 750 634 l 5
 950 1379 l 5
 1033 1379 l 5
 833 634 l 5
 1062 634 l 5
 1062 564 l 5
 814 564 l 5
 758 354 l 5
 1062 354 l 5
 1062 284 l 5
 739 284 l 5
 529 -498 l 5
 447 -498 l 5
 656 284 l 5
 440 284 l 5
 231 -498 l 5
 148 -498 l 5
 358 284 l 5
 126 284 l 5
459 354 m 5
 675 354 l 5
 731 564 l 5
 516 564 l 5
 459 354 l 5
EndSplineSet
EndChar

StartChar: currency
Encoding: 164 164 164
Width: 1080
Flags: W
HStem: 119 141<393.308 684.543> 813 137<394.643 684.261>
VStem: 122 147<384.13 684.053> 810 149<387.119 683.288>
LayerCount: 3
Fore
SplineSet
66 163 m 2
 198 294 l 1
 150 362 122 445 122 536 c 0
 122 624 149 708 196 775 c 1
 66 906 l 2
 65 907 26 940 26 979 c 0
 26 1020 60 1049 95 1049 c 0
 128 1049 153 1023 168 1008 c 2
 300 876 l 1
 367 923 450 950 538 950 c 0
 632 950 713 921 778 876 c 1
 911 1008 l 2
 912 1009 945 1048 984 1048 c 0
 1025 1048 1054 1014 1054 979 c 0
 1054 946 1028 921 1013 906 c 2
 881 773 l 1
 928 705 959 622 959 533 c 0
 959 445 928 362 881 295 c 1
 1013 163 l 2
 1014 162 1053 129 1053 90 c 0
 1053 49 1019 20 984 20 c 0
 951 20 926 46 911 61 c 2
 779 193 l 1
 712 146 627 119 538 119 c 0
 451 119 366 144 299 191 c 1
 168 61 l 2
 167 60 134 21 95 21 c 0
 54 21 25 55 25 90 c 0
 25 123 51 148 66 163 c 2
269 533 m 0
 269 379 392 260 539 260 c 0
 685 260 810 383 810 535 c 0
 810 685 688 813 539 813 c 0
 389 813 269 684 269 533 c 0
EndSplineSet
EndChar

StartChar: dagger
Encoding: 8224 8224 165
Width: 1028
VWidth: 0
Flags: W
HStem: 744 218<112.218 367.889 658.843 906.789> 1464 20G<474 543.5>
VStem: 382 255<1101.11 1449.83> 420 170<-444.573 158.578> 465 99<890 1116.75>
LayerCount: 3
Fore
SplineSet
376 426 m 1xd0
 379 438 456 747 467 814 c 1
 387 809 297 744 205 744 c 0
 163 744 88 765 88 848 c 0
 88 931 165 962 198 962 c 0
 280 962 397 898 465 890 c 1xc8
 460 1003 382 1238 382 1321 c 0
 382 1431 439 1484 509 1484 c 0
 578 1484 637 1439 637 1327 c 0xe0
 637 1269 564 982 564 890 c 1xc8
 651 899 717 962 804 962 c 0
 847 962 929 937 929 857 c 0
 929 772 857 744 803 744 c 0
 730 744 644 808 556 813 c 1
 565 749 630 455 637 426 c 1xe0
 590 207 591 -304 590 -339 c 0
 589 -398 549 -463 508 -463 c 0
 450 -463 420 -390 420 -341 c 0
 419 259 376 426 376 426 c 1xd0
EndSplineSet
Layer: 2
SplineSet
88 848 m 4xa4
 88 920 155 947 183 947 c 4xa4
 267 947 387 874 450 874 c 4
 454 874 454 876 454 878 c 4
 454 990 378 1247 378 1331 c 4
 378 1438 425 1484 479 1484 c 4
 534 1484 581 1445 581 1338 c 4
 581 1282 514 988 514 891 c 4
 514 875 516 874 520 874 c 4x70
 608 879 673 947 759 947 c 4
 798 947 869 925 869 857 c 4
 869 783 806 759 758 759 c 4
 686 759 599 828 511 828 c 4
 506 828 506 827 506 823 c 4xa4
 506 789 581 426 581 426 c 5xb0
 581 426 538 250 538 -339 c 4
 538 -380 510 -448 478 -448 c 4
 434 -448 413 -380 413 -341 c 4xa8
 413 256 372 426 372 426 c 5
 372 426 457 792 457 825 c 4
 457 827 451 829 450 829 c 4x64
 372 829 282 759 190 759 c 4
 180 759 88 761 88 848 c 4xa4
EndSplineSet
EndChar

StartChar: daggerdbl
Encoding: 8225 8225 166
Width: 1028
VWidth: 0
Flags: W
HStem: -82 218<111.211 358.93 648.616 903.782> 894 218<113.218 368.384 658.07 905.789>
VStem: 381 254<-411.43 -149.569 186.958 401.421 1181.17 1441.75> 453 182<-194.924 -146.668 725 964>
LayerCount: 3
Fore
SplineSet
453 -10 m 1xd0
 367 -19 301 -82 214 -82 c 0
 171 -82 89 -57 89 23 c 0
 89 108 161 136 215 136 c 0
 288 136 374 73 461 67 c 1
 453 106 414 223 392 284 c 1
 408 365 440 432 461 509 c 1
 438 583 405 647 387 726 c 1
 404 772 457 918 467 964 c 1
 389 958 296 894 206 894 c 0
 164 894 89 915 89 998 c 0
 89 1081 166 1112 199 1112 c 0
 280 1112 398 1048 465 1040 c 1
 459 1145 382 1240 382 1326 c 0
 382 1435 448 1474 515 1474 c 0
 588 1474 636 1435 636 1333 c 0
 636 1274 564 1135 564 1040 c 1
 650 1049 716 1112 803 1112 c 0
 846 1112 928 1087 928 1007 c 0
 928 922 856 894 802 894 c 0
 729 894 643 957 556 963 c 1
 564 921 603 791 625 725 c 1
 608 647 577 583 556 509 c 1
 579 433 613 365 630 284 c 1
 605 223 559 106 550 66 c 1
 628 72 721 136 811 136 c 0
 853 136 928 115 928 32 c 0
 928 -51 851 -82 818 -82 c 0
 737 -82 619 -18 552 -10 c 1
 558 -115 635 -210 635 -296 c 0
 635 -401 569 -444 502 -444 c 0
 453 -444 381 -426 381 -303 c 0xe0
 381 -244 453 -105 453 -10 c 1xd0
EndSplineSet
Layer: 2
SplineSet
89 23 m 4x84
 89 97 152 121 200 121 c 4x84
 272 121 359 52 446 52 c 4
 451 52 451 53 451 57 c 4
 451 91 386 289 386 289 c 5
 451 509 l 5
 382 721 l 5
 382 721 457 942 457 975 c 4
 457 977 451 979 450 979 c 4x54
 372 979 283 909 191 909 c 4
 181 909 89 911 89 998 c 4
 89 1070 156 1097 184 1097 c 4x24
 268 1097 387 1024 450 1024 c 4
 454 1024 454 1026 454 1028 c 4
 454 1140 378 1242 378 1326 c 4
 378 1425 430 1459 484 1459 c 4
 539 1459 580 1430 580 1333 c 4
 580 1277 514 1138 514 1041 c 4
 514 1025 516 1024 520 1024 c 4x14
 607 1029 672 1097 758 1097 c 4
 797 1097 868 1075 868 1007 c 4
 868 933 805 909 757 909 c 4
 685 909 598 978 511 978 c 4
 506 978 506 977 506 973 c 4
 506 939 571 721 571 721 c 5
 506 509 l 5
 575 289 l 5
 575 289 500 88 500 55 c 4
 500 53 506 51 507 51 c 4
 585 51 674 121 766 121 c 4
 776 121 868 119 868 32 c 4
 868 -40 801 -67 773 -67 c 4xa4
 689 -67 570 6 507 6 c 4
 503 6 503 4 503 2 c 4x44
 503 -110 579 -212 579 -296 c 4
 579 -392 527 -429 473 -429 c 4
 418 -429 377 -398 377 -303 c 4x48
 377 -247 443 -108 443 -11 c 4
 443 5 441 6 437 6 c 4x44
 350 1 285 -67 199 -67 c 4
 160 -67 89 -45 89 23 c 4x84
EndSplineSet
EndChar

StartChar: paragraph
Encoding: 182 182 167
Width: 1591
VWidth: 0
Flags: W
HStem: 1341 95<744.104 1018.87>
VStem: 76 375<386.198 951.884> 632 109<8 1307> 1249 156<-384.617 -245.122>
LayerCount: 3
Fore
SplineSet
76 698 m 0
 76 1150 438 1436 864 1436 c 0
 1082 1436 1137 1360 1143 1330 c 0
 1144 1327 1143 1325 1143 1322 c 0
 1143 1288 1112 1270 1088 1270 c 0
 1033 1270 1001 1341 846 1341 c 0
 801 1341 764 1335 741 1332 c 1
 741 -16 l 1
 963 -63 1405 -25 1405 -267 c 0
 1405 -343 1365 -407 1305 -407 c 0
 1249 -407 1235 -369 1235 -337 c 0
 1235 -312 1249 -297 1249 -287 c 0
 1249 -182 713.702306443 -154.665025783 498 -58 c 0
 202.702306443 74.3349742165 76 361 76 698 c 0
451 1218 m 1
 451 96 l 1
 502 54 551 30 632 8 c 1
 632 1307 l 1
 539 1283 484 1246 451 1218 c 1
EndSplineSet
Layer: 2
SplineSet
1076 707 m 0
 1076 1155 1470 1438 1922 1438 c 0
 2135 1438 2207 1361 2207 1324 c 0
 2207 1296 2185 1281 2169 1281 c 0
 2125 1281 2086 1352 1936 1352 c 0
 1881 1352 1834 1342 1818 1341 c 9
 1818 -32 l 17
 2041 -83 2506 -41 2506 -271 c 0
 2506 -331 2468 -396 2395 -396 c 0
 2377 -396 2324 -394 2324 -340 c 0
 2324 -317 2342 -306 2342 -290 c 0
 2342 -163 1771 -147 1527 -44 c 0
 1215 87 1076 370 1076 707 c 0
1518 79 m 17
 1575 29 1630 9 1723 -15 c 9
 1723 1322 l 17
 1614 1296 1553 1254 1518 1223 c 9
 1518 79 l 17
76 698 m 4
 76 1141 427 1421 830 1421 c 4
 1020 1421 1084 1354 1084 1322 c 4
 1084 1298 1062 1285 1046 1285 c 4
 1002 1285 962 1356 812 1356 c 4
 757 1356 712 1346 696 1345 c 13
 692 -28 l 21
 903 -79 1345 -37 1345 -267 c 4
 1345 -327 1316 -392 1260 -392 c 4
 1246 -392 1205 -390 1205 -337 c 4
 1205 -314 1219 -303 1219 -287 c 4
 1219 -161 703 -145 483 -44 c 4
 201 86 76 365 76 698 c 4
416 89 m 21
 473 39 528 12 621 -12 c 13
 621 1326 l 21
 512 1300 451 1256 416 1225 c 13
 416 89 l 21
EndSplineSet
EndChar

StartChar: section
Encoding: 167 167 168
Width: 1024
VWidth: 0
Flags: HW
HStem: -446 95<393.202 650.226> -35 20G<294.5 350> 165 70<661.509 748.549> 781 67<265.025 319> 1355 98<347.768 533.651>
VStem: 114 122<563.464 759.49> 180 132<1095.66 1318.56> 196 189<-321.455 -134> 536 228<1183.77 1354.39> 696 133<-303.921 -98.9787> 763 110<246.916 623.979>
LayerCount: 3
Fore
SplineSet
236 681 m 0xfc20
 236 528 558 235 667 235 c 0
 722 235 763 262 763 313 c 0
 763 459 439 764 366 781 c 1
 265 781 236 721 236 681 c 0xfc20
114 604 m 0
 114 783 224 845 319 848 c 1
 274 899 180 1019 180 1173 c 0
 180 1369 318 1453 470 1453 c 0
 668 1453 764 1338 764 1237 c 0
 764 1141 705 1107 646 1107 c 0
 569 1107 484 1154 484 1210 c 0
 484 1255 536 1295 536 1323 c 0xfa80
 536 1338 517 1355 485 1355 c 0
 394 1355 312 1325 312 1206 c 0
 312 982 873 821 873 417 c 0xfa20
 873 204 758 165 681 165 c 0
 674 165 667 165 661 166 c 1
 728 99 829 -22 829 -179 c 0
 829 -360 680 -446 522 -446 c 0
 354 -446 196 -354 196 -183 c 0
 196 -85 256 -15 333 -15 c 0
 367 -15 476 -73 476 -131 c 0
 476 -187 385 -236 385 -279 c 0
 385 -308 410 -351 528 -351 c 0
 607 -351 696 -297 696 -216 c 0xf940
 696 -78 524 17 363 154 c 0
 174 315 114 480 114 604 c 0
EndSplineSet
Layer: 2
SplineSet
231 681 m 0xfc20
 231 527 550 232 660 232 c 0
 715 232 758 260 758 313 c 0
 758 462 431.050706007 783 362 783 c 0
 264 783 231 727 231 681 c 0xfc20
114 604 m 0
 114 784 225 844 321 845 c 1
 278 893 180 1017 180 1173 c 0
 180 1368 318 1450 466 1450 c 0
 660 1450 753 1337 753 1237 c 0
 753 1143 696 1110 638 1110 c 0
 570 1110 482 1151 482 1210 c 0
 482 1255 533 1293 533 1323 c 0
 533 1340 512 1358 480 1358 c 0
 394 1358 307 1330 307 1206 c 0
 307 980 863 820 863 417 c 0xfaa0
 863 205 749 168 674 168 c 0
 664 168 655 168 647 169 c 1
 714 103 819 -19 819 -179 c 0
 819 -358 673 -444 517 -444 c 0
 354 -444 196 -353 196 -183 c 0
 196 -86 255 -18 330 -18 c 0
 362 -18 469 -75 469 -131 c 0
 469 -187 379 -235 379 -279 c 0
 379 -309 403 -354 522 -354 c 0
 602 -354 691 -298 691 -216 c 0xf940
 691 -77 517 22 362 156 c 0
 175 317 114 481 114 604 c 0
1114 604 m 4xfc40
 1114 777 1220 833 1311 833 c 4
 1322 833 1331 832 1338 831 c 5
 1333 841 1180 981 1180 1173 c 4
 1180 1361 1312 1438 1443 1438 c 4
 1616 1438 1703 1329 1703 1237 c 4
 1703 1152 1654 1122 1601 1122 c 4
 1540 1122 1470 1162 1470 1210 c 4
 1470 1251 1516 1288 1516 1323 c 4
 1516 1349 1490 1370 1456 1370 c 4
 1371 1370 1282 1337 1282 1206 c 4
 1282 970 1813 814 1813 417 c 4xfaa0
 1813 215 1707 180 1636 180 c 4
 1605 180 1589 186 1568 191 c 5
 1626 137 1769 4 1769 -179 c 4
 1769 -350 1629 -431 1489 -431 c 4
 1346 -431 1196 -344 1196 -183 c 4
 1196 -92 1251 -30 1318 -30 c 4
 1345 -30 1433 -84 1433 -131 c 4
 1433 -180 1352 -229 1352 -279 c 4xf940
 1352 -314 1377 -366 1494 -366 c 4
 1570 -366 1666 -308 1666 -216 c 4
 1666 -70 1502 32 1358 165 c 5
 1175 327 1114 485 1114 604 c 4xfc40
1206 681 m 4xfc20
 1206 520 1511 220 1622 220 c 4
 1683 220 1733 252 1733 313 c 4
 1733 472 1405 796 1348 796 c 4
 1263 796 1206 747 1206 681 c 4xfc20
EndSplineSet
EndChar

StartChar: brokenbar
Encoding: 166 166 169
Width: 851
VWidth: 1000
Flags: W
VStem: 357 120<-488 310 662 1460>
LayerCount: 3
Fore
SplineSet
357 310 m 1
 477 310 l 1
 477 -488 l 1
 357 -488 l 1
 357 310 l 1
357 662 m 1
 357 1460 l 1
 477 1460 l 1
 477 662 l 1
 357 662 l 1
EndSplineSet
EndChar

StartChar: exclamdown
Encoding: 161 161 170
Width: 602
VWidth: 0
Flags: W
HStem: -30 21G<192.5 203> 1043 315<281.388 415.254>
VStem: 195 308<1130.9 1271.92> 302 65<707.097 928.649>
LayerCount: 3
Fore
SplineSet
503 1198 m 0xe0
 503 1160 383 1044 346 1043 c 0
 315 1043 195 1167 195 1193 c 0
 195 1246 306 1358 348 1358 c 0
 373 1358 503 1251 503 1198 c 0xe0
438 75 m 0
 438 59 423 50 382 35 c 2
 234 -21 l 2
 218 -27 207 -30 199 -30 c 0
 186 -30 181 -22 181 -9 c 0
 181 0 184 13 186 27 c 2
 302 803 l 2
 320 924 331 930 339 930 c 2
 344 930 l 2
 358 930 363 903 367 877 c 0xd0
 370 861 384 718 385 705 c 0
 408 437 438 172 438 75 c 0
EndSplineSet
Position2: "'cpsp' Capital Spacing in Latin lookup 1 subtable" dx=4 dy=0 dh=9 dv=0
EndChar

StartChar: questiondown
Encoding: 191 191 171
Width: 794
VWidth: 0
Flags: W
HStem: -30 131<258.834 517.123> 1044 315<296.388 430.254>
VStem: 52 143<140.934 298.422> 210 308<1131.9 1272.92> 428 157<634.5 856.374>
LayerCount: 3
Fore
SplineSet
518 1199 m 0xf0
 518 1161 398 1045 361 1044 c 0
 330 1044 210 1168 210 1194 c 0
 210 1247 321 1359 363 1359 c 0
 388 1359 518 1252 518 1199 c 0xf0
428 817 m 0xe8
 428 878 389 912 389 944 c 0
 389 955 395 964 410 964 c 0
 461 964 585 859 585 693 c 0
 585 576 505 500 416 436 c 2
 324 370 l 2
 250 318 195 268 195 189 c 0
 195 155 222 101 357 101 c 0
 423 101 510 131 553 153 c 0
 578 165 587 153 587 138 c 0
 587 134 586 129 585 125 c 0
 569 77 523 -30 399 -30 c 0
 337 -30 228 19 143 91 c 0
 71 152 52 221 52 283 c 0
 52 400 110 476 170 526 c 2
 245 589 l 2
 354 681 428 738 428 817 c 0xe8
EndSplineSet
Position2: "'cpsp' Capital Spacing in Latin lookup 1 subtable" dx=6 dy=0 dh=12 dv=0
EndChar

StartChar: cent
Encoding: 162 162 172
Width: 1016
VWidth: 0
Flags: HW
HStem: -45 106<429.871 703.723> 815 97<437.746 515 632 680.928>
VStem: 98 204<230.312 650.288> 612 270<558.277 723.058>
LayerCount: 3
Fore
SplineSet
302 436 m 0
 302 341 325 248 351 192 c 1
 515 815 l 1
 393 793 302 613 302 436 c 0
918 175 m 1
 846 93 728 -44 540 -45 c 0
 492 -45 439 -37 383 -15 c 1
 265 -437 l 1
 178 -410 l 1
 306 33 l 1
 191 112 98 252 98 448 c 0
 98 667 250 904 540 912 c 1
 694 1505 l 1
 791 1491 l 1
 632 902 l 1
 765 874 882 785 882 664 c 0
 882 585 822 518 742 518 c 0
 675 518 612 570 612 635 c 0
 612 711 675 729 691 756 c 0
 693 759 693 759 691 763 c 0
 684 776 654 802 606 808 c 1
 419 114 l 1
 467 75 515 61 560 61 c 0
 718 61 853 237 853 237 c 1
 918 175 l 1
EndSplineSet
Layer: 2
SplineSet
118 448 m 0
 118 662 258 892 546 892 c 1
 694 1484 l 1
 776 1474 l 1
 607 886 l 1
 747 863 862 776 862 664 c 0
 862 596 810 538 742 538 c 0
 683 538 632 583 632 635 c 0
 632 705 713 727 713 759 c 0
 713 786 658 827 591 829 c 1
 396 107 l 1
 444 64 503 45 562 45 c 0
 740 45 848 210 850 212 c 1
 894 170 l 1
 878 156 755 -24 539 -24 c 0
 482 -24 424 -11 370 13 c 1
 265 -413 l 1
 193 -395 l 1
 319 41 l 1
 203 115 118 252 118 448 c 0
282 436 m 0
 282 312 309 222 351 159 c 1
 528 823 l 1
 373 792 282 633 282 436 c 0
EndSplineSet
EndChar

StartChar: minute
Encoding: 8242 8242 174
Width: 504
VWidth: 0
Flags: HMW
VStem: 112 310
LayerCount: 3
Fore
SplineSet
112 982 m 0
 112 1015 155 1129 163 1152 c 0
 223 1327 225 1503 344 1503 c 0
 403 1503 422 1446 422 1421 c 0
 422 1349 328 1216 270 1109 c 0
 214 1006 204 969 180 951 c 0
 176 948 166 942 153 942 c 0
 123 942 112 964 112 982 c 0
EndSplineSet
Layer: 2
SplineSet
112 997 m 4
 112 1025 146 1116 162 1162 c 4
 221 1336 224 1503 329 1503 c 4
 376 1503 392 1456 392 1436 c 4
 391 1370 296 1231 242 1131 c 4
 178 1014 171 972 138 972 c 4
 117 972 112 987 112 997 c 4
EndSplineSet
EndChar

StartChar: second
Encoding: 8243 8243 175
Width: 750
VWidth: 0
Flags: HMW
VStem: 126 530
LayerCount: 3
Fore
SplineSet
126 985 m 0
 126 1017 197 1357 217 1430 c 0
 230 1478 270 1504 317 1504 c 0
 367 1504 400 1457 400 1423 c 0
 400 1368 322 1234 266 1111 c 0
 231 1034 215 983 193 961 c 0
 181 949 168 949 165 949 c 0
 146 949 126 963 126 985 c 0
359 991 m 0
 359 1023 395 1113 417 1161 c 0
 448 1228 503 1501 617 1501 c 0
 680 1501 696 1462 696 1436 c 0
 696 1370 601 1234 522 1112 c 0
 460 1016 447 979 423 961 c 0
 415 955 407 952 398 952 c 0
 367 952 359 973 359 991 c 0
EndSplineSet
Layer: 2
SplineSet
126 1000 m 4
 126 1026 193 1358 216 1441 c 4
 227 1482 262 1504 302 1504 c 4
 344 1504 370 1464 370 1438 c 4
 370 1388 291 1250 237 1132 c 20
 194 1038 180 979 150 979 c 4
 137 979 126 988 126 1000 c 4
319 1006 m 4
 319 1030 348 1108 376 1170 c 20
 447 1326 461 1501 562 1501 c 4
 614 1501 626 1471 626 1451 c 4
 626 1388 519 1235 454 1135 c 4
 387 1032 373 982 343 982 c 4
 333 982 319 984 319 1006 c 4
EndSplineSet
EndChar

StartChar: degree
Encoding: 176 176 176
Width: 585
VWidth: 0
Flags: W
HStem: 982 103<175.597 394.403> 1405 103<175.597 394.403>
VStem: 22 103<1135.6 1354.4> 445 103<1135.6 1354.4>
LayerCount: 3
Fore
SplineSet
285 1508 m 0
 431 1508 548 1391 548 1245 c 0
 548 1099 431 982 285 982 c 0
 139 982 22 1099 22 1245 c 0
 22 1391 139 1508 285 1508 c 0
125 1245 m 0
 125 1157 197 1085 285 1085 c 0
 373 1085 445 1157 445 1245 c 0
 445 1333 373 1405 285 1405 c 0
 197 1405 125 1333 125 1245 c 0
EndSplineSet
EndChar

StartChar: yen
Encoding: 165 165 177
Width: 1481
VWidth: 0
Flags: W
HStem: 0 90<367 546.001 842.902 1054> 402 100<246 549 839 1152> 702 100<246 437 944 1152> 1275 90<40 159.075 500.027 624 921 1097.98 1214.76 1351>
VStem: 549 290<96.4586 402 502 633>
LayerCount: 3
Fore
SplineSet
944 802 m 1
 1152 802 l 1
 1152 702 l 1
 875 702 l 1
 839 639 l 1
 839 502 l 1
 1152 502 l 1
 1152 402 l 1
 839 402 l 1
 839 179 l 2
 839 80 868 92 1054 90 c 1
 1056 0 l 1
 366 0 l 1
 367 90 l 1
 528 94 549 77 549 181 c 2
 549 402 l 1
 246 402 l 1
 246 502 l 1
 549 502 l 1
 549 633 l 1
 507 702 l 1
 246 702 l 1
 246 802 l 1
 437 802 l 1
 212 1150 l 2
 132 1274 141 1275 40 1275 c 1
 37 1365 l 1
 624 1365 l 1
 624 1275 l 1
 537 1274 500 1277 500 1254 c 0
 500 1241 513 1218 535 1182 c 2
 796 760 l 1
 1082 1215 l 2
 1092 1231 1098 1243 1098 1252 c 0
 1098 1270 1076 1275 1015 1275 c 2
 921 1275 l 1
 918 1365 l 1
 1351 1365 l 1
 1351 1275 l 1
 1249 1273 1242 1279 1185 1188 c 2
 944 802 l 1
EndSplineSet
Layer: 2
SplineSet
42 1285 m 5
 45 1365 l 5
 504 1365 l 5
 504 1285 l 5
 418 1281 357 1290 357 1257 c 4
 357 1241 366 1229 597 866 c 6
 687 724 l 5
 1045 1232 l 6
 1052 1243 1056 1251 1056 1258 c 4
 1056 1287 990 1283 891 1285 c 5
 888 1365 l 5
 1261 1365 l 5
 1261 1285 l 5
 1186 1282 1176 1286 1115 1198 c 6
 840 802 l 5
 1058 802 l 5
 1034 704 l 5
 757 704 l 5
 714 635 l 5
 714 502 l 5
 1058 502 l 5
 1034 404 l 5
 714 404 l 5
 714 174 l 6
 714 68 717 84 927 80 c 5
 926 0 l 5
 351 0 l 5
 352 80 l 5
 526 83 548 67 548 171 c 6
 548 404 l 5
 225 404 l 5
 249 502 l 5
 548 502 l 5
 548 651 l 5
 519 704 l 5
 225 704 l 5
 249 802 l 5
 442 802 l 5
 212 1160 l 6
 132 1284 143 1285 42 1285 c 5
EndSplineSet
EndChar

StartChar: dotlessi
Encoding: 305 305 178
Width: 652
VWidth: 0
Flags: HMW
HStem: 0 75<64 204.494 440.504 614> 808 20G<375.5 440>
VStem: 205 235<76.9766 700.99>
AnchorPoint: "top" 327 1000 basechar 0
LayerCount: 3
Fore
SplineSet
62 749 m 1
 182 769 311 795 440 828 c 1
 440 131 l 2
 440 67 444 77 614 75 c 1
 614 0 l 1
 64 0 l 1
 64 75 l 1
 179 76 205 70 205 124 c 2
 205 661 l 2
 205 687 196 701 179 701 c 0
 174 701 65 681 65 681 c 1
 62 749 l 1
EndSplineSet
EndChar

StartChar: uni0237
Encoding: 567 567 179
Width: 512
VWidth: 0
Flags: W
HStem: -530 122<24.8778 141.599> 808 20G<345.5 412>
VStem: 177 235<-290.797 694.98>
AnchorPoint: "top" 241 1000 basechar 0
LayerCount: 3
Fore
SplineSet
-191 -413 m 0
 -191 -358 -144 -293 -116 -264 c 0
 -104 -251 -92 -247 -77 -247 c 0
 -45 -247 -29 -274 -17 -295 c 0
 24 -365 44 -408 89 -408 c 0
 158 -408 177 -269 177 -64 c 2
 177 629 l 2
 177 668 173 695 143 695 c 0
 141 695 138 694 135 694 c 0
 114 691 95 687 36 677 c 1
 32 755 l 1
 122 770 279 797 412 828 c 1
 412 -99 l 2
 412 -394 156 -530 44 -530 c 0
 -28 -530 -191 -507 -191 -413 c 0
EndSplineSet
EndChar

StartChar: bullet
Encoding: 8226 8226 215
Width: 858
Flags: W
HStem: 355 524<287.651 571.054>
VStem: 167 524<471.064 759.054>
LayerCount: 3
Fore
SplineSet
429 879 m 0
 573 879 691 763 691 618 c 0
 691 473 575 355 430 355 c 0
 285 355 167 472 167 617 c 0
 167 761 284 879 429 879 c 0
EndSplineSet
EndChar

StartChar: quotereversed
Encoding: 8219 8219 216
Width: 497
VWidth: 0
Flags: W
HStem: 981 513
VStem: 99 192<1134.96 1375>
LayerCount: 3
Fore
SplineSet
291 1177 m 0
 291 1061 420 1062 420 1005 c 0
 420 997 414 981 390 981 c 0
 368 981 99 1033 99 1295 c 0
 99 1455 260 1494 277 1494 c 0
 302 1494 420 1370 420 1338 c 0
 420 1299 291 1296 291 1177 c 0
EndSplineSet
Validated: 1
EndChar

StartChar: figuredash
Encoding: 8210 8210 219
Width: 1065
VWidth: 0
Flags: W
HStem: 0 70<433.688 549.527> 265 63<435.369 542.758> 532 105<1000 2024> 1338 114<340.261 556.41>
VStem: 106 549<927.689 1113.28> 106 288<99.812 235.399> 106 225<422.587 702.229> 106 173<1178.01 1278.02> 458 460<417.66 609.346> 590 328<99.5259 237.269> 772 146<833.282 1115.76>
LayerCount: 3
Fore
SplineSet
1000 532 m 1xf0
 1000 637 l 1
 2024 637 l 1
 2024 532 l 1
 1000 532 l 1xf0
106 0 m 17xf120
 106 1452 l 9
 918 1452 l 25
 918 0 l 25
 106 0 l 17xf120
279 1211 m 0
 279 1195 286 1178 314 1178 c 0
 373 1178 398 1180 427 1180 c 0
 544 1180 655 1100 655 1039 c 0xf8
 655 861 331 786 331 571 c 0
 331 419 454 328 507 328 c 0
 528 328 543 338 543 361 c 0
 543 402 458 424 458 519 c 0xf280
 458 613 595 675 719 822 c 0
 760 871 772 908 772 970 c 0
 772 1160 535 1338 452 1338 c 0
 368 1338 279 1248 279 1211 c 0
394 168 m 0xf440
 394 140 453 72 490 70 c 1
 540 72 590 152 590 167 c 0
 589 199 532 265 494 265 c 0
 465 265 394 209 394 168 c 0xf440
EndSplineSet
EndChar

StartChar: braceleft
Encoding: 123 123 220
Width: 661
VWidth: 1000
Flags: W
HStem: -478 70<482.283 606> 459 62<70 177.038> 1386 69<480.079 606>
VStem: 233 161<-296.125 420.75 560.783 1274.14>
LayerCount: 3
Fore
SplineSet
241 201 m 0
 238 467 163 435 70 459 c 1
 70 521 l 1
 171 544 237 521 240 786 c 0
 240 860 233 946 233 1040 c 0
 233 1274 329 1455 591 1455 c 2
 606 1455 l 1
 606 1386 l 1
 591 1386 l 2
 407 1386 395 1219 395 1053 c 0
 395 939 404 846 404 753 c 0
 404 624 373 538 288 492 c 1
 373 445 403 356 403 234 c 0
 403 145 394 53 394 -59 c 0
 394 -226 407 -408 591 -408 c 2
 606 -408 l 1
 606 -478 l 1
 591 -478 l 2
 448 -478 233 -433 233 -49 c 0
 233 42 241 126 241 201 c 0
EndSplineSet
Layer: 2
SplineSet
70 471 m 5
 70 509 l 5
 162 527 240 520 240 781 c 4
 240 855 233 939 233 1031 c 4
 233 1254 324 1445 576 1445 c 5
 576 1386 l 5
 379 1386 365 1211 365 1043 c 4
 365 930 374 838 374 748 c 4
 374 613 339 530 237 492 c 5
 339 454 373 365 373 234 c 4
 373 146 364 54 364 -59 c 4
 364 -229 378 -413 576 -413 c 5
 576 -473 l 5
 323 -473 233 -295 233 -49 c 4
 233 41 241 125 241 201 c 4
 241 469 152 453 70 471 c 5
EndSplineSet
EndChar

StartChar: logicalnot
Encoding: 172 172 221
Width: 1472
VWidth: 0
Flags: W
HStem: 406 150<110 1136>
VStem: 1136 150<-82 406>
LayerCount: 3
Fore
SplineSet
110 406 m 1
 110 556 l 1
 1286 556 l 1
 1286 -82 l 1
 1136 -82 l 1
 1136 406 l 1
 110 406 l 1
EndSplineSet
Validated: 1
Layer: 2
SplineSet
210 406 m 1
 210 556 l 1
 1436 556 l 1
 1436 -132 l 1
 1286 -132 l 1
 1286 406 l 1
 210 406 l 1
EndSplineSet
EndChar

StartChar: guilsinglleft
Encoding: 8249 8249 224
Width: 494
Flags: HW
LayerCount: 3
Fore
SplineSet
40 443 m 1
 376 736 l 1
 429 677 l 1
 236 443 l 1
 429 209 l 1
 376 150 l 1
 40 443 l 1
EndSplineSet
EndChar

StartChar: guilsinglright
Encoding: 8250 8250 225
Width: 494
Flags: HW
HStem: 171 544
VStem: 40 346
LayerCount: 3
Fore
SplineSet
429 443 m 5
 93 150 l 5
 40 209 l 5
 233 443 l 5
 40 677 l 5
 93 736 l 5
 429 443 l 5
EndSplineSet
EndChar

StartChar: registered
Encoding: 174 174 226
Width: 979
Flags: W
HStem: 666 95<320.851 664.253> 911 43<256 307.868 407.571 491 699.062 767> 1118 41<407.007 479> 1332 44<247 307.992 407.053 519.737> 1484 90<324.875 650.743>
VStem: 39 97<945.587 1287.99> 308 99<954.344 1125 1159 1331.81> 553 100<1173.07 1317.02> 837 97<933.332 1293.14>
LayerCount: 3
Fore
SplineSet
407 1307 m 2
 407 1165 l 1
 407 1165 417 1159 452 1159 c 0
 504 1159 553 1189 553 1244 c 0
 553 1303 504 1332 441 1332 c 2
 432 1332 l 2
 415 1332 407 1331 407 1307 c 2
653 1247 m 0
 653 1168 577 1138 577 1138 c 1
 703 970 l 2
 715 955 725 954 767 954 c 1
 768 911 l 1
 618 911 l 1
 479 1118 l 1
 421 1118 408 1125 407 1125 c 1
 407 984 l 2
 407 950 428 955 491 954 c 1
 491 911 l 1
 256 911 l 1
 256 954 l 1
 306 955 308 950 308 985 c 2
 308 1309 l 2
 308 1335 297 1332 247 1333 c 1
 247 1376 l 1
 473 1376 l 2
 544 1376 653 1372 653 1247 c 0
486 1574 m 0
 739 1574 934 1371 934 1118 c 0
 934 872 764 666 486 666 c 0
 237 666 39 872 39 1118 c 0
 39 1371 237 1574 486 1574 c 0
136 1117 m 0
 136 921 292 761 491 761 c 0
 704 761 837 922 837 1117 c 0
 837 1316 683 1484 491 1484 c 0
 293 1484 136 1316 136 1117 c 0
EndSplineSet
Layer: 2
SplineSet
63 1118 m 4
 63 1358 250 1550 486 1550 c 4
 726 1550 910 1358 910 1118 c 4
 910 885 750 690 486 690 c 4
 250 690 63 885 63 1118 c 4
128 1117 m 4
 128 917 288 753 491 753 c 4
 708 753 845 917 845 1117 c 4
 845 1320 688 1492 491 1492 c 4
 288 1492 128 1320 128 1117 c 4
271 1347 m 5
 272 1396 l 5
 441 1396 l 6
 517 1396 560 1389 597 1359 c 4
 635 1329 654 1287 654 1247 c 4
 654 1200 628 1150 555 1126 c 5
 688 950 l 6
 699 936 704 933 712 933 c 6
 733 933 l 5
 735 885 l 5
 633 885 l 5
 475 1111 l 5
 471 1111 467 1111 463 1111 c 4
 431 1111 415 1112 405 1113 c 5
 405 943 l 6
 405 933 405 933 425 933 c 4
 438 933 451 933 464 933 c 5
 462 885 l 5
 276 885 l 5
 276 933 l 5
 297 933 l 6
 324 933 326 934 326 941 c 6
 326 1331 l 6
 326 1346 319 1347 298 1347 c 6
 271 1347 l 5
405 1156 m 5
 414 1153 429 1153 443 1153 c 4
 538 1153 561 1186 561 1237 c 4
 561 1301 513 1347 418 1347 c 4
 408 1347 405 1347 405 1323 c 6
 405 1156 l 5
EndSplineSet
EndChar

StartChar: copyright
Encoding: 169 169 227
Width: 1630
Flags: W
HStem: -277 110<586.601 1038.04> -27 111<683.011 1032.93> 849 116<650.816 1001.64> 1130 112<591.419 1043.55>
VStem: 57 119<250.585 714.466> 300 167<305.226 661.426> 1442 119<245.671 723.096>
LayerCount: 3
Fore
SplineSet
176 486 m 0
 176 124 449 -167 819 -167 c 0
 1160 -167 1442 118 1442 489 c 0
 1442 831 1186 1130 817 1130 c 0
 457 1130 176 836 176 486 c 0
819 1242 m 0
 1245 1242 1561 900 1561 486 c 0
 1561 78 1254 -277 817 -277 c 0
 371 -277 57 54 57 486 c 0
 57 899 388 1242 819 1242 c 0
1177 858 m 2
 1177 726 l 2
 1177 701 1174 675 1158 675 c 0
 1116 675 1057 849 820 849 c 0
 607 849 467 673 467 483 c 0
 467 282 627 84 851 84 c 0
 1110 84 1148 278 1183 278 c 0
 1194 278 1203 262 1203 226 c 2
 1203 113 l 2
 1203 106 1200 104 1198 102 c 0
 1197 101 1063 -27 817 -27 c 0
 488 -27 300 202 300 462 c 0
 300 810 588 965 816 965 c 0
 1009 965 1092 922 1140 896 c 0
 1174 878 1177 872 1177 858 c 2
EndSplineSet
EndChar

StartChar: uni00B5
Encoding: 181 181 228
Width: 1090
Flags: HW
LayerCount: 3
Fore
SplineSet
998 264 m 0
 1017 264 1024 249 1024 229 c 0
 1024 202 1014 167 991 125 c 0
 943 39 847 -44 736 -44 c 0
 649 -44 634 32 634 107 c 0
 634 171 699 402 699 402 c 1
 699 402 590 214 493 113 c 0
 423 40 319 -37 231 -37 c 0
 159 -37 147 66 147 66 c 1
 147 66 127 -6 127 -98 c 0
 127 -237 178 -287 178 -329 c 0
 178 -346 158 -407 92 -407 c 0
 32 -407 18 -356 18 -292 c 0
 18 -100 91 71 145 308 c 0
 239 721 234 782 266 801 c 0
 271 804 278 805 284 805 c 0
 315 803 392 789 392 743 c 0
 392 659 287 328 287 186 c 0
 287 146 295 121 317 121 c 0
 471 121 649 433 762 673 c 0
 816 788 805 804 841 804 c 0
 848 804 859 802 882 798 c 0
 919 791 951 781 951 752 c 0
 951 724 823 247 823 162 c 0
 823 144 837 112 854 112 c 0
 901 112 935 184 957 223 c 0
 970 246 975 264 998 264 c 0
EndSplineSet
EndChar

StartChar: Euro
Encoding: 8364 8364 229
Width: 1257
Flags: HW
HStem: -35 126<547.738 924.956> 362 129<77 184 338 911> 540 127<70 184 339 986> 938 126<544.347 920.114>
VStem: 184 127<491 540>
LayerCount: 3
Back
SplineSet
1092 98 m 5
 991 14 877 -35 733 -35 c 4
 551 -35 303 57 204 362 c 5
 25 362 l 5
 77 491 l 5
 184 491 l 5
 184 540 l 5
 18 540 l 5
 70 667 l 5
 204 667 l 5
 299 973 570 1064 720 1064 c 4
 952 1064 1055 963 1135 893 c 5
 1085 780 l 5
 1059 780 l 5
 1039 812 929 938 730 938 c 4
 602 938 423 873 339 667 c 5
 1038 667 l 5
 986 540 l 5
 311 540 l 5
 311 533 310 525 310 516 c 4
 310 506 311 498 311 491 c 5
 966 491 l 5
 911 362 l 5
 338 362 l 5
 413 170 597 91 727 91 c 4
 941 91 1038 218 1062 243 c 5
 1092 243 l 5
 1092 98 l 5
EndSplineSet
Fore
SplineSet
1092 98 m 1
 991 14 877 -35 733 -35 c 0
 551 -35 303 57 204 362 c 1
 25 362 l 1
 69 471 l 1
 176 471 l 1
 188 560 l 1
 26 560 l 1
 70 667 l 1
 204 667 l 1
 299 973 570 1064 720 1064 c 0
 952 1064 1055 963 1135 893 c 1
 1085 780 l 1
 1059 780 l 1
 1039 812 929 938 730 938 c 0
 602 938 423 873 339 667 c 1
 1038 667 l 1
 994 560 l 1
 315 560 l 1
 315 553 310 525 310 516 c 0
 310 506 303 478 303 471 c 1
 958 471 l 1
 911 362 l 1
 338 362 l 1
 413 170 597 91 727 91 c 0
 941 91 1038 218 1062 243 c 1
 1092 243 l 1
 1092 98 l 1
EndSplineSet
EndChar

StartChar: gravecomb
Encoding: 768 768 231
Width: 0
VWidth: 0
Flags: W
HStem: 990 330<-453 -435>
VStem: -629 300
AnchorPoint: "top" -400 1000 mark 0
LayerCount: 3
Fore
SplineSet
-329 990 m 25
 -453 990 l 25
 -629 1320 l 25
 -435 1320 l 25
 -329 990 l 25
EndSplineSet
EndChar

StartChar: acutecomb
Encoding: 769 769 232
Width: 0
VWidth: 0
Flags: W
HStem: 990 330<-365 -347>
VStem: -471 300
AnchorPoint: "top" -400 1000 mark 0
LayerCount: 3
Back
SplineSet
-446 990 m 29
 -340 1320 l 29
 -196 1320 l 29
 -372 990 l 29
 -446 990 l 29
EndSplineSet
Fore
SplineSet
-471 990 m 25
 -365 1320 l 25
 -171 1320 l 25
 -347 990 l 25
 -471 990 l 25
EndSplineSet
EndChar

StartChar: uni0302
Encoding: 770 770 233
Width: 0
VWidth: 0
Flags: W
HStem: 1019 292<-496.217 -456.291>
VStem: -628 503
AnchorPoint: "top" -400 1000 mark 0
LayerCount: 3
Back
SplineSet
-160 1019 m 5
 -279 1019 l 5
 -322 1067 -364 1146 -405 1205 c 5
 -447 1142 -487 1069 -531 1019 c 5
 -608 1019 l 5
 -554 1101 -505 1191 -444 1301 c 5
 -324 1301 l 5
 -269 1201 -217 1101 -160 1019 c 5
EndSplineSet
Fore
SplineSet
-125 1019 m 1
 -294 1019 l 1
 -325 1068 -370 1146 -405 1205 c 1
 -446 1140 -486 1076 -526 1019 c 1
 -628 1019 l 1
 -573 1107 -525 1201 -464 1311 c 1
 -289 1311 l 1
 -234 1211 -183 1107 -125 1019 c 1
EndSplineSet
EndChar

StartChar: tildecomb
Encoding: 771 771 234
Width: 0
VWidth: 0
Flags: W
HStem: 1089 131<-385.219 -210.642> 1161 136<-579.175 -395.062>
VStem: -183 48<1265.3 1304.29>
AnchorPoint: "top" -400 1000 mark 0
LayerCount: 3
Fore
SplineSet
-492 1297 m 0x60
 -458 1297 -426 1287 -399 1272 c 2
 -337 1239 l 2
 -314 1226 -295 1220 -274 1220 c 0
 -238 1220 -201 1256 -183 1312 c 1
 -135 1301 l 1
 -148 1223 -201 1089 -301 1089 c 0xa0
 -333 1089 -357 1096 -380 1108 c 2
 -444 1142 l 2
 -463 1152 -493 1161 -526 1161 c 0
 -560 1161 -596 1128 -611 1054 c 1
 -660 1065 l 1
 -658 1073 -617 1297 -492 1297 c 0x60
EndSplineSet
Layer: 2
SplineSet
-648 1072 m 1x60
 -648 1072 -608 1287 -492 1287 c 0x60
 -460 1287 -430 1277 -404 1263 c 2
 -342 1230 l 2
 -318 1217 -297 1210 -274 1210 c 0
 -207 1210 -176 1301 -176 1301 c 1
 -146 1294 l 1
 -149 1283 -187 1101 -301 1101 c 0xa0
 -329 1101 -353 1108 -376 1119 c 2
 -440 1151 l 2
 -461 1161 -493 1171 -526 1171 c 0
 -598 1171 -619 1065 -619 1065 c 1
 -648 1072 l 1x60
EndSplineSet
EndChar

StartChar: uni0304
Encoding: 772 772 235
Width: 0
VWidth: 0
Flags: W
HStem: 1138 110<-622 -151>
VStem: -622 471<1138 1248>
AnchorPoint: "top" -400 1000 mark 0
LayerCount: 3
Fore
SplineSet
-151 1138 m 1
 -622 1138 l 1
 -622 1248 l 1
 -151 1248 l 1
 -151 1138 l 1
EndSplineSet
Layer: 2
SplineSet
-151 1167 m 5
 -622 1167 l 5
 -622 1265 l 5
 -151 1265 l 5
 -151 1167 l 5
EndSplineSet
EndChar

StartChar: uni0306
Encoding: 774 774 236
Width: 0
VWidth: 0
Flags: W
HStem: 1024 112<-457.183 -289.944>
VStem: -624 140<1161.79 1301> -258 82<1173.71 1301>
AnchorPoint: "top" -400 1000 mark 0
LayerCount: 3
Fore
SplineSet
-372 1136 m 0
 -317 1136 -258 1187 -258 1289 c 0
 -258 1293 -258 1297 -258 1301 c 1
 -177 1301 l 1
 -176 1292 -176 1282 -176 1271 c 0
 -176 1169 -224 1024 -397 1024 c 0
 -503 1024 -624 1068 -624 1276 c 0
 -624 1284 -623 1292 -623 1301 c 1
 -484 1301 l 1
 -484 1287 l 2
 -484 1206 -454 1136 -372 1136 c 0
EndSplineSet
Layer: 2
SplineSet
-501 1260 m 4
 -499 1180 -436 1136 -372 1136 c 4
 -307 1136 -242 1181 -242 1281 c 4
 -242 1293 -243 1301 -243 1301 c 5
 -192 1301 l 5
 -192 1301 -190 1286 -190 1265 c 4
 -190 1111 -285 1034 -397 1034 c 4
 -509 1034 -604 1112 -604 1270 c 4
 -604 1288 -603 1301 -603 1301 c 5
 -499 1301 l 5
 -499 1301 -501 1284 -501 1260 c 4
EndSplineSet
EndChar

StartChar: uni0307
Encoding: 775 775 237
Width: 0
VWidth: 0
Flags: W
HStem: 1045 264<-427.698 -299.945>
VStem: -488 251<1108.2 1245.82>
AnchorPoint: "top" -400 1000 mark 0
LayerCount: 3
Fore
SplineSet
-237 1178 m 0
 -237 1138 -335 1045 -362 1045 c 0
 -403 1045 -488 1154 -488 1178 c 0
 -488 1208 -403 1309 -368 1309 c 0
 -336 1309 -237 1213 -237 1178 c 0
EndSplineSet
Layer: 2
SplineSet
-488 1176 m 4
 -488 1216 -390 1309 -363 1309 c 4
 -322 1309 -237 1200 -237 1176 c 4
 -237 1146 -322 1045 -357 1045 c 4
 -389 1045 -488 1141 -488 1176 c 4
EndSplineSet
EndChar

StartChar: uni0308
Encoding: 776 776 238
Width: 0
VWidth: 0
Flags: W
HStem: 1045 264<-633.055 -505.302 -276.055 -148.302>
VStem: -696 251<1108.18 1245.8> -339 251<1108.18 1245.8>
AnchorPoint: "top" -400 1000 mark 0
LayerCount: 3
Fore
SplineSet
-696 1176 m 0
 -696 1216 -598 1309 -571 1309 c 0
 -530 1309 -445 1200 -445 1176 c 0
 -445 1146 -530 1045 -565 1045 c 0
 -597 1045 -696 1141 -696 1176 c 0
-339 1176 m 0
 -339 1216 -241 1309 -214 1309 c 0
 -173 1309 -88 1200 -88 1176 c 0
 -88 1146 -173 1045 -208 1045 c 0
 -240 1045 -339 1141 -339 1176 c 0
EndSplineSet
Layer: 2
SplineSet
-629 1216 m 4
 -629 1244 -561 1303 -540 1303 c 4
 -503 1303 -455 1233 -455 1210 c 4
 -455 1178 -518 1125 -545 1125 c 4
 -568 1125 -629 1182 -629 1216 c 4
-329 1216 m 4
 -329 1244 -261 1303 -240 1303 c 4
 -203 1303 -155 1233 -155 1210 c 4
 -155 1178 -218 1125 -245 1125 c 4
 -268 1125 -329 1182 -329 1216 c 4
EndSplineSet
EndChar

StartChar: uni030A
Encoding: 778 778 239
Width: 0
VWidth: 0
Flags: W
HStem: 1003 91<-456.479 -319.084> 1245 96<-453.387 -319.583>
VStem: -562 100<1100.29 1238.78> -314 100<1097.86 1239.88>
AnchorPoint: "top" -400 1000 mark 0
LayerCount: 3
Fore
SplineSet
-214 1168 m 0
 -214 1080 -290 1003 -381 1003 c 0
 -471 1003 -562 1070 -562 1160 c 0
 -562 1242 -477 1341 -387 1341 c 0
 -293 1341 -214 1256 -214 1168 c 0
-385 1094 m 0
 -354 1094 -314 1107 -314 1169 c 0
 -314 1229 -357 1245 -387 1245 c 0
 -451 1245 -462 1184 -462 1164 c 0
 -462 1121 -432 1094 -385 1094 c 0
EndSplineSet
Layer: 2
SplineSet
-387 1332 m 0
 -313 1332 -250 1263 -250 1193 c 0
 -250 1123 -311 1062 -383 1062 c 0
 -455 1062 -526 1116 -526 1187 c 0
 -526 1253 -458 1332 -387 1332 c 0
-385 1124 m 0
 -355 1124 -319 1138 -319 1194 c 0
 -319 1251 -360 1265 -387 1265 c 0
 -446 1265 -457 1208 -457 1190 c 0
 -457 1150 -429 1124 -385 1124 c 0
EndSplineSet
EndChar

StartChar: uni030B
Encoding: 779 779 240
Width: 0
VWidth: 0
Flags: W
HStem: 990 330<-541 -523 -241 -223>
VStem: -647 600
AnchorPoint: "top" -400 1000 mark 0
LayerCount: 3
Fore
SplineSet
-347 990 m 25
 -241 1320 l 25
 -47 1320 l 25
 -223 990 l 25
 -347 990 l 25
-647 990 m 25
 -541 1320 l 25
 -347 1320 l 25
 -523 990 l 25
 -647 990 l 25
EndSplineSet
EndChar

StartChar: uni030C
Encoding: 780 780 241
Width: 0
VWidth: 0
Flags: W
HStem: 1019 292<-504.709 -464.783>
VStem: -661 503
AnchorPoint: "top" -400 1000 mark 0
LayerCount: 3
Fore
SplineSet
-661 1311 m 1
 -492 1311 l 1
 -461 1262 -416 1184 -381 1125 c 1
 -340 1190 -300 1254 -260 1311 c 1
 -158 1311 l 1
 -213 1223 -261 1129 -322 1019 c 1
 -497 1019 l 1
 -552 1119 -603 1223 -661 1311 c 1
EndSplineSet
EndChar

StartChar: uni0312
Encoding: 786 786 242
Width: 0
VWidth: 0
Flags: W
HStem: 933 416
VStem: -544 156<1030 1237.9>
AnchorPoint: "top" -400 1000 mark 0
LayerCount: 3
Fore
SplineSet
-388 1190 m 0
 -388 1094 -284 1092 -284 1060 c 0
 -284 1034 -380 933 -400 933 c 0
 -414 933 -544 965 -544 1095 c 0
 -544 1307 -326 1349 -308 1349 c 0
 -289 1349 -284 1334 -284 1328 c 0
 -284 1282 -388 1284 -388 1190 c 0
EndSplineSet
Layer: 2
SplineSet
-493 1104 m 4
 -493 1240 -349 1322 -296 1322 c 4
 -283 1322 -275 1317 -275 1307 c 4
 -275 1267 -386 1262 -386 1161 c 4
 -386 1080 -294 1095 -294 1069 c 4
 -294 1065 -297 1060 -301 1054 c 6
 -345 997 l 6
 -349 993 -362 978 -373 978 c 4
 -383 978 -399 985 -425 1000 c 4
 -463 1022 -493 1033 -493 1104 c 4
EndSplineSet
EndChar

StartChar: uni0315
Encoding: 789 789 243
Width: 0
VWidth: 1500
Flags: W
HStem: 1032 354
VStem: -470 100<1043.99 1079.08>
AnchorPoint: "commaright" -400 1342 mark 0
LayerCount: 3
Fore
SplineSet
-470 1046 m 25
 -434 1386 l 25
 -268 1367 l 25
 -370 1032 l 25
 -470 1046 l 25
EndSplineSet
Layer: 2
SplineSet
-470 1044 m 29
 -434 1384 l 29
 -305 1369 l 29
 -401 1034 l 29
 -470 1044 l 29
EndSplineSet
EndChar

StartChar: uni0326
Encoding: 806 806 244
Width: 0
VWidth: 0
Flags: W
HStem: -539 416
VStem: -412 156<-427.897 -220>
AnchorPoint: "cedilla" -400 -190 mark 0
LayerCount: 3
Fore
SplineSet
-412 -380 m 0
 -412 -284 -516 -282 -516 -250 c 0
 -516 -224 -420 -123 -400 -123 c 0
 -386 -123 -256 -155 -256 -285 c 0
 -256 -497 -474 -539 -492 -539 c 0
 -511 -539 -516 -524 -516 -518 c 0
 -516 -472 -412 -474 -412 -380 c 0
EndSplineSet
EndChar

StartChar: uni0327
Encoding: 807 807 245
Width: 0
VWidth: 0
Flags: W
HStem: -539 416
VStem: -412 156<-427.897 -220>
AnchorPoint: "cedilla" -400 -190 mark 0
LayerCount: 3
Fore
SplineSet
-412 -380 m 0
 -412 -284 -516 -282 -516 -250 c 0
 -516 -224 -420 -123 -400 -123 c 0
 -386 -123 -256 -155 -256 -285 c 0
 -256 -497 -474 -539 -492 -539 c 0
 -511 -539 -516 -524 -516 -518 c 0
 -516 -472 -412 -474 -412 -380 c 0
EndSplineSet
Layer: 2
SplineSet
-286 -282 m 4
 -286 -418 -430 -500 -483 -500 c 4
 -496 -500 -504 -495 -504 -485 c 4
 -504 -445 -393 -440 -393 -339 c 4
 -393 -258 -485 -273 -485 -247 c 4
 -485 -243 -482 -238 -478 -232 c 6
 -434 -175 l 6
 -430 -171 -417 -156 -406 -156 c 4
 -396 -156 -380 -163 -354 -178 c 4
 -316 -200 -286 -211 -286 -282 c 4
EndSplineSet
EndChar

StartChar: gravecomb.cap
Encoding: 65591 -1 284
Width: 0
VWidth: 0
Flags: W
HStem: 990 290<-453 -435>
VStem: -629 300
AnchorPoint: "top" -400 1000 mark 0
LayerCount: 3
Fore
SplineSet
-329 990 m 25
 -453 990 l 25
 -629 1280 l 25
 -435 1280 l 25
 -329 990 l 25
EndSplineSet
EndChar

StartChar: acutecomb.cap
Encoding: 65592 -1 285
Width: 0
VWidth: 0
Flags: W
HStem: 990 290<-365 -347>
VStem: -471 300
AnchorPoint: "top" -400 1000 mark 0
LayerCount: 3
Fore
SplineSet
-471 990 m 25
 -365 1280 l 25
 -171 1280 l 25
 -347 990 l 25
 -471 990 l 25
EndSplineSet
EndChar

StartChar: uni0302.cap
Encoding: 65593 -1 286
Width: 0
VWidth: 0
Flags: W
HStem: 1029 242<-503.717 -455.154>
VStem: -628 503
AnchorPoint: "top" -400 1000 mark 0
LayerCount: 3
Back
SplineSet
-160 1029 m 5
 -279 1029 l 5
 -322 1077 -354 1115 -405 1175 c 5
 -456 1115 -487 1079 -531 1029 c 5
 -608 1029 l 5
 -546 1115 -516 1161 -444 1271 c 5
 -324 1271 l 5
 -260 1171 -220 1113 -160 1029 c 5
EndSplineSet
Fore
SplineSet
-125 1029 m 1
 -294 1029 l 1
 -334 1076 -354 1108 -405 1175 c 1
 -454 1112 -482 1079 -526 1029 c 1
 -628 1029 l 1
 -566 1115 -536 1161 -464 1271 c 1
 -289 1271 l 1
 -225 1171 -185 1113 -125 1029 c 1
EndSplineSet
EndChar

StartChar: uni030C.cap
Encoding: 65594 -1 287
Width: 0
VWidth: 0
Flags: W
HStem: 1029 242<-505.846 -457.283>
VStem: -661 503
AnchorPoint: "top" -400 1000 mark 0
LayerCount: 3
Fore
SplineSet
-661 1271 m 1
 -492 1271 l 1
 -452 1224 -432 1192 -381 1125 c 1
 -332 1188 -304 1221 -260 1271 c 1
 -158 1271 l 1
 -220 1185 -250 1139 -322 1029 c 1
 -497 1029 l 1
 -561 1129 -601 1187 -661 1271 c 1
EndSplineSet
EndChar

StartChar: uni0307.cap
Encoding: 65595 -1 288
Width: 0
VWidth: 0
Flags: W
HStem: 990 264<-450.055 -322.302>
VStem: -513 251<1053.18 1190.8>
AnchorPoint: "top" -400 1000 mark 0
LayerCount: 3
Fore
SplineSet
-513 1121 m 0
 -513 1161 -415 1254 -388 1254 c 0
 -347 1254 -262 1145 -262 1121 c 0
 -262 1091 -347 990 -382 990 c 0
 -414 990 -513 1086 -513 1121 c 0
EndSplineSet
Layer: 2
SplineSet
-513 1121 m 4
 -513 1161 -415 1254 -388 1254 c 4
 -347 1254 -262 1145 -262 1121 c 4
 -262 1091 -347 990 -382 990 c 4
 -414 990 -513 1086 -513 1121 c 4
EndSplineSet
EndChar

StartChar: uni030A.cap
Encoding: 65596 -1 289
Width: 0
VWidth: 0
Flags: W
HStem: 957 91<-466.479 -329.084> 1199 96<-463.387 -329.583>
VStem: -572 100<1054.29 1192.78> -324 100<1051.86 1193.88>
AnchorPoint: "top" -400 1000 mark 0
LayerCount: 3
Fore
SplineSet
-224 1122 m 0
 -224 1034 -300 957 -391 957 c 0
 -481 957 -572 1024 -572 1114 c 0
 -572 1196 -487 1295 -397 1295 c 0
 -303 1295 -224 1210 -224 1122 c 0
-395 1048 m 0
 -364 1048 -324 1061 -324 1123 c 0
 -324 1183 -367 1199 -397 1199 c 0
 -461 1199 -472 1138 -472 1118 c 0
 -472 1075 -442 1048 -395 1048 c 0
EndSplineSet
EndChar

StartChar: uni0308.cap
Encoding: 65597 -1 290
Width: 0
VWidth: 0
Flags: W
HStem: 990 264<-638.055 -510.302 -281.055 -153.302>
VStem: -701 251<1053.18 1190.8> -344 251<1053.18 1190.8>
AnchorPoint: "top" -400 1000 mark 0
LayerCount: 3
Fore
SplineSet
-701 1121 m 0
 -701 1161 -603 1254 -576 1254 c 0
 -535 1254 -450 1145 -450 1121 c 0
 -450 1091 -535 990 -570 990 c 0
 -602 990 -701 1086 -701 1121 c 0
-344 1121 m 0
 -344 1161 -246 1254 -219 1254 c 0
 -178 1254 -93 1145 -93 1121 c 0
 -93 1091 -178 990 -213 990 c 0
 -245 990 -344 1086 -344 1121 c 0
EndSplineSet
EndChar

StartChar: uni030B.cap
Encoding: 65598 -1 291
Width: 0
VWidth: 0
Flags: W
HStem: 990 290<-531 -513 -231 -213>
VStem: -637 600
AnchorPoint: "top" -400 1000 mark 0
LayerCount: 3
Fore
SplineSet
-337 990 m 25
 -231 1280 l 25
 -37 1280 l 25
 -213 990 l 25
 -337 990 l 25
-637 990 m 25
 -531 1280 l 25
 -337 1280 l 25
 -513 990 l 25
 -637 990 l 25
EndSplineSet
EndChar

StartChar: uni0304.cap
Encoding: 65599 -1 292
Width: 0
VWidth: 0
Flags: W
HStem: 1088 110<-623 -152>
VStem: -623 471<1088 1198>
AnchorPoint: "top" -400 1000 mark 0
LayerCount: 3
Fore
SplineSet
-152 1088 m 1
 -623 1088 l 1
 -623 1198 l 1
 -152 1198 l 1
 -152 1088 l 1
EndSplineSet
EndChar

StartChar: uni0306.cap
Encoding: 65600 -1 293
Width: 0
VWidth: 0
Flags: W
HStem: 1024 112<-457.372 -286.085>
VStem: -623 139<1162.8 1271> -258 81<1168.06 1271>
AnchorPoint: "top" -400 1000 mark 0
LayerCount: 3
Fore
SplineSet
-177 1271 m 1
 -177 1254 l 2
 -177 1062 -315 1024 -395 1024 c 0
 -532 1024 -623 1106 -623 1271 c 1
 -484 1271 l 1
 -484 1222 -465 1136 -368 1136 c 0
 -305 1136 -258 1194 -258 1271 c 1
 -177 1271 l 1
EndSplineSet
Layer: 2
SplineSet
-192 1271 m 5
 -192 1258 l 6
 -192 1119 -252 1034 -395 1034 c 4
 -561 1034 -604 1153 -604 1224 c 4
 -604 1238 -603 1255 -603 1271 c 5
 -499 1271 l 5
 -499 1254 l 6
 -499 1194 -484 1136 -368 1136 c 4
 -309 1136 -242 1174 -242 1256 c 4
 -242 1261 -243 1266 -243 1271 c 5
 -192 1271 l 5
EndSplineSet
EndChar

StartChar: tildecomb.cap
Encoding: 65601 -1 294
Width: 0
VWidth: 0
Flags: W
HStem: 1054 131<-385.219 -210.642> 1126 136<-579.175 -395.062>
VStem: -183 48<1230.3 1269.29>
AnchorPoint: "top" -400 1000 mark 0
LayerCount: 3
Fore
SplineSet
-492 1262 m 0x60
 -458 1262 -426 1252 -399 1237 c 2
 -337 1204 l 2
 -314 1191 -295 1185 -274 1185 c 0
 -238 1185 -201 1221 -183 1277 c 1
 -135 1266 l 1
 -148 1188 -201 1054 -301 1054 c 0xa0
 -333 1054 -357 1061 -380 1073 c 2
 -444 1107 l 2
 -463 1117 -493 1126 -526 1126 c 0
 -560 1126 -596 1093 -611 1019 c 1
 -660 1030 l 1
 -658 1038 -617 1262 -492 1262 c 0x60
EndSplineSet
Layer: 2
SplineSet
-643 1042 m 5x60
 -643 1042 -603 1257 -487 1257 c 4x60
 -455 1257 -425 1247 -399 1233 c 6
 -337 1200 l 6
 -313 1187 -292 1180 -269 1180 c 4
 -202 1180 -171 1271 -171 1271 c 5
 -141 1264 l 5
 -144 1253 -182 1071 -296 1071 c 4xa0
 -324 1071 -348 1078 -371 1089 c 6
 -435 1121 l 6
 -456 1131 -488 1141 -521 1141 c 4
 -593 1141 -614 1035 -614 1035 c 5
 -643 1042 l 5x60
EndSplineSet
EndChar

StartChar: periodcentered
Encoding: 183 183 428
Width: 414
VWidth: 0
Flags: W
HStem: 552 264<146.302 274.055>
VStem: 86 251<615.201 752.818>
LayerCount: 3
Fore
SplineSet
337 685 m 0
 337 645 239 552 212 552 c 0
 171 552 86 661 86 685 c 0
 86 715 171 816 206 816 c 0
 238 816 337 720 337 685 c 0
EndSplineSet
EndChar

StartChar: longs
Encoding: 383 383 431
Width: 671
VWidth: 0
Flags: W
HStem: 0 75<64 202.982 439.97 594> 702 100<114 204> 1400 94<457.578 613>
VStem: 204 235<76.9512 702 802 1279.49>
LayerCount: 3
Fore
SplineSet
205 802 m 1
 205 1024 l 2
 205 1428 423 1494 574 1494 c 0
 652 1494 755 1447 755 1380 c 0
 755 1347 674 1242 626 1242 c 0
 584 1242 568 1400 514 1400 c 0
 439 1400 439 1298 439 1206 c 2
 439 138 l 2
 439 67 445 77 596 75 c 1
 594 0 l 1
 64 0 l 1
 61 75 l 1
 186 78 204 66 204 132 c 2
 204 702 l 1
 90 702 l 1
 114 802 l 1
 205 802 l 1
EndSplineSet
EndChar

StartChar: thorn
Encoding: 254 254 432
Width: 1084
VWidth: 0
Flags: MW
HStem: -530 75<18 160.476 396.374 617> -12 86<435.927 719.454> 684 136<517.907 804> 1469 20G<342.5 396>
VStem: 161 235<-451.283 18 113.781 649.105 694 1328.98> 805 240<208.613 545.559>
LayerCount: 3
Back
SplineSet
161 -406 m 6
 161 1222 l 6
 161 1306 153 1329 123 1329 c 4
 106 1329 73 1318 15 1310 c 5
 8 1389 l 5
 177 1420 289 1455 396 1489 c 5
 396 694 l 5
 397 695 523 820 695 820 c 4
 913 820 1045 611 1045 402 c 4
 1045 248 958 -12 608 -12 c 4
 474 -12 396 18 396 18 c 5
 396 -404 l 6
 396 -458 404 -454 618 -455 c 5
 617 -530 l 5
 18 -530 l 5
 18 -455 l 5
 144 -454 161 -458 161 -406 c 6
396 150 m 5
 396 150 451 74 596 74 c 4
 749 74 805 196 805 347 c 4
 805 509 721 684 561 684 c 4
 447 684 396 607 396 607 c 5
 396 150 l 5
EndSplineSet
Fore
SplineSet
161 -406 m 2
 161 1222 l 2
 161 1306 153 1329 123 1329 c 0
 106 1329 73 1318 15 1310 c 1
 12 1390 l 1
 181 1421 289 1455 396 1489 c 1
 396 694 l 1
 397 695 523 820 695 820 c 0
 913 820 1045 611 1045 402 c 0
 1045 248 958 -12 608 -12 c 0
 474 -12 396 18 396 18 c 1
 396 -404 l 2
 396 -458 404 -454 618 -455 c 1
 617 -530 l 1
 18 -530 l 1
 18 -455 l 1
 144 -454 161 -458 161 -406 c 2
396 150 m 1
 396 150 451 74 596 74 c 0
 749 74 805 196 805 347 c 0
 805 509 721 684 561 684 c 0
 447 684 396 607 396 607 c 1
 396 150 l 1
EndSplineSet
EndChar

StartChar: lacute
Encoding: 314 314 434
Width: 639
VWidth: 0
Flags: MW
HStem: 0 75<64 200.09 438.516 604> 1469 20G<383.5 437>
VStem: 202 235<79.5728 1328.98>
LayerCount: 3
Back
SplineSet
210 1490 m 29
 316 1780 l 29
 510 1780 l 29
 334 1490 l 29
 210 1490 l 29
EndSplineSet
Fore
SplineSet
49 1389 m 1
 218 1420 330 1455 437 1489 c 1
 437 130 l 2
 437 70 466 79 604 75 c 1
 604 0 l 1
 64 0 l 1
 64 75 l 1
 162 76 202 69 202 131 c 2
 202 1222 l 2
 202 1306 194 1329 164 1329 c 0
 147 1329 114 1318 56 1310 c 1
 49 1389 l 1
215 1504 m 25
 316 1780 l 25
 510 1780 l 25
 362 1536 l 25
 215 1504 l 25
EndSplineSet
EndChar

StartChar: Thorn
Encoding: 222 222 453
Width: 1377
VWidth: 0
Flags: W
HStem: 0 90<71 234.1 529.479 734> 269 93<527.052 891.875> 1009 99<528.821 812.722> 1275 90<57 235.295 530.157 707>
VStem: 237 290<95.0535 302 375.596 1007.72 1108 1268.99> 998 272<500.429 831.091>
LayerCount: 3
Fore
SplineSet
623 1009 m 2
 603 1009 l 2
 539 1009 527 1003 527 927 c 2
 527 392 l 1
 527 392 570 362 710 362 c 0
 925 362 998 469 998 658 c 0
 998 869 837 1009 623 1009 c 2
527 302 m 1
 527 179 l 2
 527 80 540 92 734 90 c 1
 736 0 l 1
 71 0 l 1
 70 90 l 1
 216 93 237 77 237 181 c 2
 237 1206 l 2
 237 1280 204 1272 57 1275 c 1
 57 1365 l 1
 707 1365 l 1
 707 1275 l 1
 550 1272 527 1288 527 1184 c 2
 527 1108 l 1
 776 1108 l 2
 976 1108 1270 1071 1270 687 c 0
 1270 507 1160 269 770 269 c 0
 626 269 527 302 527 302 c 1
EndSplineSet
Position2: "'cpsp' Capital Spacing in Latin lookup 1 subtable" dx=10 dy=0 dh=21 dv=0
EndChar

StartChar: germandbls
Encoding: 223 223 456
Width: 1169
VWidth: 0
Flags: HW
HStem: -48 21G<585.5 656> -9 89<64 203.872 433.013 544 695.15 924.98> 702 100<114 204> 1402 93<498.032 724.207>
VStem: 204 235<76.9512 702 802 1259.04> 538 134<657.5 894.981> 561 59<209.256 287> 588 68<-47 16.1931> 783 136<1160.48 1341.62> 943 180<124.079 279.779>
LayerCount: 3
Fore
SplineSet
676 21 m 0xfcc0
 659 21 653 3 654 -18 c 0
 654 -29 656 -40 656 -47 c 1
 588 -48 l 1xf9c0
 583 76 578 138 561 287 c 1
 620 289 l 1xfac0
 636 200 l 2
 648 132 754 80 836 80 c 0
 896 80 943 118 943 182 c 0
 943 267 810 371 766 407 c 0
 651 501 538 567 538 748 c 0
 538 953 783 1070 783 1212 c 0
 783 1310 721 1401 614 1402 c 0
 528 1402 439 1344 439 1206 c 2
 439 138 l 2
 439 112 433 97 433 88 c 0
 433 73 451 76 546 75 c 1
 544 0 l 1
 64 0 l 1
 61 75 l 1
 186 78 204 66 204 132 c 2
 204 702 l 1
 90 702 l 1
 114 802 l 1
 205 802 l 1
 205 1024 l 2
 205 1380 414 1495 592 1495 c 0
 867 1495 919 1335 919 1265 c 0
 919 1137 672 999 672 871 c 0
 672 794 750 720 849 639 c 0
 977 535 1123 453 1123 270 c 0
 1123 127 1002 -9 835 -9 c 0
 740 -9 700 21 676 21 c 0xfcc0
EndSplineSet
Layer: 2
SplineSet
926 1201 m 0
 926 1064 681 961 679 808 c 0
 679 758 704 694 842 559 c 2
 926 477 l 2
 1012 393 1095 328 1095 211 c 0
 1095 138 1062 -15 816 -15 c 0
 772 -15 725 -7 699 2 c 0
 690 5 660 23 660 -16 c 0
 660 -23 661 -30 662 -38 c 1
 601 -41 l 1
 565 248 l 1
 629 253 l 1
 650 122 l 1
 650 122 746 53 837 53 c 0
 886 53 948 85 948 156 c 0
 948 212 906 285 796 388 c 2
 732 448 l 2
 696 482 582 578 582 739 c 0
 582 864 657 929 724 1008 c 0
 755 1045 809 1087 809 1145 c 0
 809 1346 673 1401 606 1401 c 0
 584 1401 563 1396 546 1388 c 0
 444 1339 438 1124 438 1074 c 2
 438 128 l 2
 438 59 457 66 523 65 c 1
 523 0 l 1
 167 0 l 1
 165 65 l 1
 267 69 294 54 294 120 c 2
 294 704 l 1
 180 704 l 1
 209 802 l 1
 295 802 l 1
 295 1023 l 2
 295 1134 300 1320 495 1440 c 0
 544 1470 606 1483 664 1483 c 0
 829 1483 926 1338 926 1201 c 0
EndSplineSet
EndChar

StartChar: f_thorn
Encoding: 65604 -1 464
Width: 1756
VWidth: 0
Flags: W
HStem: -530 75<679 821.476 1057.37 1278> -12 86<61 183.948 419.982 584 1096.93 1380.45> 684 136<1178.91 1465> 702 100<61 184 419 629> 1408 76<474.688 621.817>
VStem: 184 235<77.5137 702 802 1271.73> 822 235<-451.283 18 113.781 649.105 694 1329> 1466 240<208.613 545.559>
LayerCount: 3
Fore
SplineSet
822 1329 m 1xef
 786 1285 728 1233 694 1233 c 0
 618 1233 680 1408 546 1408 c 0
 426 1408 418 1208 418 1116 c 2
 418 802 l 1
 632 802 l 1
 629 702 l 1
 419 702 l 1
 419 138 l 2
 419 67 435 77 586 75 c 1
 584 0 l 1
 61 0 l 1
 61 75 l 1
 182 77 184 71 184 126 c 2
 184 702 l 1
 61 702 l 1
 61 802 l 1
 185 802 l 1xdf
 185 1024 l 2
 185 1414 414 1484 557 1484 c 0
 621 1484 762 1460 824 1422 c 1
 914 1444 987 1467 1057 1489 c 1
 1057 694 l 1
 1058 695 1184 820 1356 820 c 0
 1574 820 1706 611 1706 402 c 0
 1706 248 1619 -12 1269 -12 c 0
 1135 -12 1057 18 1057 18 c 1
 1057 -404 l 2
 1057 -458 1065 -454 1279 -455 c 1
 1278 -530 l 1
 679 -530 l 1
 679 -455 l 1
 805 -454 822 -458 822 -406 c 2
 822 1329 l 1xef
1057 150 m 1
 1057 150 1112 74 1257 74 c 0
 1410 74 1466 196 1466 347 c 0
 1466 509 1382 684 1222 684 c 0xef
 1108 684 1057 607 1057 607 c 1
 1057 150 l 1
EndSplineSet
Ligature2: "'liga' Standard Ligatures in Latin lookup 8 subtable" f thorn
LCarets2: 1 0 
EndChar

StartChar: f_f_thorn
Encoding: 65605 -1 465
Width: 2202
VWidth: 0
Flags: W
HStem: -530 75<1116 1258.48 1494.37 1715> 0 75<30 144.279 381.681 529 577 700.889 940.555 1073 1539.81 1813.18> 684 136<1615.91 1902> 702 100<28 145 380 702 937 1137> 1339 77<443.193 616.293> 1390 86<988.137 1131.11>
VStem: 145 235<77.7815 702 802 1229.19> 702 235<78.7581 702 802 1145.31> 1259 235<-451.283 18 113.781 649.105 694 1221> 1903 240<208.613 545.559>
LayerCount: 3
Fore
SplineSet
1259 1221 m 1xe7c0
 1243 1217 1228 1212 1214 1212 c 0
 1186 1212 1172 1226 1161 1264 c 0
 1146 1317 1132 1390 1070 1390 c 0xe7c0
 954 1390 936 1234 936 1111 c 2
 936 802 l 1
 1137 802 l 1
 1137 702 l 1
 937 702 l 1
 937 138 l 2
 937 69 986 76 1075 75 c 1
 1073 0 l 1
 577 0 l 1
 574 75 l 1
 681 78 702 68 702 132 c 2
 702 702 l 1
 380 702 l 1
 380 138 l 2
 380 67 398 78 529 75 c 1
 530 0 l 1
 30 0 l 1
 28 75 l 1
 133 76 145 70 145 132 c 2
 145 702 l 1
 25 702 l 1
 28 802 l 1
 146 802 l 1
 146 1029 l 2
 146 1234 244 1331 350 1377 c 0
 402 1400 467 1416 537 1416 c 0xdbc0
 625 1416 734 1387 793 1338 c 1
 793 1338 890 1476 1065 1476 c 0
 1120 1476 1193 1454 1264 1423 c 1
 1352 1445 1424 1467 1494 1489 c 1
 1494 694 l 1
 1495 695 1621 820 1793 820 c 0
 2011 820 2143 611 2143 402 c 0
 2143 248 2056 -12 1706 -12 c 0
 1572 -12 1494 18 1494 18 c 1
 1494 -404 l 2
 1494 -458 1502 -454 1716 -455 c 1
 1715 -530 l 1
 1116 -530 l 1
 1116 -455 l 1
 1242 -454 1259 -458 1259 -406 c 2
 1259 1221 l 1xe7c0
1494 150 m 1
 1494 150 1549 74 1694 74 c 0
 1847 74 1903 196 1903 347 c 0
 1903 509 1819 684 1659 684 c 0
 1545 684 1494 607 1494 607 c 1
 1494 150 l 1
703 802 m 1xdbc0
 703 986 l 2
 703 1014 708 1112 715 1147 c 1
 697 1150 666 1188 648 1242 c 0
 632 1291 604 1339 538 1339 c 0
 392 1339 379 1162 379 1080 c 2
 379 802 l 1
 703 802 l 1xdbc0
EndSplineSet
Ligature2: "'liga' Standard Ligatures in Latin lookup 8 subtable" f f thorn
LCarets2: 2 0 0 
EndChar

StartChar: longs_i
Encoding: 65606 -1 466
Width: 1207
VWidth: 0
Flags: MW
HStem: 0 75<50 171.064 410.397 599 655 808.268 1045.91 1183> 702 100<82 172> 808 20G<979.5 1044> 1390 86<529.405 761.746>
VStem: 172 235<80.0494 702 802 1241.63> 809 235<78.0843 700.99>
LayerCount: 3
Fore
SplineSet
173 802 m 1
 173 1029 l 2
 173 1171 217 1268 280 1334 c 0
 381 1441 564 1476 675 1476 c 0
 800 1476 971 1399 971 1343 c 0
 971 1310 905 1190 857 1190 c 0
 777 1190 834 1390 656 1390 c 0
 420 1390 407 1085 407 993 c 2
 407 138 l 2
 407 67 450 77 601 75 c 1
 599 0 l 1
 47 0 l 1
 50 75 l 1
 155 76 172 70 172 132 c 2
 172 702 l 1
 58 702 l 1
 82 802 l 1
 173 802 l 1
666 749 m 1
 786 769 915 795 1044 828 c 1
 1044 131 l 2
 1044 70 1084 76 1183 75 c 1
 1183 0 l 1
 655 0 l 1
 655 75 l 1
 770 76 809 70 809 124 c 2
 809 661 l 2
 809 687 800 701 783 701 c 0
 778 701 669 681 669 681 c 1
 666 749 l 1
EndSplineSet
Ligature2: "'liga' Standard Ligatures in Latin lookup 8 subtable" longs i
LCarets2: 1 0 
EndChar

StartChar: longs_l
Encoding: 65607 -1 467
Width: 1207
VWidth: 0
Flags: W
HStem: 0 75<61 183.755 420.626 584 669 819.445 1058.46 1196> 702 100<94 184> 1408 76<474.775 621.817>
VStem: 184 235<77.5232 702 802 1271.73> 822 235<79.2366 1329>
LayerCount: 3
Fore
SplineSet
185 802 m 1
 185 1024 l 2
 185 1414 414 1484 557 1484 c 0
 621 1484 762 1460 824 1422 c 1
 914 1444 987 1467 1057 1489 c 1
 1057 130 l 2
 1057 70 1086 78 1196 75 c 1
 1196 0 l 1
 669 0 l 1
 669 75 l 1
 767 76 822 69 822 131 c 2
 822 1329 l 1
 786 1285 728 1233 694 1233 c 0
 618 1233 680 1408 546 1408 c 0
 426 1408 419 1208 419 1116 c 2
 419 138 l 2
 419 67 435 77 586 75 c 1
 584 0 l 1
 61 0 l 1
 61 75 l 1
 178 79 184 71 184 126 c 2
 184 702 l 1
 70 702 l 1
 94 802 l 1
 185 802 l 1
EndSplineSet
Ligature2: "'liga' Standard Ligatures in Latin lookup 8 subtable" longs l
LCarets2: 1 0 
EndChar

StartChar: longs_longs
Encoding: 65608 -1 468
Width: 1255
VWidth: 0
Flags: W
HStem: 0 75<64 202.982 441.282 616 684 824.982 1064.39 1205> 702 100<114 204 736 826> 1344 78<516.358 685.938> 1391 91<1094.41 1216.79>
VStem: 204 235<78.5222 702 802 1220.34> 826 235<79.2287 702 802 1187.79>
LayerCount: 3
Fore
SplineSet
826 702 m 1xdc
 712 702 l 1
 736 802 l 1
 827 802 l 1
 827 1024 l 2
 827 1088 833 1143 843 1190 c 1
 824 1168 803 1152 784 1152 c 0
 708 1152 748 1344 600 1344 c 0
 444 1344 439 1084 439 992 c 2
 439 138 l 2
 439 67 465 77 616 75 c 1
 616 0 l 1
 64 0 l 1
 61 75 l 1
 186 78 204 70 204 132 c 2
 204 702 l 1
 90 702 l 1
 114 802 l 1
 205 802 l 1
 205 1024 l 2
 205 1342 458 1422 616 1422 c 0xec
 702 1422 853 1372 888 1314 c 1
 932 1405 1067 1482 1197 1482 c 0
 1298 1482 1408 1427 1408 1365 c 0
 1408 1332 1330 1224 1292 1224 c 0
 1242 1224 1239 1391 1160 1391 c 0
 1104 1391 1061 1319 1061 1196 c 2
 1061 138 l 2
 1061 67 1107 78 1205 75 c 1
 1206 0 l 1
 684 0 l 1
 683 75 l 1
 808 78 826 72 826 132 c 2
 826 702 l 1xdc
EndSplineSet
Ligature2: "'liga' Standard Ligatures in Latin lookup 8 subtable" longs longs
LCarets2: 1 0 
EndChar

StartChar: longs_longs_i
Encoding: 65609 -1 469
Width: 1655
VWidth: 0
Flags: HMW
HStem: 0 75<30 144.279 381.681 529 577 700.889 940.555 1073 1105 1258.27 1495.91 1633> 808 20G<1429.5 1494> 1339 77<443.29 617.257> 1392 86<1029.61 1254.63>
VStem: 145 235<77.7815 138 1029 1229.19> 702 235<78.7581 138 981 1145.32> 1259 235<78.0843 700.99>
CounterMasks: 1 0e
LayerCount: 3
Fore
SplineSet
702 702 m 1xee
 588 702 l 1
 612 802 l 1
 703 802 l 1
 703 981 l 2
 703 1024 713 1112 720 1147 c 1
 702 1150 666 1188 648 1242 c 0
 632 1291 604 1339 538 1339 c 0
 392 1339 380 1162 380 1080 c 2
 380 138 l 2
 380 67 398 78 529 75 c 1
 530 0 l 1
 30 0 l 1
 28 75 l 1
 133 76 145 70 145 132 c 2
 145 702 l 1
 31 702 l 1
 55 802 l 1
 146 802 l 1
 146 1029 l 2
 146 1234 244 1331 350 1377 c 0
 402 1400 467 1416 537 1416 c 0
 625 1416 744 1375 803 1326 c 1
 898 1435 1060 1478 1172 1478 c 0xde
 1297 1478 1432 1411 1432 1351 c 0
 1432 1311 1400 1183 1352 1183 c 0
 1272 1183 1331 1392 1153 1392 c 0
 950 1392 937 1164 937 1042 c 2
 937 138 l 2
 937 69 986 76 1075 75 c 1
 1073 0 l 1
 577 0 l 1
 574 75 l 1
 681 78 702 68 702 132 c 2
 702 702 l 1xee
1116 749 m 1
 1236 769 1365 795 1494 828 c 1
 1494 131 l 2
 1494 70 1534 76 1633 75 c 1
 1633 0 l 1
 1105 0 l 1
 1105 75 l 1
 1220 76 1259 70 1259 124 c 2
 1259 661 l 2
 1259 687 1250 701 1233 701 c 0
 1228 701 1119 681 1119 681 c 1
 1116 749 l 1
EndSplineSet
Ligature2: "'liga' Standard Ligatures in Latin lookup 8 subtable" longs longs i
LCarets2: 2 0 0 
EndChar

StartChar: longs_longs_l
Encoding: 65610 -1 470
Width: 1655
VWidth: 0
Flags: W
HStem: 0 75<30 144.279 381.681 529 577 700.889 940.555 1073 1121 1257.09 1495.01 1633> 702 100<55 145 612 702> 1339 77<443.29 616.293> 1390 86<988.253 1131.11>
VStem: 145 235<77.7815 702 802 1229.19> 702 235<78.7581 702 802 1145.31> 1259 235<79.5728 1221>
CounterMasks: 1 0e
LayerCount: 3
Fore
SplineSet
702 702 m 1xde
 588 702 l 1
 612 802 l 1
 703 802 l 1
 703 986 l 2
 703 1014 708 1112 715 1147 c 1
 697 1150 666 1188 648 1242 c 0
 632 1291 604 1339 538 1339 c 0
 392 1339 380 1162 380 1080 c 2
 380 138 l 2
 380 67 398 78 529 75 c 1
 530 0 l 1
 30 0 l 1
 28 75 l 1
 133 76 145 70 145 132 c 2
 145 702 l 1
 31 702 l 1
 55 802 l 1
 146 802 l 1
 146 1029 l 2
 146 1234 244 1331 350 1377 c 0
 402 1400 467 1416 537 1416 c 0xee
 625 1416 734 1387 793 1338 c 1
 793 1338 890 1476 1065 1476 c 0
 1120 1476 1193 1454 1264 1423 c 1
 1352 1445 1424 1467 1494 1489 c 1
 1494 130 l 2
 1494 70 1512 82 1633 75 c 1
 1633 0 l 1
 1121 0 l 1
 1121 75 l 1
 1219 76 1259 69 1259 131 c 2
 1259 1221 l 1
 1243 1217 1228 1212 1214 1212 c 0
 1186 1212 1172 1226 1161 1264 c 0
 1146 1317 1132 1390 1070 1390 c 0
 954 1390 937 1234 937 1111 c 2
 937 138 l 2
 937 69 986 76 1075 75 c 1
 1073 0 l 1
 577 0 l 1
 574 75 l 1
 681 78 702 68 702 132 c 2
 702 702 l 1xde
EndSplineSet
Ligature2: "'liga' Standard Ligatures in Latin lookup 8 subtable" longs longs l
LCarets2: 2 0 0 
EndChar

StartChar: longs_j
Encoding: 65611 -1 471
Width: 1207
VWidth: 0
Flags: W
HStem: -530 122<656.878 773.599> 0 75<50 171.105 410.397 599> 677 78<667.265 774.906> 702 100<82 172> 808 20G<977.5 1044> 1390 86<529.405 761.746>
VStem: 172 235<80.0288 702 802 1241.63> 809 235<-290.797 694.98>
LayerCount: 3
Fore
SplineSet
173 802 m 1xdf
 173 1029 l 2
 173 1171 217 1268 280 1334 c 0
 381 1441 564 1476 675 1476 c 0
 800 1476 971 1399 971 1343 c 0
 971 1310 905 1190 857 1190 c 0
 777 1190 834 1390 656 1390 c 0
 420 1390 407 1085 407 993 c 2
 407 138 l 2
 407 67 450 77 601 75 c 1
 599 0 l 1
 47 0 l 1
 50 75 l 1
 156 79 172 69 172 132 c 2
 172 702 l 1
 58 702 l 1
 82 802 l 1
 173 802 l 1xdf
441 -413 m 0
 441 -358 488 -293 516 -264 c 0
 528 -251 540 -247 555 -247 c 0
 587 -247 603 -274 615 -295 c 0
 656 -365 676 -408 721 -408 c 0
 790 -408 809 -269 809 -64 c 2
 809 629 l 2
 809 668 805 695 775 695 c 0
 773 695 770 694 767 694 c 0
 746 691 727 687 668 677 c 1
 664 755 l 1xef
 754 770 911 797 1044 828 c 1
 1044 -99 l 2
 1044 -394 788 -530 676 -530 c 0
 604 -530 441 -507 441 -413 c 0
EndSplineSet
Ligature2: "'liga' Standard Ligatures in Latin lookup 8 subtable" longs j
LCarets2: 1 0 
EndChar

StartChar: longs_longs_j
Encoding: 65612 -1 472
Width: 1655
VWidth: 0
Flags: W
HStem: -530 122<1106.88 1223.6> 0 75<30 144.279 381.681 529 577 700.889 940.555 1073> 677 78<1117.26 1224.91> 702 100<55 145 612 702> 808 20G<1427.5 1494> 1339 77<443.29 617.257> 1392 86<1029.61 1254.63>
VStem: 145 235<77.7815 702 802 1229.19> 702 235<78.7581 702 802 1145.32> 1259 235<-290.797 694.98>
CounterMasks: 1 01c0
LayerCount: 3
Fore
SplineSet
702 702 m 1xdbc0
 588 702 l 1
 612 802 l 1
 703 802 l 1
 703 981 l 2
 703 1024 713 1112 720 1147 c 1
 702 1150 666 1188 648 1242 c 0
 632 1291 604 1339 538 1339 c 0
 392 1339 380 1162 380 1080 c 2
 380 138 l 2
 380 67 398 78 529 75 c 1
 530 0 l 1
 30 0 l 1
 28 75 l 1
 133 76 145 70 145 132 c 2
 145 702 l 1
 31 702 l 1
 55 802 l 1
 146 802 l 1
 146 1029 l 2
 146 1234 244 1331 350 1377 c 0
 402 1400 467 1416 537 1416 c 0xddc0
 625 1416 744 1375 803 1326 c 1
 898 1435 1060 1478 1172 1478 c 0
 1297 1478 1432 1411 1432 1351 c 0
 1432 1311 1400 1183 1352 1183 c 0
 1272 1183 1331 1392 1153 1392 c 0
 950 1392 937 1164 937 1042 c 2
 937 138 l 2
 937 69 986 76 1075 75 c 1
 1073 0 l 1
 577 0 l 1
 574 75 l 1
 681 78 702 68 702 132 c 2
 702 702 l 1xdbc0
891 -413 m 0
 891 -358 938 -293 966 -264 c 0
 978 -251 990 -247 1005 -247 c 0
 1037 -247 1053 -274 1065 -295 c 0
 1106 -365 1126 -408 1171 -408 c 0
 1240 -408 1259 -269 1259 -64 c 2
 1259 629 l 2
 1259 668 1255 695 1225 695 c 0
 1223 695 1220 694 1217 694 c 0
 1196 691 1177 687 1118 677 c 1
 1114 755 l 1xe9c0
 1204 770 1361 797 1494 828 c 1
 1494 -99 l 2
 1494 -394 1238 -530 1126 -530 c 0
 1054 -530 891 -507 891 -413 c 0
EndSplineSet
Ligature2: "'liga' Standard Ligatures in Latin lookup 8 subtable" longs longs j
LCarets2: 2 0 0 
EndChar

StartChar: longs_b
Encoding: 65613 -1 473
Width: 1745
VWidth: 0
Flags: W
HStem: -29 90<1077.94 1360.64> 0 75<61 183.851 420.626 584> 686 135<1167.87 1351.49> 702 100<94 184> 1408 76<474.775 621.817>
VStem: 184 235<77.5074 702 802 1271.73> 822 235<86.1283 665.153 698 1329> 1467 225<209.528 557.471>
LayerCount: 3
Fore
SplineSet
185 802 m 1x5f
 185 1024 l 2
 185 1414 414 1484 557 1484 c 0
 621 1484 762 1460 824 1422 c 1
 914 1444 987 1467 1057 1489 c 1
 1057 698 l 1
 1086 728 1193 821 1340 821 c 0
 1585 821 1692 610 1692 441 c 0
 1692 210 1587 -29 1218 -29 c 0xaf
 1071 -29 969 26 936 26 c 0
 850 26 854 -124 816 -124 c 0
 808 -124 758 -124 758 -91 c 0
 758 -56 822 100 822 314 c 2
 822 1329 l 1
 786 1285 728 1233 694 1233 c 0
 618 1233 680 1408 546 1408 c 0
 426 1408 419 1208 419 1116 c 2
 419 138 l 2
 419 67 435 77 586 75 c 1
 584 0 l 1
 61 0 l 1
 61 75 l 1
 182 77 184 72 184 126 c 2
 184 702 l 1
 70 702 l 1
 94 802 l 1
 185 802 l 1x5f
1057 168 m 2
 1057 75 1145 61 1227 61 c 0
 1319 61 1467 115 1467 358 c 0
 1467 658 1268 686 1224 686 c 0
 1101 686 1057 640 1057 640 c 1
 1057 168 l 2
EndSplineSet
Ligature2: "'liga' Standard Ligatures in Latin lookup 8 subtable" longs b
LCarets2: 1 0 
EndChar

StartChar: longs_longs_b
Encoding: 65614 -1 474
Width: 2183
VWidth: 0
Flags: W
HStem: -29 90<1514.94 1797.64> 0 75<30 144.279 381.681 529 577 700.889 940.555 1073> 686 135<1604.87 1788.49> 702 100<55 145 612 702> 1339 77<443.29 616.293> 1390 86<988.253 1131.11>
VStem: 145 235<77.7815 702 802 1229.19> 702 235<78.7581 702 802 1145.31> 1259 235<86.1283 665.153 698 1221> 1904 225<209.528 557.471>
LayerCount: 3
Fore
SplineSet
703 802 m 1x57c0
 703 986 l 2
 703 1014 708 1112 715 1147 c 1
 697 1150 666 1188 648 1242 c 0
 632 1291 604 1339 538 1339 c 0
 392 1339 380 1162 380 1080 c 2
 380 138 l 2
 380 67 398 78 529 75 c 1
 530 0 l 1
 30 0 l 1
 28 75 l 1
 133 76 145 70 145 132 c 2
 145 702 l 1
 31 702 l 1
 55 802 l 1
 146 802 l 1
 146 1029 l 2
 146 1234 244 1331 350 1377 c 0
 402 1400 467 1416 537 1416 c 0x5bc0
 625 1416 734 1387 793 1338 c 1
 793 1338 890 1476 1065 1476 c 0
 1120 1476 1193 1454 1264 1423 c 1
 1352 1445 1424 1467 1494 1489 c 1
 1494 698 l 1
 1523 728 1630 821 1777 821 c 0
 2022 821 2129 610 2129 441 c 0
 2129 210 2024 -29 1655 -29 c 0xa7c0
 1508 -29 1406 26 1373 26 c 0
 1287 26 1291 -124 1253 -124 c 0
 1245 -124 1195 -124 1195 -91 c 0
 1195 -56 1259 100 1259 314 c 2
 1259 1221 l 1
 1243 1217 1228 1212 1214 1212 c 0
 1186 1212 1172 1226 1161 1264 c 0
 1146 1317 1132 1390 1070 1390 c 0
 954 1390 937 1234 937 1111 c 2
 937 138 l 2
 937 69 986 76 1075 75 c 1
 1073 0 l 1
 577 0 l 1
 574 75 l 1
 681 78 702 68 702 132 c 2
 702 702 l 1
 588 702 l 1
 612 802 l 1
 703 802 l 1x57c0
1494 168 m 2
 1494 75 1582 61 1664 61 c 0
 1756 61 1904 115 1904 358 c 0
 1904 658 1705 686 1661 686 c 0xa3c0
 1538 686 1494 640 1494 640 c 1
 1494 168 l 2
EndSplineSet
Ligature2: "'liga' Standard Ligatures in Latin lookup 8 subtable" longs longs b
LCarets2: 2 0 0 
EndChar

StartChar: longs_h
Encoding: 65615 -1 475
Width: 2183
VWidth: 0
Flags: W
HStem: 0 75<61 183.851 420.626 584 681 819.344 1058.39 1164 1256 1332.98 1571.71 1709> 674 142<1222.75 1435.48> 702 100<94 184> 1408 76<474.775 621.817>
VStem: 184 235<77.5137 702 802 1271.73> 822 235<77.0756 646.886 688 1329> 1335 235<77.55 657.309>
LayerCount: 3
Fore
SplineSet
185 802 m 1xbe
 185 1024 l 2
 185 1414 414 1484 557 1484 c 0
 621 1484 762 1460 824 1422 c 1
 914 1444 987 1467 1057 1489 c 1
 1057 688 l 1
 1092 702 1259 816 1408 816 c 0
 1553 816 1570 710 1570 618 c 2
 1570 138 l 2
 1570 66 1596 78 1710 75 c 1
 1709 0 l 1
 1256 0 l 1
 1256 75 l 1
 1313 78 1335 75 1335 138 c 2
 1335 540 l 2
 1335 642 1294 674 1241 674 c 0xde
 1153 674 1057 630 1057 630 c 1
 1057 147 l 2
 1057 65 1065 80 1164 75 c 1
 1164 0 l 1
 681 0 l 1
 679 75 l 1
 802 77 822 65 822 147 c 2
 822 1329 l 1
 786 1285 728 1233 694 1233 c 0
 618 1233 680 1408 546 1408 c 0
 426 1408 419 1208 419 1116 c 2
 419 138 l 2
 419 67 435 77 586 75 c 1
 584 0 l 1
 61 0 l 1
 61 75 l 1
 182 77 184 71 184 126 c 2
 184 702 l 1
 70 702 l 1
 94 802 l 1
 185 802 l 1xbe
EndSplineSet
Ligature2: "'liga' Standard Ligatures in Latin lookup 8 subtable" longs h
LCarets2: 1 0 
EndChar

StartChar: longs_longs_h
Encoding: 65616 -1 476
Width: 2183
VWidth: 0
Flags: HMW
HStem: 0 75<30 144.279 381.681 529 577 700.889 940.555 1073 1118 1256.34 1495.39 1601 1693 1769.98 2008.71 2146> 674 142<1659.75 1872.48> 1339 77<443.29 616.293> 1390 86<988.253 1131.11>
VStem: 145 235<77.7815 138 1029 1229.19> 702 235<78.7581 138 986 1145.31> 1259 235<77.0756 147 630 646.886> 1772 235<77.55 138 540 657.309>
LayerCount: 3
Fore
SplineSet
702 702 m 1
 588 702 l 1
 612 802 l 1
 703 802 l 1
 703 986 l 2
 703 1014 708 1112 715 1147 c 1
 697 1150 666 1188 648 1242 c 0
 632 1291 604 1339 538 1339 c 0xed
 392 1339 380 1162 380 1080 c 2
 380 138 l 2
 380 67 398 78 529 75 c 1
 530 0 l 1
 30 0 l 1
 28 75 l 1
 133 76 145 70 145 132 c 2
 145 702 l 1
 31 702 l 1
 55 802 l 1
 146 802 l 1
 146 1029 l 2
 146 1234 244 1331 350 1377 c 0
 402 1400 467 1416 537 1416 c 0
 625 1416 734 1387 793 1338 c 1
 793 1338 890 1476 1065 1476 c 0xdd
 1120 1476 1193 1454 1264 1423 c 1
 1352 1445 1424 1467 1494 1489 c 1
 1494 688 l 1
 1529 702 1696 816 1845 816 c 0
 1990 816 2007 710 2007 618 c 2
 2007 138 l 2
 2007 66 2033 78 2147 75 c 1
 2146 0 l 1
 1693 0 l 1
 1693 75 l 1
 1750 78 1772 75 1772 138 c 2
 1772 540 l 2
 1772 642 1731 674 1678 674 c 0
 1590 674 1494 630 1494 630 c 1
 1494 147 l 2
 1494 65 1502 80 1601 75 c 1
 1601 0 l 1
 1118 0 l 1
 1116 75 l 1
 1239 77 1259 65 1259 147 c 2
 1259 1221 l 1
 1243 1217 1228 1212 1214 1212 c 0
 1186 1212 1172 1226 1161 1264 c 0
 1146 1317 1132 1390 1070 1390 c 0
 954 1390 937 1234 937 1111 c 2
 937 138 l 2
 937 69 986 76 1075 75 c 1
 1073 0 l 1
 577 0 l 1
 574 75 l 1
 681 78 702 68 702 132 c 2
 702 702 l 1
EndSplineSet
Ligature2: "'liga' Standard Ligatures in Latin lookup 8 subtable" longs longs h
LCarets2: 2 0 0 
EndChar

StartChar: longs_k
Encoding: 65617 -1 477
Width: 1931
VWidth: 0
Flags: W
HStem: 0 75<61 183.827 420.626 584 683 818.941 1057.39 1248 1701.46 1861> 702 100<94 184> 727 75<1336 1476.94 1620.01 1842> 1408 76<474.775 621.817>
VStem: 184 235<77.4534 702 802 1271.73> 822 235<80.219 301 404 1329>
LayerCount: 3
Fore
SplineSet
185 802 m 1xbc
 185 1024 l 2
 185 1414 414 1484 557 1484 c 0
 621 1484 762 1460 824 1422 c 1
 914 1444 987 1467 1057 1489 c 1
 1057 404 l 1
 1440 670 l 2
 1466 688 1477 700 1477 708 c 0
 1477 730 1399 725 1336 727 c 1
 1336 802 l 1
 1844 802 l 1
 1842 727 l 1xbc
 1708 726 1675 732 1579 665 c 2
 1333 493 l 1
 1636 170 l 2
 1718 83 1768 75 1820 75 c 2
 1863 75 l 1
 1861 0 l 1
 1454 0 l 1
 1147 364 l 1
 1057 301 l 1
 1057 120 l 2
 1057 71 1088 77 1248 75 c 1
 1250 0 l 1
 683 0 l 1
 682 75 l 1
 790 78 822 74 822 138 c 2
 822 1329 l 1
 786 1285 728 1233 694 1233 c 0
 618 1233 680 1408 546 1408 c 0
 426 1408 419 1208 419 1116 c 2
 419 138 l 2
 419 67 435 77 586 75 c 1
 584 0 l 1
 61 0 l 1
 61 75 l 1
 181 78 184 70 184 126 c 2
 184 702 l 1
 70 702 l 1
 94 802 l 1xdc
 185 802 l 1xbc
EndSplineSet
Ligature2: "'liga' Standard Ligatures in Latin lookup 8 subtable" longs k
LCarets2: 1 0 
EndChar

StartChar: longs_longs_k
Encoding: 65618 -1 478
Width: 2351
VWidth: 0
Flags: W
HStem: 0 75<30 144.279 381.681 529 577 700.889 940.555 1073 1120 1255.94 1494.39 1685 2138.46 2298> 702 100<55 145 612 702> 727 75<1773 1913.94 2057.01 2279> 1339 77<443.29 616.293> 1390 86<988.253 1131.11>
VStem: 145 235<77.7815 702 802 1229.19> 702 235<78.7581 702 802 1145.31> 1259 235<80.219 301 404 1221>
CounterMasks: 1 07
LayerCount: 3
Fore
SplineSet
703 802 m 1xa7
 703 986 l 2
 703 1014 708 1112 715 1147 c 1
 697 1150 666 1188 648 1242 c 0
 632 1291 604 1339 538 1339 c 0
 392 1339 380 1162 380 1080 c 2
 380 138 l 2
 380 67 398 78 529 75 c 1
 530 0 l 1
 30 0 l 1
 28 75 l 1
 133 76 145 70 145 132 c 2
 145 702 l 1
 31 702 l 1
 55 802 l 1xd7
 146 802 l 1
 146 1029 l 2
 146 1234 244 1331 350 1377 c 0
 402 1400 467 1416 537 1416 c 0xb7
 625 1416 734 1387 793 1338 c 1
 793 1338 890 1476 1065 1476 c 0
 1120 1476 1193 1454 1264 1423 c 1
 1352 1445 1424 1467 1494 1489 c 1
 1494 404 l 1
 1877 670 l 2
 1903 688 1914 700 1914 708 c 0
 1914 730 1836 725 1773 727 c 1
 1773 802 l 1
 2281 802 l 1
 2279 727 l 1xaf
 2145 726 2112 732 2016 665 c 2
 1770 493 l 1
 2073 170 l 2
 2155 83 2205 75 2257 75 c 2
 2300 75 l 1
 2298 0 l 1
 1891 0 l 1
 1584 364 l 1
 1494 301 l 1
 1494 120 l 2
 1494 71 1525 77 1685 75 c 1
 1687 0 l 1
 1120 0 l 1
 1119 75 l 1
 1227 78 1259 74 1259 138 c 2
 1259 1221 l 1
 1243 1217 1228 1212 1214 1212 c 0
 1186 1212 1172 1226 1161 1264 c 0
 1146 1317 1132 1390 1070 1390 c 0
 954 1390 937 1234 937 1111 c 2
 937 138 l 2
 937 69 986 76 1075 75 c 1
 1073 0 l 1
 577 0 l 1
 574 75 l 1
 681 78 702 68 702 132 c 2
 702 702 l 1
 588 702 l 1
 612 802 l 1xcf
 703 802 l 1xa7
EndSplineSet
Ligature2: "'liga' Standard Ligatures in Latin lookup 8 subtable" longs longs k
LCarets2: 2 0 0 
EndChar

StartChar: longs_thorn
Encoding: 65619 -1 479
Width: 1756
VWidth: 0
Flags: W
HStem: -530 75<679 821.476 1057.37 1278> -12 86<61 183.948 419.982 584 1096.93 1380.45> 684 136<1178.91 1465> 702 100<94 184> 1408 76<474.775 621.817>
VStem: 184 235<77.5137 702 802 1271.73> 822 235<-451.283 18 113.781 649.105 694 1329> 1466 240<208.613 545.559>
LayerCount: 3
Fore
SplineSet
185 802 m 1xdf
 185 1024 l 2
 185 1414 414 1484 557 1484 c 0
 621 1484 762 1460 824 1422 c 1
 914 1444 987 1467 1057 1489 c 1
 1057 694 l 1
 1058 695 1184 820 1356 820 c 0xef
 1574 820 1706 611 1706 402 c 0
 1706 248 1619 -12 1269 -12 c 0
 1135 -12 1057 18 1057 18 c 1
 1057 -404 l 2
 1057 -458 1065 -454 1279 -455 c 1
 1278 -530 l 1
 679 -530 l 1
 679 -455 l 1
 805 -454 822 -458 822 -406 c 2
 822 1329 l 1
 786 1285 728 1233 694 1233 c 0
 618 1233 680 1408 546 1408 c 0
 426 1408 419 1208 419 1116 c 2
 419 138 l 2
 419 67 435 77 586 75 c 1
 584 0 l 1
 61 0 l 1
 61 75 l 1
 182 77 184 71 184 126 c 2
 184 702 l 1
 70 702 l 1
 94 802 l 1
 185 802 l 1xdf
1057 150 m 1
 1057 150 1112 74 1257 74 c 0
 1410 74 1466 196 1466 347 c 0
 1466 509 1382 684 1222 684 c 0
 1108 684 1057 607 1057 607 c 1
 1057 150 l 1
EndSplineSet
Ligature2: "'liga' Standard Ligatures in Latin lookup 8 subtable" longs thorn
LCarets2: 1 0 
EndChar

StartChar: longs_longs_thorn
Encoding: 65620 -1 480
Width: 2202
VWidth: 0
Flags: W
HStem: -530 75<1116 1258.48 1494.37 1715> 0 75<30 144.279 381.681 529 577 700.889 940.555 1073 1539.81 1813.18> 684 136<1615.91 1902> 702 100<55 145 612 702> 1339 77<443.29 616.293> 1390 86<988.253 1131.11>
VStem: 145 235<77.7815 702 802 1229.19> 702 235<78.7581 702 802 1145.31> 1259 235<-451.283 18 113.781 649.105 694 1221> 1903 240<208.613 545.559>
LayerCount: 3
Fore
SplineSet
702 702 m 1xd7c0
 588 702 l 1
 612 802 l 1
 703 802 l 1
 703 986 l 2
 703 1014 708 1112 715 1147 c 1
 697 1150 666 1188 648 1242 c 0
 632 1291 604 1339 538 1339 c 0
 392 1339 380 1162 380 1080 c 2
 380 138 l 2
 380 67 398 78 529 75 c 1
 530 0 l 1
 30 0 l 1
 28 75 l 1
 133 76 145 70 145 132 c 2
 145 702 l 1
 31 702 l 1
 55 802 l 1
 146 802 l 1
 146 1029 l 2
 146 1234 244 1331 350 1377 c 0
 402 1400 467 1416 537 1416 c 0xdbc0
 625 1416 734 1387 793 1338 c 1
 793 1338 890 1476 1065 1476 c 0
 1120 1476 1193 1454 1264 1423 c 1
 1352 1445 1424 1467 1494 1489 c 1
 1494 694 l 1
 1495 695 1621 820 1793 820 c 0xe7c0
 2011 820 2143 611 2143 402 c 0
 2143 248 2056 -12 1706 -12 c 0
 1572 -12 1494 18 1494 18 c 1
 1494 -404 l 2
 1494 -458 1502 -454 1716 -455 c 1
 1715 -530 l 1
 1116 -530 l 1
 1116 -455 l 1
 1242 -454 1259 -458 1259 -406 c 2
 1259 1221 l 1
 1243 1217 1228 1212 1214 1212 c 0
 1186 1212 1172 1226 1161 1264 c 0
 1146 1317 1132 1390 1070 1390 c 0
 954 1390 937 1234 937 1111 c 2
 937 138 l 2
 937 69 986 76 1075 75 c 1
 1073 0 l 1
 577 0 l 1
 574 75 l 1
 681 78 702 68 702 132 c 2
 702 702 l 1xd7c0
1494 150 m 1
 1494 150 1549 74 1694 74 c 0
 1847 74 1903 196 1903 347 c 0
 1903 509 1819 684 1659 684 c 0xe3c0
 1545 684 1494 607 1494 607 c 1
 1494 150 l 1
EndSplineSet
Ligature2: "'liga' Standard Ligatures in Latin lookup 8 subtable" longs longs thorn
LCarets2: 2 0 0 
EndChar

StartChar: uni0308.narrow
Encoding: 65621 -1 481
Width: 0
VWidth: 0
Flags: W
HStem: 1045 264<-613.055 -485.302 -296.055 -168.302>
VStem: -676 251<1108.18 1245.8> -359 251<1108.18 1245.8>
AnchorPoint: "top" -400 1000 mark 0
LayerCount: 3
Fore
SplineSet
-676 1176 m 0
 -676 1216 -578 1309 -551 1309 c 0
 -510 1309 -425 1200 -425 1176 c 0
 -425 1146 -510 1045 -545 1045 c 0
 -577 1045 -676 1141 -676 1176 c 0
-359 1176 m 0
 -359 1216 -261 1309 -234 1309 c 0
 -193 1309 -108 1200 -108 1176 c 0
 -108 1146 -193 1045 -228 1045 c 0
 -260 1045 -359 1141 -359 1176 c 0
EndSplineSet
EndChar
